AnekDevanagari-ExpandedMedium.ufo
<glyph name="quotedbl" format="2">
  <advance width="886"/>
  <unicode hex="0022"/>
  <outline>
    <contour>
      <point x="335" y="1319" type="line"/>
      <point x="119" y="1319" type="line"/>
      <point x="141" y="790" type="line"/>
      <point x="311" y="790" type="line"/>
    </contour>
    <contour>
      <point x="767" y="1319" type="line"/>
      <point x="551" y="1319" type="line"/>
      <point x="573" y="790" type="line"/>
      <point x="743" y="790" type="line"/>
    </contour>
  </outline>
</glyph>
<glyph name="ampersand" format="2">
  <advance width="1664"/>
  <unicode hex="0026"/>
  <outline>
    <contour>
      <point x="1676" y="0" type="line"/>
      <point x="1676" y="22" type="line"/>
      <point x="1553" y="126"/>
      <point x="1448" y="207"/>
      <point x="1315" y="312" type="curve"/>
      <point x="1234" y="373" type="line"/>
      <point x="656" y="786" type="line" smooth="yes"/>
      <point x="563" y="852"/>
      <point x="505" y="899"/>
      <point x="505" y="975" type="curve"/>
      <point x="505" y="977" type="line"/>
      <point x="505" y="1066"/>
      <point x="572" y="1124"/>
      <point x="765" y="1124" type="curve" smooth="yes"/>
      <point x="947" y="1124"/>
      <point x="1113" y="1078"/>
      <point x="1236" y="1022" type="curve"/>
      <point x="1209" y="1212" type="line"/>
      <point x="1109" y="1259"/>
      <point x="954" y="1306"/>
      <point x="733" y="1306" type="curve" smooth="yes"/>
      <point x="416" y="1306"/>
      <point x="271" y="1190"/>
      <point x="271" y="998" type="curve" smooth="yes"/>
      <point x="271" y="992" type="line" smooth="yes"/>
      <point x="271" y="877"/>
      <point x="326" y="798"/>
      <point x="441" y="717" type="curve"/>
      <point x="474" y="679" type="line"/>
      <point x="1113" y="228" type="line"/>
      <point x="1153" y="204" type="line"/>
      <point x="1192" y="173"/>
      <point x="1368" y="34"/>
      <point x="1413" y="0" type="curve"/>
    </contour>
    <contour>
      <point x="690" y="-30" type="curve" smooth="yes"/>
      <point x="953" y="-30"/>
      <point x="1132" y="48"/>
      <point x="1277" y="182" type="curve"/>
      <point x="1331" y="233" type="line"/>
      <point x="1451" y="359"/>
      <point x="1546" y="541"/>
      <point x="1583" y="763" type="curve"/>
      <point x="1363" y="763" type="line"/>
      <point x="1329" y="588"/>
      <point x="1265" y="458"/>
      <point x="1177" y="351" type="curve"/>
      <point x="1132" y="301" type="line"/>
      <point x="1027" y="203"/>
      <point x="883" y="151"/>
      <point x="706" y="151" type="curve" smooth="yes"/>
      <point x="474" y="151"/>
      <point x="348" y="252"/>
      <point x="348" y="401" type="curve" smooth="yes"/>
      <point x="348" y="409" type="line" smooth="yes"/>
      <point x="348" y="537"/>
      <point x="421" y="608"/>
      <point x="558" y="658" type="curve"/>
      <point x="429" y="784" type="line"/>
      <point x="211" y="703"/>
      <point x="117" y="576"/>
      <point x="117" y="383" type="curve" smooth="yes"/>
      <point x="117" y="374" type="line" smooth="yes"/>
      <point x="117" y="133"/>
      <point x="310" y="-30"/>
    </contour>
  </outline>
</glyph>
<glyph name="quotesingle" format="2">
  <advance width="454"/>
  <unicode hex="0027"/>
  <outline>
    <contour>
      <point x="335" y="1319" type="line"/>
      <point x="119" y="1319" type="line"/>
      <point x="141" y="790" type="line"/>
      <point x="311" y="790" type="line"/>
    </contour>
  </outline>
</glyph>
<glyph name="plus" format="2">
  <advance width="1337"/>
  <unicode hex="002B"/>
  <outline>
    <contour>
      <point x="761" y="1125" type="line"/>
      <point x="576" y="1125" type="line"/>
      <point x="576" y="87" type="line"/>
      <point x="761" y="87" type="line"/>
    </contour>
    <contour>
      <point x="1196" y="521" type="line"/>
      <point x="1196" y="691" type="line"/>
      <point x="141" y="691" type="line"/>
      <point x="141" y="521" type="line"/>
    </contour>
  </outline>
</glyph>
<glyph name="six" format="2">
  <advance width="1481"/>
  <unicode hex="0036"/>
  <outline>
    <contour>
      <point x="782" y="-31" type="curve" smooth="yes"/>
      <point x="1165" y="-31"/>
      <point x="1376" y="127"/>
      <point x="1376" y="404" type="curve" smooth="yes"/>
      <point x="1376" y="420" type="line" smooth="yes"/>
      <point x="1376" y="676"/>
      <point x="1201" y="823"/>
      <point x="878" y="823" type="curve" smooth="yes"/>
      <point x="571" y="823"/>
      <point x="410" y="696"/>
      <point x="350" y="536" type="curve"/>
      <point x="317" y="536" type="line"/>
      <point x="347" y="400" type="line"/>
      <point x="418" y="542"/>
      <point x="576" y="653"/>
      <point x="806" y="653" type="curve" smooth="yes"/>
      <point x="1057" y="653"/>
      <point x="1153" y="557"/>
      <point x="1153" y="416" type="curve" smooth="yes"/>
      <point x="1153" y="407" type="line" smooth="yes"/>
      <point x="1153" y="249"/>
      <point x="1028" y="152"/>
      <point x="787" y="152" type="curve" smooth="yes"/>
      <point x="505" y="152"/>
      <point x="337" y="305"/>
      <point x="337" y="602" type="curve" smooth="yes"/>
      <point x="337" y="620" type="line" smooth="yes"/>
      <point x="337" y="949"/>
      <point x="506" y="1122"/>
      <point x="825" y="1122" type="curve" smooth="yes"/>
      <point x="1048" y="1122"/>
      <point x="1178" y="1076"/>
      <point x="1304" y="1012" type="curve"/>
      <point x="1279" y="1209" type="line"/>
      <point x="1167" y="1259"/>
      <point x="1018" y="1304"/>
      <point x="800" y="1304" type="curve" smooth="yes"/>
      <point x="353" y="1304"/>
      <point x="113" y="1050"/>
      <point x="113" y="620" type="curve" smooth="yes"/>
      <point x="113" y="601" type="line" smooth="yes"/>
      <point x="113" y="200"/>
      <point x="368" y="-31"/>
    </contour>
  </outline>
</glyph>
<glyph name="question" format="2">
  <advance width="1282"/>
  <unicode hex="003F"/>
  <outline>
    <contour>
      <point x="524" y="426" type="line" smooth="yes"/>
      <point x="949" y="452"/>
      <point x="1181" y="590"/>
      <point x="1181" y="884" type="curve" smooth="yes"/>
      <point x="1181" y="897" type="line" smooth="yes"/>
      <point x="1181" y="1162"/>
      <point x="998" y="1304"/>
      <point x="619" y="1304" type="curve" smooth="yes"/>
      <point x="383" y="1304"/>
      <point x="193" y="1235"/>
      <point x="92" y="1181" type="curve"/>
      <point x="66" y="989" type="line"/>
      <point x="213" y="1061"/>
      <point x="402" y="1122"/>
      <point x="604" y="1122" type="curve" smooth="yes"/>
      <point x="865" y="1122"/>
      <point x="956" y="1034"/>
      <point x="956" y="893" type="curve" smooth="yes"/>
      <point x="956" y="883" type="line" smooth="yes"/>
      <point x="956" y="713"/>
      <point x="820" y="626"/>
      <point x="513" y="602" type="curve" smooth="yes"/>
      <point x="409" y="594" type="line"/>
      <point x="409" y="419" type="line"/>
    </contour>
    <contour>
      <point x="518" y="-24" type="curve" smooth="yes"/>
      <point x="613" y="-24"/>
      <point x="658" y="23"/>
      <point x="658" y="100" type="curve" smooth="yes"/>
      <point x="658" y="104" type="line" smooth="yes"/>
      <point x="658" y="181"/>
      <point x="613" y="228"/>
      <point x="518" y="228" type="curve" smooth="yes"/>
      <point x="425" y="228"/>
      <point x="379" y="181"/>
      <point x="379" y="104" type="curve" smooth="yes"/>
      <point x="379" y="100" type="line" smooth="yes"/>
      <point x="379" y="23"/>
      <point x="425" y="-24"/>
    </contour>
  </outline>
</glyph>
<glyph name="A" format="2">
  <advance width="1608"/>
  <unicode hex="0041"/>
  <anchor x="804" y="0" name="bottom"/>
  <anchor x="1598" y="5" name="ogonek"/>
  <anchor x="804" y="1278" name="top"/>
  <outline>
    <contour>
      <point x="278" y="0" type="line"/>
      <point x="790" y="1138" type="line"/>
      <point x="822" y="1138" type="line"/>
      <point x="1330" y="0" type="line"/>
      <point x="1561" y="0" type="line"/>
      <point x="974" y="1278" type="line"/>
      <point x="638" y="1278" type="line"/>
      <point x="47" y="0" type="line"/>
    </contour>
    <contour>
      <point x="1215" y="354" type="line"/>
      <point x="1215" y="534" type="line"/>
      <point x="393" y="534" type="line"/>
      <point x="393" y="354" type="line"/>
    </contour>
  </outline>
</glyph>
<glyph name="U" format="2">
  <advance width="1661"/>
  <unicode hex="0055"/>
  <anchor x="831" y="0" name="bottom"/>
  <anchor x="1168" y="5" name="ogonek"/>
  <anchor x="831" y="1278" name="top"/>
  <anchor x="1626" y="1278" name="topright"/>
  <outline>
    <contour>
      <point x="831" y="-33" type="curve" smooth="yes"/>
      <point x="1284" y="-33"/>
      <point x="1489" y="182"/>
      <point x="1489" y="593" type="curve" smooth="yes"/>
      <point x="1489" y="1278" type="line"/>
      <point x="1266" y="1278" type="line"/>
      <point x="1266" y="595" type="line" smooth="yes"/>
      <point x="1266" y="308"/>
      <point x="1136" y="153"/>
      <point x="831" y="153" type="curve" smooth="yes"/>
      <point x="526" y="153"/>
      <point x="395" y="308"/>
      <point x="395" y="595" type="curve" smooth="yes"/>
      <point x="395" y="1278" type="line"/>
      <point x="172" y="1278" type="line"/>
      <point x="172" y="593" type="line" smooth="yes"/>
      <point x="172" y="182"/>
      <point x="379" y="-33"/>
    </contour>
  </outline>
</glyph>
<glyph name="m" format="2">
  <advance width="2180"/>
  <unicode hex="006D"/>
  <anchor x="1090" y="0" name="bottom"/>
  <anchor x="1090" y="958" name="top"/>
  <outline>
    <contour>
      <point x="2036" y="0" type="line"/>
      <point x="2036" y="525" type="line" smooth="yes"/>
      <point x="2036" y="817"/>
      <point x="1918" y="987"/>
      <point x="1623" y="987" type="curve" smooth="yes"/>
      <point x="1369" y="987"/>
      <point x="1246" y="860"/>
      <point x="1195" y="714" type="curve"/>
      <point x="1169" y="714" type="line"/>
      <point x="1198" y="553" type="line"/>
      <point x="1234" y="695"/>
      <point x="1350" y="807"/>
      <point x="1545" y="807" type="curve" smooth="yes"/>
      <point x="1750" y="807"/>
      <point x="1818" y="679"/>
      <point x="1818" y="503" type="curve" smooth="yes"/>
      <point x="1818" y="0" type="line"/>
    </contour>
    <contour>
      <point x="378" y="0" type="line"/>
      <point x="378" y="648" type="line"/>
      <point x="369" y="679" type="line"/>
      <point x="378" y="958" type="line"/>
      <point x="160" y="958" type="line"/>
      <point x="160" y="0" type="line"/>
    </contour>
    <contour>
      <point x="1207" y="0" type="line"/>
      <point x="1207" y="547" type="line" smooth="yes"/>
      <point x="1207" y="578"/>
      <point x="1203" y="621"/>
      <point x="1197" y="650" type="curve"/>
      <point x="1165" y="867"/>
      <point x="1041" y="987"/>
      <point x="794" y="987" type="curve" smooth="yes"/>
      <point x="552" y="987"/>
      <point x="423" y="860"/>
      <point x="381" y="714" type="curve"/>
      <point x="347" y="714" type="line"/>
      <point x="369" y="549" type="line"/>
      <point x="405" y="693"/>
      <point x="521" y="807"/>
      <point x="716" y="807" type="curve" smooth="yes"/>
      <point x="921" y="807"/>
      <point x="989" y="679"/>
      <point x="989" y="503" type="curve" smooth="yes"/>
      <point x="989" y="0" type="line"/>
    </contour>
  </outline>
</glyph>
<glyph name="yen" format="2">
  <advance width="1525"/>
  <unicode hex="00A5"/>
  <anchor x="761" y="0" name="bottom"/>
  <anchor x="761" y="1278" name="top"/>
  <anchor x="20" y="1278" name="topleft"/>
  <outline>
    <contour>
      <point x="1370" y="543" type="line"/>
      <point x="1384" y="695" type="line"/>
      <point x="920" y="695" type="line"/>
      <point x="877" y="543" type="line"/>
    </contour>
    <contour>
      <point x="144" y="238" type="line"/>
      <point x="1370" y="238" type="line"/>
      <point x="1384" y="390" type="line"/>
      <point x="159" y="390" type="line"/>
    </contour>
    <contour>
      <point x="159" y="695" type="line"/>
      <point x="144" y="543" type="line"/>
      <point x="655" y="543" type="line"/>
      <point x="612" y="695" type="line"/>
    </contour>
    <contour>
      <point x="858" y="364" type="line"/>
      <point x="1482" y="1278" type="line"/>
      <point x="1230" y="1278" type="line"/>
      <point x="899" y="785" type="line"/>
      <point x="768" y="591" type="line"/>
      <point x="753" y="591" type="line"/>
      <point x="621" y="787" type="line"/>
      <point x="291" y="1278" type="line"/>
      <point x="39" y="1278" type="line"/>
      <point x="664" y="364" type="line"/>
    </contour>
    <contour>
      <point x="872" y="0" type="line"/>
      <point x="872" y="553" type="line"/>
      <point x="650" y="553" type="line"/>
      <point x="650" y="0" type="line"/>
    </contour>
  </outline>
</glyph>
<glyph name="dieresis" format="2">
  <advance width="825"/>
  <unicode hex="00A8"/>
  <anchor x="413" y="958" name="_top"/>
  <anchor x="413" y="1338" name="top"/>
  <outline>
    <contour>
      <point x="221" y="1125" type="curve" smooth="yes"/>
      <point x="307" y="1125"/>
      <point x="348" y="1165"/>
      <point x="348" y="1233" type="curve" smooth="yes"/>
      <point x="348" y="1236" type="line" smooth="yes"/>
      <point x="348" y="1302"/>
      <point x="307" y="1343"/>
      <point x="221" y="1343" type="curve" smooth="yes"/>
      <point x="136" y="1343"/>
      <point x="96" y="1302"/>
      <point x="96" y="1236" type="curve" smooth="yes"/>
      <point x="96" y="1233" type="line" smooth="yes"/>
      <point x="96" y="1166"/>
      <point x="136" y="1125"/>
    </contour>
    <contour>
      <point x="602" y="1125" type="curve" smooth="yes"/>
      <point x="688" y="1125"/>
      <point x="729" y="1165"/>
      <point x="729" y="1233" type="curve" smooth="yes"/>
      <point x="729" y="1236" type="line" smooth="yes"/>
      <point x="729" y="1302"/>
      <point x="688" y="1343"/>
      <point x="602" y="1343" type="curve" smooth="yes"/>
      <point x="517" y="1343"/>
      <point x="477" y="1302"/>
      <point x="477" y="1236" type="curve" smooth="yes"/>
      <point x="477" y="1233" type="line" smooth="yes"/>
      <point x="477" y="1166"/>
      <point x="517" y="1125"/>
    </contour>
  </outline>
</glyph>
<glyph name="ordfeminine" format="2">
  <advance width="882"/>
  <unicode hex="00AA"/>
  <outline>
    <contour>
      <point x="761" y="644" type="line"/>
      <point x="761" y="1022" type="line" smooth="yes"/>
      <point x="761" y="1167"/>
      <point x="684" y="1294"/>
      <point x="439" y="1294" type="curve" smooth="yes"/>
      <point x="302" y="1294"/>
      <point x="202" y="1254"/>
      <point x="135" y="1218" type="curve"/>
      <point x="120" y="1089" type="line"/>
      <point x="198" y="1127"/>
      <point x="294" y="1167"/>
      <point x="412" y="1167" type="curve" smooth="yes"/>
      <point x="554" y="1167"/>
      <point x="612" y="1117"/>
      <point x="612" y="1026" type="curve"/>
      <point x="612" y="978" type="line"/>
      <point x="612" y="836" type="line"/>
      <point x="613" y="817" type="line"/>
      <point x="607" y="644" type="line"/>
    </contour>
    <contour>
      <point x="326" y="627" type="curve" smooth="yes"/>
      <point x="499" y="627"/>
      <point x="569" y="696"/>
      <point x="606" y="788" type="curve"/>
      <point x="635" y="788" type="line"/>
      <point x="618" y="905" type="line"/>
      <point x="589" y="820"/>
      <point x="494" y="757"/>
      <point x="374" y="757" type="curve" smooth="yes"/>
      <point x="287" y="757"/>
      <point x="243" y="782"/>
      <point x="243" y="831" type="curve" smooth="yes"/>
      <point x="243" y="835" type="line" smooth="yes"/>
      <point x="243" y="893"/>
      <point x="290" y="910"/>
      <point x="395" y="919" type="curve" smooth="yes"/>
      <point x="628" y="939" type="line"/>
      <point x="624" y="1046" type="line"/>
      <point x="371" y="1026" type="line" smooth="yes"/>
      <point x="187" y="1011"/>
      <point x="83" y="960"/>
      <point x="83" y="822" type="curve" smooth="yes"/>
      <point x="83" y="815" type="line" smooth="yes"/>
      <point x="83" y="696"/>
      <point x="173" y="627"/>
    </contour>
  </outline>
</glyph>
<glyph name="softhyphen" format="2">
  <advance width="1022"/>
  <unicode hex="00AD"/>
  <outline>
    <contour>
      <point x="882" y="438" type="line"/>
      <point x="882" y="610" type="line"/>
      <point x="140" y="610" type="line"/>
      <point x="140" y="438" type="line"/>
    </contour>
  </outline>
</glyph>
<glyph name="registered" format="2">
  <advance width="1012"/>
  <unicode hex="00AE"/>
  <outline>
    <contour>
      <point x="507" y="520" type="curve" smooth="yes"/>
      <point x="786" y="520"/>
      <point x="952" y="663"/>
      <point x="952" y="908" type="curve"/>
      <point x="952" y="913" type="line"/>
      <point x="952" y="1158"/>
      <point x="786" y="1300"/>
      <point x="507" y="1300" type="curve" smooth="yes"/>
      <point x="227" y="1300"/>
      <point x="60" y="1158"/>
      <point x="60" y="913" type="curve"/>
      <point x="60" y="908" type="line"/>
      <point x="60" y="663"/>
      <point x="227" y="520"/>
    </contour>
    <contour>
      <point x="507" y="604" type="curve" smooth="yes"/>
      <point x="283" y="604"/>
      <point x="160" y="712"/>
      <point x="160" y="909" type="curve" smooth="yes"/>
      <point x="160" y="914" type="line" smooth="yes"/>
      <point x="160" y="1109"/>
      <point x="283" y="1216"/>
      <point x="507" y="1216" type="curve" smooth="yes"/>
      <point x="730" y="1216"/>
      <point x="852" y="1109"/>
      <point x="852" y="914" type="curve" smooth="yes"/>
      <point x="852" y="909" type="line" smooth="yes"/>
      <point x="852" y="712"/>
      <point x="730" y="604"/>
    </contour>
    <contour>
      <point x="715" y="731" type="line"/>
      <point x="700" y="795" type="line" smooth="yes"/>
      <point x="686" y="854"/>
      <point x="666" y="891"/>
      <point x="593" y="896" type="curve"/>
      <point x="609" y="887" type="line"/>
      <point x="609" y="899" type="line"/>
      <point x="674" y="902"/>
      <point x="707" y="935"/>
      <point x="707" y="991" type="curve" smooth="yes"/>
      <point x="707" y="995" type="line" smooth="yes"/>
      <point x="707" y="1062"/>
      <point x="661" y="1101"/>
      <point x="559" y="1101" type="curve" smooth="yes"/>
      <point x="390" y="1101" type="line"/>
      <point x="390" y="1032" type="line"/>
      <point x="540" y="1032" type="line" smooth="yes"/>
      <point x="591" y="1032"/>
      <point x="612" y="1012"/>
      <point x="612" y="979" type="curve" smooth="yes"/>
      <point x="612" y="976" type="line" smooth="yes"/>
      <point x="612" y="942"/>
      <point x="591" y="921"/>
      <point x="541" y="921" type="curve" smooth="yes"/>
      <point x="390" y="920" type="line"/>
      <point x="390" y="853" type="line"/>
      <point x="522" y="853" type="line" smooth="yes"/>
      <point x="579" y="853"/>
      <point x="595" y="834"/>
      <point x="607" y="781" type="curve" smooth="yes"/>
      <point x="618" y="731" type="line"/>
    </contour>
    <contour>
      <point x="425" y="731" type="line"/>
      <point x="425" y="861" type="line"/>
      <point x="425" y="890" type="line"/>
      <point x="425" y="1101" type="line"/>
      <point x="333" y="1101" type="line"/>
      <point x="333" y="731" type="line"/>
    </contour>
  </outline>
</glyph>
<glyph name="macron" format="2">
  <advance width="940"/>
  <unicode hex="00AF"/>
  <anchor x="470" y="958" name="_top"/>
  <anchor x="470" y="1307" name="top"/>
  <outline>
    <contour>
      <point x="823" y="1152" type="line"/>
      <point x="823" y="1298" type="line"/>
      <point x="117" y="1298" type="line"/>
      <point x="117" y="1152" type="line"/>
    </contour>
  </outline>
</glyph>
<glyph name="periodcentered" format="2">
  <advance width="489"/>
  <unicode hex="00B7"/>
  <anchor x="245" y="244" name="_top"/>
  <anchor x="245" y="627" name="top"/>
  <outline>
    <contour>
      <point x="244" y="408" type="curve" smooth="yes"/>
      <point x="332" y="408"/>
      <point x="374" y="449"/>
      <point x="374" y="517" type="curve" smooth="yes"/>
      <point x="374" y="522" type="line" smooth="yes"/>
      <point x="374" y="589"/>
      <point x="332" y="632"/>
      <point x="244" y="632" type="curve" smooth="yes"/>
      <point x="158" y="632"/>
      <point x="115" y="589"/>
      <point x="115" y="522" type="curve" smooth="yes"/>
      <point x="115" y="517" type="line" smooth="yes"/>
      <point x="115" y="449"/>
      <point x="158" y="408"/>
    </contour>
  </outline>
</glyph>
<glyph name="threequarters" format="2">
  <advance width="2145"/>
  <unicode hex="00BE"/>
  <outline>
    <contour>
      <point x="413" y="585" type="curve" smooth="yes"/>
      <point x="671" y="585"/>
      <point x="795" y="662"/>
      <point x="795" y="793" type="curve" smooth="yes"/>
      <point x="795" y="801" type="line" smooth="yes"/>
      <point x="795" y="891"/>
      <point x="739" y="940"/>
      <point x="623" y="957" type="curve"/>
      <point x="627" y="945" type="line"/>
      <point x="627" y="962" type="line"/>
      <point x="734" y="975"/>
      <point x="788" y="1026"/>
      <point x="788" y="1108" type="curve" smooth="yes"/>
      <point x="788" y="1114" type="line" smooth="yes"/>
      <point x="788" y="1233"/>
      <point x="669" y="1296"/>
      <point x="425" y="1296" type="curve" smooth="yes"/>
      <point x="273" y="1296"/>
      <point x="153" y="1268"/>
      <point x="77" y="1238" type="curve"/>
      <point x="61" y="1108" type="line"/>
      <point x="141" y="1135"/>
      <point x="263" y="1164"/>
      <point x="409" y="1164" type="curve" smooth="yes"/>
      <point x="566" y="1164"/>
      <point x="610" y="1138"/>
      <point x="610" y="1090" type="curve"/>
      <point x="610" y="1088" type="line"/>
      <point x="610" y="1042"/>
      <point x="567" y="1015"/>
      <point x="454" y="1013" type="curve" smooth="yes"/>
      <point x="205" y="1008" type="line"/>
      <point x="205" y="890" type="line"/>
      <point x="454" y="886" type="line" smooth="yes"/>
      <point x="596" y="884"/>
      <point x="615" y="851"/>
      <point x="615" y="810" type="curve" smooth="yes"/>
      <point x="615" y="807" type="line" smooth="yes"/>
      <point x="615" y="754"/>
      <point x="567" y="718"/>
      <point x="393" y="718" type="curve" smooth="yes"/>
      <point x="264" y="718"/>
      <point x="139" y="746"/>
      <point x="57" y="772" type="curve"/>
      <point x="73" y="633" type="line"/>
      <point x="140" y="614"/>
      <point x="260" y="585"/>
    </contour>
    <contour>
      <point x="644" y="0" type="line"/>
      <point x="1860" y="1278" type="line"/>
      <point x="1660" y="1278" type="line"/>
      <point x="440" y="0" type="line"/>
    </contour>
    <contour>
      <point x="1993" y="0" type="line"/>
      <point x="1993" y="673" type="line"/>
      <point x="1736" y="673" type="line"/>
      <point x="1294" y="265" type="line"/>
      <point x="1294" y="114" type="line"/>
      <point x="2123" y="114" type="line"/>
      <point x="2123" y="246" type="line"/>
      <point x="1401" y="246" type="line"/>
      <point x="1478" y="189" type="line"/>
      <point x="1478" y="252" type="line"/>
      <point x="1819" y="564" type="line"/>
      <point x="1835" y="564" type="line"/>
      <point x="1833" y="427" type="line"/>
      <point x="1833" y="0" type="line"/>
    </contour>
  </outline>
</glyph>
<glyph name="Aacute" format="2">
  <advance width="1608"/>
  <unicode hex="00C1"/>
  <anchor x="804" y="0" name="bottom"/>
  <anchor x="1598" y="5" name="ogonek"/>
  <anchor x="804" y="1662" name="top"/>
  <outline>
    <contour>
      <point x="278" y="0" type="line"/>
      <point x="790" y="1138" type="line"/>
      <point x="822" y="1138" type="line"/>
      <point x="1330" y="0" type="line"/>
      <point x="1561" y="0" type="line"/>
      <point x="974" y="1278" type="line"/>
      <point x="638" y="1278" type="line"/>
      <point x="47" y="0" type="line"/>
    </contour>
    <contour>
      <point x="1215" y="354" type="line"/>
      <point x="1215" y="534" type="line"/>
      <point x="393" y="534" type="line"/>
      <point x="393" y="354" type="line"/>
    </contour>
    <contour>
      <point x="690" y="1428" type="line"/>
      <point x="690" y="1424" type="line"/>
      <point x="916" y="1424" type="line"/>
      <point x="1267" y="1691" type="line"/>
      <point x="1267" y="1697" type="line"/>
      <point x="996" y="1697" type="line"/>
    </contour>
  </outline>
</glyph>
<glyph name="Acircumflex" format="2">
  <advance width="1608"/>
  <unicode hex="00C2"/>
  <anchor x="804" y="0" name="bottom"/>
  <anchor x="1598" y="5" name="ogonek"/>
  <anchor x="806" y="1662" name="top"/>
  <outline>
    <contour>
      <point x="278" y="0" type="line"/>
      <point x="790" y="1138" type="line"/>
      <point x="822" y="1138" type="line"/>
      <point x="1330" y="0" type="line"/>
      <point x="1561" y="0" type="line"/>
      <point x="974" y="1278" type="line"/>
      <point x="638" y="1278" type="line"/>
      <point x="47" y="0" type="line"/>
    </contour>
    <contour>
      <point x="1215" y="354" type="line"/>
      <point x="1215" y="534" type="line"/>
      <point x="393" y="534" type="line"/>
      <point x="393" y="354" type="line"/>
    </contour>
    <contour>
      <point x="405" y="1430" type="line"/>
      <point x="405" y="1424" type="line"/>
      <point x="602" y="1424" type="line"/>
      <point x="801" y="1580" type="line"/>
      <point x="809" y="1580" type="line"/>
      <point x="1007" y="1424" type="line"/>
      <point x="1204" y="1424" type="line"/>
      <point x="1204" y="1430" type="line"/>
      <point x="918" y="1697" type="line"/>
      <point x="691" y="1697" type="line"/>
    </contour>
  </outline>
</glyph>
<glyph name="Adieresis" format="2">
  <advance width="1608"/>
  <unicode hex="00C4"/>
  <anchor x="804" y="0" name="bottom"/>
  <anchor x="1598" y="5" name="ogonek"/>
  <anchor x="804" y="1626" name="top"/>
  <outline>
    <contour>
      <point x="278" y="0" type="line"/>
      <point x="790" y="1138" type="line"/>
      <point x="822" y="1138" type="line"/>
      <point x="1330" y="0" type="line"/>
      <point x="1561" y="0" type="line"/>
      <point x="974" y="1278" type="line"/>
      <point x="638" y="1278" type="line"/>
      <point x="47" y="0" type="line"/>
    </contour>
    <contour>
      <point x="1215" y="354" type="line"/>
      <point x="1215" y="534" type="line"/>
      <point x="393" y="534" type="line"/>
      <point x="393" y="354" type="line"/>
    </contour>
    <contour>
      <point x="612" y="1446" type="curve" smooth="yes"/>
      <point x="698" y="1446"/>
      <point x="739" y="1486"/>
      <point x="739" y="1554" type="curve" smooth="yes"/>
      <point x="739" y="1557" type="line" smooth="yes"/>
      <point x="739" y="1623"/>
      <point x="698" y="1664"/>
      <point x="612" y="1664" type="curve" smooth="yes"/>
      <point x="527" y="1664"/>
      <point x="487" y="1623"/>
      <point x="487" y="1557" type="curve" smooth="yes"/>
      <point x="487" y="1554" type="line" smooth="yes"/>
      <point x="487" y="1487"/>
      <point x="527" y="1446"/>
    </contour>
    <contour>
      <point x="993" y="1446" type="curve" smooth="yes"/>
      <point x="1079" y="1446"/>
      <point x="1120" y="1486"/>
      <point x="1120" y="1554" type="curve" smooth="yes"/>
      <point x="1120" y="1557" type="line" smooth="yes"/>
      <point x="1120" y="1623"/>
      <point x="1079" y="1664"/>
      <point x="993" y="1664" type="curve" smooth="yes"/>
      <point x="908" y="1664"/>
      <point x="868" y="1623"/>
      <point x="868" y="1557" type="curve" smooth="yes"/>
      <point x="868" y="1554" type="line" smooth="yes"/>
      <point x="868" y="1487"/>
      <point x="908" y="1446"/>
    </contour>
  </outline>
</glyph>
<glyph name="Aring" format="2">
  <advance width="1608"/>
  <unicode hex="00C5"/>
  <anchor x="804" y="0" name="bottom"/>
  <anchor x="1598" y="5" name="ogonek"/>
  <anchor x="804" y="1714" name="top"/>
  <outline>
    <contour>
      <point x="278" y="0" type="line"/>
      <point x="790" y="1138" type="line"/>
      <point x="822" y="1138" type="line"/>
      <point x="1330" y="0" type="line"/>
      <point x="1561" y="0" type="line"/>
      <point x="974" y="1278" type="line"/>
      <point x="638" y="1278" type="line"/>
      <point x="47" y="0" type="line"/>
    </contour>
    <contour>
      <point x="1215" y="354" type="line"/>
      <point x="1215" y="534" type="line"/>
      <point x="393" y="534" type="line"/>
      <point x="393" y="354" type="line"/>
    </contour>
    <contour>
      <point x="578" y="1555" type="line" smooth="yes"/>
      <point x="578" y="1444"/>
      <point x="652" y="1372"/>
      <point x="804" y="1372" type="curve" smooth="yes"/>
      <point x="955" y="1372"/>
      <point x="1029" y="1444"/>
      <point x="1029" y="1555" type="curve" smooth="yes"/>
      <point x="1029" y="1559" type="line" smooth="yes"/>
      <point x="1029" y="1671"/>
      <point x="955" y="1742"/>
      <point x="804" y="1742" type="curve" smooth="yes"/>
      <point x="652" y="1742"/>
      <point x="578" y="1671"/>
      <point x="578" y="1559" type="curve" smooth="yes"/>
    </contour>
    <contour>
      <point x="706" y="1559" type="line" smooth="yes"/>
      <point x="706" y="1610"/>
      <point x="740" y="1638"/>
      <point x="804" y="1638" type="curve" smooth="yes"/>
      <point x="868" y="1638"/>
      <point x="902" y="1610"/>
      <point x="902" y="1559" type="curve" smooth="yes"/>
      <point x="902" y="1556" type="line" smooth="yes"/>
      <point x="902" y="1505"/>
      <point x="868" y="1476"/>
      <point x="804" y="1476" type="curve" smooth="yes"/>
      <point x="740" y="1476"/>
      <point x="706" y="1505"/>
      <point x="706" y="1556" type="curve" smooth="yes"/>
    </contour>
  </outline>
</glyph>
<glyph name="Eacute" format="2">
  <advance width="1473"/>
  <unicode hex="00C9"/>
  <anchor x="773" y="0" name="bottom"/>
  <anchor x="1363" y="5" name="ogonek"/>
  <anchor x="773" y="1662" name="top"/>
  <anchor x="20" y="1278" name="topleft"/>
  <outline>
    <contour>
      <point x="404" y="0" type="line"/>
      <point x="404" y="1278" type="line"/>
      <point x="185" y="1278" type="line"/>
      <point x="185" y="0" type="line"/>
    </contour>
    <contour>
      <point x="1346" y="0" type="line"/>
      <point x="1346" y="181" type="line"/>
      <point x="196" y="181" type="line"/>
      <point x="196" y="0" type="line"/>
    </contour>
    <contour>
      <point x="1309" y="560" type="line"/>
      <point x="1309" y="738" type="line"/>
      <point x="299" y="738" type="line"/>
      <point x="299" y="560" type="line"/>
    </contour>
    <contour>
      <point x="1332" y="1097" type="line"/>
      <point x="1332" y="1278" type="line"/>
      <point x="196" y="1278" type="line"/>
      <point x="196" y="1097" type="line"/>
    </contour>
    <contour>
      <point x="659" y="1428" type="line"/>
      <point x="659" y="1424" type="line"/>
      <point x="885" y="1424" type="line"/>
      <point x="1236" y="1691" type="line"/>
      <point x="1236" y="1697" type="line"/>
      <point x="965" y="1697" type="line"/>
    </contour>
  </outline>
</glyph>
<glyph name="Iacute" format="2">
  <advance width="597"/>
  <unicode hex="00CD"/>
  <anchor x="299" y="0" name="bottom"/>
  <anchor x="448" y="5" name="ogonek"/>
  <anchor x="299" y="1662" name="top"/>
  <anchor x="20" y="1278" name="topleft"/>
  <outline>
    <contour>
      <point x="410" y="1278" type="line"/>
      <point x="187" y="1278" type="line"/>
      <point x="187" y="0" type="line"/>
      <point x="410" y="0" type="line"/>
    </contour>
    <contour>
      <point x="185" y="1428" type="line"/>
      <point x="185" y="1424" type="line"/>
      <point x="411" y="1424" type="line"/>
      <point x="762" y="1691" type="line"/>
      <point x="762" y="1697" type="line"/>
      <point x="491" y="1697" type="line"/>
    </contour>
  </outline>
</glyph>
<glyph name="Icircumflex" format="2">
  <advance width="597"/>
  <unicode hex="00CE"/>
  <anchor x="299" y="0" name="bottom"/>
  <anchor x="448" y="5" name="ogonek"/>
  <anchor x="301" y="1662" name="top"/>
  <anchor x="20" y="1278" name="topleft"/>
  <outline>
    <contour>
      <point x="410" y="1278" type="line"/>
      <point x="187" y="1278" type="line"/>
      <point x="187" y="0" type="line"/>
      <point x="410" y="0" type="line"/>
    </contour>
    <contour>
      <point x="-100" y="1430" type="line"/>
      <point x="-100" y="1424" type="line"/>
      <point x="97" y="1424" type="line"/>
      <point x="296" y="1580" type="line"/>
      <point x="304" y="1580" type="line"/>
      <point x="502" y="1424" type="line"/>
      <point x="699" y="1424" type="line"/>
      <point x="699" y="1430" type="line"/>
      <point x="413" y="1697" type="line"/>
      <point x="186" y="1697" type="line"/>
    </contour>
  </outline>
</glyph>
<glyph name="Idieresis" format="2">
  <advance width="597"/>
  <unicode hex="00CF"/>
  <anchor x="299" y="0" name="bottom"/>
  <anchor x="448" y="5" name="ogonek"/>
  <anchor x="299" y="1626" name="top"/>
  <anchor x="20" y="1278" name="topleft"/>
  <outline>
    <contour>
      <point x="410" y="1278" type="line"/>
      <point x="187" y="1278" type="line"/>
      <point x="187" y="0" type="line"/>
      <point x="410" y="0" type="line"/>
    </contour>
    <contour>
      <point x="107" y="1446" type="curve" smooth="yes"/>
      <point x="193" y="1446"/>
      <point x="234" y="1486"/>
      <point x="234" y="1554" type="curve" smooth="yes"/>
      <point x="234" y="1557" type="line" smooth="yes"/>
      <point x="234" y="1623"/>
      <point x="193" y="1664"/>
      <point x="107" y="1664" type="curve" smooth="yes"/>
      <point x="22" y="1664"/>
      <point x="-18" y="1623"/>
      <point x="-18" y="1557" type="curve" smooth="yes"/>
      <point x="-18" y="1554" type="line" smooth="yes"/>
      <point x="-18" y="1487"/>
      <point x="22" y="1446"/>
    </contour>
    <contour>
      <point x="488" y="1446" type="curve" smooth="yes"/>
      <point x="574" y="1446"/>
      <point x="615" y="1486"/>
      <point x="615" y="1554" type="curve" smooth="yes"/>
      <point x="615" y="1557" type="line" smooth="yes"/>
      <point x="615" y="1623"/>
      <point x="574" y="1664"/>
      <point x="488" y="1664" type="curve" smooth="yes"/>
      <point x="403" y="1664"/>
      <point x="363" y="1623"/>
      <point x="363" y="1557" type="curve" smooth="yes"/>
      <point x="363" y="1554" type="line" smooth="yes"/>
      <point x="363" y="1487"/>
      <point x="403" y="1446"/>
    </contour>
  </outline>
</glyph>
<glyph name="Otilde" format="2">
  <advance width="1694"/>
  <unicode hex="00D5"/>
  <anchor x="847" y="0" name="bottom"/>
  <anchor x="847" y="639" name="center"/>
  <anchor x="1202" y="5" name="ogonek"/>
  <anchor x="847" y="1652" name="top"/>
  <anchor x="20" y="1278" name="topleft"/>
  <anchor x="1420" y="1278" name="topright"/>
  <outline>
    <contour>
      <point x="847" y="-33" type="curve" smooth="yes"/>
      <point x="1321" y="-33"/>
      <point x="1582" y="208"/>
      <point x="1582" y="631" type="curve" smooth="yes"/>
      <point x="1582" y="648" type="line" smooth="yes"/>
      <point x="1582" y="1071"/>
      <point x="1321" y="1311"/>
      <point x="847" y="1311" type="curve" smooth="yes"/>
      <point x="373" y="1311"/>
      <point x="112" y="1071"/>
      <point x="112" y="648" type="curve" smooth="yes"/>
      <point x="112" y="631" type="line" smooth="yes"/>
      <point x="112" y="208"/>
      <point x="373" y="-33"/>
    </contour>
    <contour>
      <point x="847" y="150" type="curve" smooth="yes"/>
      <point x="514" y="150"/>
      <point x="344" y="330"/>
      <point x="344" y="630" type="curve" smooth="yes"/>
      <point x="344" y="649" type="line" smooth="yes"/>
      <point x="344" y="948"/>
      <point x="514" y="1128"/>
      <point x="847" y="1128" type="curve" smooth="yes"/>
      <point x="1179" y="1128"/>
      <point x="1350" y="948"/>
      <point x="1350" y="649" type="curve" smooth="yes"/>
      <point x="1350" y="630" type="line" smooth="yes"/>
      <point x="1350" y="330"/>
      <point x="1179" y="150"/>
    </contour>
    <contour>
      <point x="1021" y="1432" type="curve" smooth="yes"/>
      <point x="1161" y="1432"/>
      <point x="1213" y="1512"/>
      <point x="1213" y="1644" type="curve" smooth="yes"/>
      <point x="1213" y="1676" type="line"/>
      <point x="1074" y="1676" type="line"/>
      <point x="1074" y="1666" type="line" smooth="yes"/>
      <point x="1074" y="1611"/>
      <point x="1056" y="1582"/>
      <point x="1009" y="1582" type="curve" smooth="yes"/>
      <point x="914" y="1582"/>
      <point x="807" y="1664"/>
      <point x="673" y="1664" type="curve" smooth="yes"/>
      <point x="532" y="1664"/>
      <point x="481" y="1582"/>
      <point x="481" y="1452" type="curve" smooth="yes"/>
      <point x="481" y="1420" type="line"/>
      <point x="619" y="1420" type="line"/>
      <point x="619" y="1430" type="line" smooth="yes"/>
      <point x="619" y="1485"/>
      <point x="638" y="1514"/>
      <point x="685" y="1514" type="curve" smooth="yes"/>
      <point x="779" y="1514"/>
      <point x="889" y="1432"/>
    </contour>
  </outline>
</glyph>
<glyph name="Odieresis" format="2">
  <advance width="1694"/>
  <unicode hex="00D6"/>
  <anchor x="847" y="0" name="bottom"/>
  <anchor x="847" y="639" name="center"/>
  <anchor x="1202" y="5" name="ogonek"/>
  <anchor x="847" y="1626" name="top"/>
  <anchor x="20" y="1278" name="topleft"/>
  <anchor x="1420" y="1278" name="topright"/>
  <outline>
    <contour>
      <point x="847" y="-33" type="curve" smooth="yes"/>
      <point x="1321" y="-33"/>
      <point x="1582" y="208"/>
      <point x="1582" y="631" type="curve" smooth="yes"/>
      <point x="1582" y="648" type="line" smooth="yes"/>
      <point x="1582" y="1071"/>
      <point x="1321" y="1311"/>
      <point x="847" y="1311" type="curve" smooth="yes"/>
      <point x="373" y="1311"/>
      <point x="112" y="1071"/>
      <point x="112" y="648" type="curve" smooth="yes"/>
      <point x="112" y="631" type="line" smooth="yes"/>
      <point x="112" y="208"/>
      <point x="373" y="-33"/>
    </contour>
    <contour>
      <point x="847" y="150" type="curve" smooth="yes"/>
      <point x="514" y="150"/>
      <point x="344" y="330"/>
      <point x="344" y="630" type="curve" smooth="yes"/>
      <point x="344" y="649" type="line" smooth="yes"/>
      <point x="344" y="948"/>
      <point x="514" y="1128"/>
      <point x="847" y="1128" type="curve" smooth="yes"/>
      <point x="1179" y="1128"/>
      <point x="1350" y="948"/>
      <point x="1350" y="649" type="curve" smooth="yes"/>
      <point x="1350" y="630" type="line" smooth="yes"/>
      <point x="1350" y="330"/>
      <point x="1179" y="150"/>
    </contour>
    <contour>
      <point x="655" y="1446" type="curve" smooth="yes"/>
      <point x="741" y="1446"/>
      <point x="782" y="1486"/>
      <point x="782" y="1554" type="curve" smooth="yes"/>
      <point x="782" y="1557" type="line" smooth="yes"/>
      <point x="782" y="1623"/>
      <point x="741" y="1664"/>
      <point x="655" y="1664" type="curve" smooth="yes"/>
      <point x="570" y="1664"/>
      <point x="530" y="1623"/>
      <point x="530" y="1557" type="curve" smooth="yes"/>
      <point x="530" y="1554" type="line" smooth="yes"/>
      <point x="530" y="1487"/>
      <point x="570" y="1446"/>
    </contour>
    <contour>
      <point x="1036" y="1446" type="curve" smooth="yes"/>
      <point x="1122" y="1446"/>
      <point x="1163" y="1486"/>
      <point x="1163" y="1554" type="curve" smooth="yes"/>
      <point x="1163" y="1557" type="line" smooth="yes"/>
      <point x="1163" y="1623"/>
      <point x="1122" y="1664"/>
      <point x="1036" y="1664" type="curve" smooth="yes"/>
      <point x="951" y="1664"/>
      <point x="911" y="1623"/>
      <point x="911" y="1557" type="curve" smooth="yes"/>
      <point x="911" y="1554" type="line" smooth="yes"/>
      <point x="911" y="1487"/>
      <point x="951" y="1446"/>
    </contour>
  </outline>
</glyph>
<glyph name="Ucircumflex" format="2">
  <advance width="1661"/>
  <unicode hex="00DB"/>
  <anchor x="831" y="0" name="bottom"/>
  <anchor x="1168" y="5" name="ogonek"/>
  <anchor x="833" y="1662" name="top"/>
  <anchor x="1626" y="1278" name="topright"/>
  <outline>
    <contour>
      <point x="831" y="-33" type="curve" smooth="yes"/>
      <point x="1284" y="-33"/>
      <point x="1489" y="182"/>
      <point x="1489" y="593" type="curve" smooth="yes"/>
      <point x="1489" y="1278" type="line"/>
      <point x="1266" y="1278" type="line"/>
      <point x="1266" y="595" type="line" smooth="yes"/>
      <point x="1266" y="308"/>
      <point x="1136" y="153"/>
      <point x="831" y="153" type="curve" smooth="yes"/>
      <point x="526" y="153"/>
      <point x="395" y="308"/>
      <point x="395" y="595" type="curve" smooth="yes"/>
      <point x="395" y="1278" type="line"/>
      <point x="172" y="1278" type="line"/>
      <point x="172" y="593" type="line" smooth="yes"/>
      <point x="172" y="182"/>
      <point x="379" y="-33"/>
    </contour>
    <contour>
      <point x="432" y="1430" type="line"/>
      <point x="432" y="1424" type="line"/>
      <point x="629" y="1424" type="line"/>
      <point x="828" y="1580" type="line"/>
      <point x="836" y="1580" type="line"/>
      <point x="1034" y="1424" type="line"/>
      <point x="1231" y="1424" type="line"/>
      <point x="1231" y="1430" type="line"/>
      <point x="945" y="1697" type="line"/>
      <point x="718" y="1697" type="line"/>
    </contour>
  </outline>
</glyph>
<glyph name="Udieresis" format="2">
  <advance width="1661"/>
  <unicode hex="00DC"/>
  <anchor x="831" y="0" name="bottom"/>
  <anchor x="1168" y="5" name="ogonek"/>
  <anchor x="831" y="1626" name="top"/>
  <anchor x="1626" y="1278" name="topright"/>
  <outline>
    <contour>
      <point x="831" y="-33" type="curve" smooth="yes"/>
      <point x="1284" y="-33"/>
      <point x="1489" y="182"/>
      <point x="1489" y="593" type="curve" smooth="yes"/>
      <point x="1489" y="1278" type="line"/>
      <point x="1266" y="1278" type="line"/>
      <point x="1266" y="595" type="line" smooth="yes"/>
      <point x="1266" y="308"/>
      <point x="1136" y="153"/>
      <point x="831" y="153" type="curve" smooth="yes"/>
      <point x="526" y="153"/>
      <point x="395" y="308"/>
      <point x="395" y="595" type="curve" smooth="yes"/>
      <point x="395" y="1278" type="line"/>
      <point x="172" y="1278" type="line"/>
      <point x="172" y="593" type="line" smooth="yes"/>
      <point x="172" y="182"/>
      <point x="379" y="-33"/>
    </contour>
    <contour>
      <point x="639" y="1446" type="curve" smooth="yes"/>
      <point x="725" y="1446"/>
      <point x="766" y="1486"/>
      <point x="766" y="1554" type="curve" smooth="yes"/>
      <point x="766" y="1557" type="line" smooth="yes"/>
      <point x="766" y="1623"/>
      <point x="725" y="1664"/>
      <point x="639" y="1664" type="curve" smooth="yes"/>
      <point x="554" y="1664"/>
      <point x="514" y="1623"/>
      <point x="514" y="1557" type="curve" smooth="yes"/>
      <point x="514" y="1554" type="line" smooth="yes"/>
      <point x="514" y="1487"/>
      <point x="554" y="1446"/>
    </contour>
    <contour>
      <point x="1020" y="1446" type="curve" smooth="yes"/>
      <point x="1106" y="1446"/>
      <point x="1147" y="1486"/>
      <point x="1147" y="1554" type="curve" smooth="yes"/>
      <point x="1147" y="1557" type="line" smooth="yes"/>
      <point x="1147" y="1623"/>
      <point x="1106" y="1664"/>
      <point x="1020" y="1664" type="curve" smooth="yes"/>
      <point x="935" y="1664"/>
      <point x="895" y="1623"/>
      <point x="895" y="1557" type="curve" smooth="yes"/>
      <point x="895" y="1554" type="line" smooth="yes"/>
      <point x="895" y="1487"/>
      <point x="935" y="1446"/>
    </contour>
  </outline>
</glyph>
<glyph name="Yacute" format="2">
  <advance width="1521"/>
  <unicode hex="00DD"/>
  <anchor x="761" y="0" name="bottom"/>
  <anchor x="761" y="1662" name="top"/>
  <anchor x="20" y="1278" name="topleft"/>
  <outline>
    <contour>
      <point x="858" y="364" type="line"/>
      <point x="1482" y="1278" type="line"/>
      <point x="1230" y="1278" type="line"/>
      <point x="899" y="785" type="line"/>
      <point x="768" y="591" type="line"/>
      <point x="753" y="591" type="line"/>
      <point x="621" y="787" type="line"/>
      <point x="291" y="1278" type="line"/>
      <point x="39" y="1278" type="line"/>
      <point x="664" y="364" type="line"/>
    </contour>
    <contour>
      <point x="872" y="0" type="line"/>
      <point x="872" y="553" type="line"/>
      <point x="650" y="553" type="line"/>
      <point x="650" y="0" type="line"/>
    </contour>
    <contour>
      <point x="647" y="1428" type="line"/>
      <point x="647" y="1424" type="line"/>
      <point x="873" y="1424" type="line"/>
      <point x="1224" y="1691" type="line"/>
      <point x="1224" y="1697" type="line"/>
      <point x="953" y="1697" type="line"/>
    </contour>
  </outline>
</glyph>
<glyph name="atilde" format="2">
  <advance width="1323"/>
  <unicode hex="00E3"/>
  <anchor x="650" y="0" name="bottom"/>
  <anchor x="1227" y="5" name="ogonek"/>
  <anchor x="650" y="1343" name="top"/>
  <outline>
    <contour>
      <point x="1184" y="0" type="line"/>
      <point x="1184" y="557" type="line" smooth="yes"/>
      <point x="1184" y="801"/>
      <point x="1053" y="989"/>
      <point x="660" y="989" type="curve" smooth="yes"/>
      <point x="436" y="989"/>
      <point x="272" y="926"/>
      <point x="168" y="872" type="curve"/>
      <point x="144" y="692" type="line"/>
      <point x="270" y="752"/>
      <point x="429" y="811"/>
      <point x="628" y="811" type="curve" smooth="yes"/>
      <point x="863" y="811"/>
      <point x="970" y="727"/>
      <point x="970" y="573" type="curve"/>
      <point x="969" y="540" type="line"/>
      <point x="969" y="322" type="line"/>
      <point x="975" y="278" type="line"/>
      <point x="966" y="0" type="line"/>
    </contour>
    <contour>
      <point x="488" y="-29" type="curve" smooth="yes"/>
      <point x="791" y="-29"/>
      <point x="919" y="100"/>
      <point x="964" y="244" type="curve"/>
      <point x="1006" y="244" type="line"/>
      <point x="975" y="400" type="line"/>
      <point x="937" y="265"/>
      <point x="789" y="149"/>
      <point x="546" y="149" type="curve" smooth="yes"/>
      <point x="389" y="149"/>
      <point x="306" y="196"/>
      <point x="306" y="280" type="curve" smooth="yes"/>
      <point x="306" y="287" type="line" smooth="yes"/>
      <point x="306" y="380"/>
      <point x="375" y="412"/>
      <point x="588" y="429" type="curve" smooth="yes"/>
      <point x="995" y="461" type="line"/>
      <point x="991" y="608" type="line"/>
      <point x="572" y="577" type="line" smooth="yes"/>
      <point x="245" y="553"/>
      <point x="88" y="471"/>
      <point x="88" y="267" type="curve" smooth="yes"/>
      <point x="88" y="258" type="line" smooth="yes"/>
      <point x="88" y="74"/>
      <point x="236" y="-29"/>
    </contour>
    <contour>
      <point x="812" y="1111" type="curve" smooth="yes"/>
      <point x="952" y="1111"/>
      <point x="1004" y="1192"/>
      <point x="1004" y="1326" type="curve" smooth="yes"/>
      <point x="1004" y="1361" type="line"/>
      <point x="865" y="1361" type="line"/>
      <point x="865" y="1348" type="line" smooth="yes"/>
      <point x="865" y="1293"/>
      <point x="847" y="1264"/>
      <point x="800" y="1264" type="curve" smooth="yes"/>
      <point x="711" y="1264"/>
      <point x="612" y="1349"/>
      <point x="487" y="1349" type="curve" smooth="yes"/>
      <point x="346" y="1349"/>
      <point x="295" y="1266"/>
      <point x="295" y="1134" type="curve" smooth="yes"/>
      <point x="295" y="1099" type="line"/>
      <point x="433" y="1099" type="line"/>
      <point x="433" y="1112" type="line" smooth="yes"/>
      <point x="433" y="1167"/>
      <point x="452" y="1196"/>
      <point x="499" y="1196" type="curve" smooth="yes"/>
      <point x="587" y="1196"/>
      <point x="689" y="1111"/>
    </contour>
  </outline>
</glyph>
<glyph name="igrave" format="2">
  <advance width="541"/>
  <unicode hex="00EC"/>
  <anchor x="271" y="0" name="bottom"/>
  <anchor x="423" y="5" name="ogonek"/>
  <anchor x="120" y="1348" name="top"/>
  <outline>
    <contour>
      <point x="379" y="0" type="line"/>
      <point x="379" y="958" type="line"/>
      <point x="162" y="958" type="line"/>
      <point x="162" y="0" type="line"/>
    </contour>
    <contour>
      <point x="-11" y="1387" type="line"/>
      <point x="-11" y="1383" type="line"/>
      <point x="174" y="1094" type="line"/>
      <point x="360" y="1094" type="line"/>
      <point x="360" y="1097" type="line"/>
      <point x="214" y="1387" type="line"/>
    </contour>
  </outline>
</glyph>
<glyph name="icircumflex" format="2">
  <advance width="541"/>
  <unicode hex="00EE"/>
  <anchor x="271" y="0" name="bottom"/>
  <anchor x="423" y="5" name="ogonek"/>
  <anchor x="271" y="1346" name="top"/>
  <outline>
    <contour>
      <point x="379" y="0" type="line"/>
      <point x="379" y="958" type="line"/>
      <point x="162" y="958" type="line"/>
      <point x="162" y="0" type="line"/>
    </contour>
    <contour>
      <point x="-46" y="1098" type="line"/>
      <point x="-46" y="1094" type="line"/>
      <point x="130" y="1094" type="line"/>
      <point x="268" y="1270" type="line"/>
      <point x="274" y="1270" type="line"/>
      <point x="411" y="1094" type="line"/>
      <point x="588" y="1094" type="line"/>
      <point x="588" y="1098" type="line"/>
      <point x="380" y="1387" type="line"/>
      <point x="162" y="1387" type="line"/>
    </contour>
  </outline>
</glyph>
<glyph name="idieresis" format="2">
  <advance width="541"/>
  <unicode hex="00EF"/>
  <anchor x="271" y="0" name="bottom"/>
  <anchor x="423" y="5" name="ogonek"/>
  <anchor x="271" y="1336" name="top"/>
  <outline>
    <contour>
      <point x="379" y="0" type="line"/>
      <point x="379" y="958" type="line"/>
      <point x="162" y="958" type="line"/>
      <point x="162" y="0" type="line"/>
    </contour>
    <contour>
      <point x="108" y="1115" type="curve" smooth="yes"/>
      <point x="183" y="1115"/>
      <point x="222" y="1156"/>
      <point x="222" y="1222" type="curve" smooth="yes"/>
      <point x="222" y="1227" type="line" smooth="yes"/>
      <point x="222" y="1291"/>
      <point x="183" y="1333"/>
      <point x="108" y="1333" type="curve" smooth="yes"/>
      <point x="34" y="1333"/>
      <point x="-5" y="1291"/>
      <point x="-5" y="1227" type="curve" smooth="yes"/>
      <point x="-5" y="1222" type="line" smooth="yes"/>
      <point x="-5" y="1156"/>
      <point x="34" y="1115"/>
    </contour>
    <contour>
      <point x="434" y="1115" type="curve" smooth="yes"/>
      <point x="507" y="1115"/>
      <point x="546" y="1156"/>
      <point x="546" y="1222" type="curve" smooth="yes"/>
      <point x="546" y="1227" type="line" smooth="yes"/>
      <point x="546" y="1291"/>
      <point x="507" y="1333"/>
      <point x="434" y="1333" type="curve" smooth="yes"/>
      <point x="359" y="1333"/>
      <point x="320" y="1291"/>
      <point x="320" y="1227" type="curve" smooth="yes"/>
      <point x="320" y="1222" type="line" smooth="yes"/>
      <point x="320" y="1156"/>
      <point x="358" y="1115"/>
    </contour>
  </outline>
</glyph>
<glyph name="ntilde" format="2">
  <advance width="1413"/>
  <unicode hex="00F1"/>
  <anchor x="707" y="0" name="bottom"/>
  <anchor x="707" y="1343" name="top"/>
  <outline>
    <contour>
      <point x="1269" y="0" type="line"/>
      <point x="1269" y="525" type="line" smooth="yes"/>
      <point x="1269" y="817"/>
      <point x="1142" y="987"/>
      <point x="825" y="987" type="curve" smooth="yes"/>
      <point x="565" y="987"/>
      <point x="425" y="860"/>
      <point x="380" y="714" type="curve"/>
      <point x="338" y="714" type="line"/>
      <point x="369" y="549" type="line"/>
      <point x="408" y="693"/>
      <point x="535" y="807"/>
      <point x="747" y="807" type="curve" smooth="yes"/>
      <point x="975" y="807"/>
      <point x="1051" y="679"/>
      <point x="1051" y="503" type="curve" smooth="yes"/>
      <point x="1051" y="0" type="line"/>
    </contour>
    <contour>
      <point x="378" y="0" type="line"/>
      <point x="378" y="652" type="line"/>
      <point x="369" y="679" type="line"/>
      <point x="378" y="958" type="line"/>
      <point x="160" y="958" type="line"/>
      <point x="160" y="0" type="line"/>
    </contour>
    <contour>
      <point x="869" y="1111" type="curve" smooth="yes"/>
      <point x="1009" y="1111"/>
      <point x="1061" y="1192"/>
      <point x="1061" y="1326" type="curve" smooth="yes"/>
      <point x="1061" y="1361" type="line"/>
      <point x="922" y="1361" type="line"/>
      <point x="922" y="1348" type="line" smooth="yes"/>
      <point x="922" y="1293"/>
      <point x="904" y="1264"/>
      <point x="857" y="1264" type="curve" smooth="yes"/>
      <point x="768" y="1264"/>
      <point x="669" y="1349"/>
      <point x="544" y="1349" type="curve" smooth="yes"/>
      <point x="403" y="1349"/>
      <point x="352" y="1266"/>
      <point x="352" y="1134" type="curve" smooth="yes"/>
      <point x="352" y="1099" type="line"/>
      <point x="490" y="1099" type="line"/>
      <point x="490" y="1112" type="line" smooth="yes"/>
      <point x="490" y="1167"/>
      <point x="509" y="1196"/>
      <point x="556" y="1196" type="curve" smooth="yes"/>
      <point x="644" y="1196"/>
      <point x="746" y="1111"/>
    </contour>
  </outline>
</glyph>
<glyph name="otilde" format="2">
  <advance width="1409"/>
  <unicode hex="00F5"/>
  <anchor x="705" y="0" name="bottom"/>
  <anchor x="705" y="479" name="center"/>
  <anchor x="1017" y="5" name="ogonek"/>
  <anchor x="705" y="1343" name="top"/>
  <anchor x="1251" y="958" name="topright"/>
  <outline>
    <contour>
      <point x="704" y="-30" type="curve" smooth="yes"/>
      <point x="1096" y="-30"/>
      <point x="1308" y="146"/>
      <point x="1308" y="468" type="curve" smooth="yes"/>
      <point x="1308" y="493" type="line" smooth="yes"/>
      <point x="1308" y="813"/>
      <point x="1096" y="990"/>
      <point x="704" y="990" type="curve" smooth="yes"/>
      <point x="313" y="990"/>
      <point x="101" y="813"/>
      <point x="101" y="493" type="curve" smooth="yes"/>
      <point x="101" y="468" type="line" smooth="yes"/>
      <point x="101" y="147"/>
      <point x="312" y="-30"/>
    </contour>
    <contour>
      <point x="704" y="143" type="curve" smooth="yes"/>
      <point x="458" y="143"/>
      <point x="320" y="259"/>
      <point x="320" y="468" type="curve" smooth="yes"/>
      <point x="320" y="493" type="line" smooth="yes"/>
      <point x="320" y="702"/>
      <point x="458" y="817"/>
      <point x="704" y="817" type="curve" smooth="yes"/>
      <point x="952" y="817"/>
      <point x="1089" y="702"/>
      <point x="1089" y="493" type="curve" smooth="yes"/>
      <point x="1089" y="468" type="line" smooth="yes"/>
      <point x="1089" y="259"/>
      <point x="951" y="143"/>
    </contour>
    <contour>
      <point x="867" y="1111" type="curve" smooth="yes"/>
      <point x="1007" y="1111"/>
      <point x="1059" y="1192"/>
      <point x="1059" y="1326" type="curve" smooth="yes"/>
      <point x="1059" y="1361" type="line"/>
      <point x="920" y="1361" type="line"/>
      <point x="920" y="1348" type="line" smooth="yes"/>
      <point x="920" y="1293"/>
      <point x="902" y="1264"/>
      <point x="855" y="1264" type="curve" smooth="yes"/>
      <point x="766" y="1264"/>
      <point x="667" y="1349"/>
      <point x="542" y="1349" type="curve" smooth="yes"/>
      <point x="401" y="1349"/>
      <point x="350" y="1266"/>
      <point x="350" y="1134" type="curve" smooth="yes"/>
      <point x="350" y="1099" type="line"/>
      <point x="488" y="1099" type="line"/>
      <point x="488" y="1112" type="line" smooth="yes"/>
      <point x="488" y="1167"/>
      <point x="507" y="1196"/>
      <point x="554" y="1196" type="curve" smooth="yes"/>
      <point x="642" y="1196"/>
      <point x="744" y="1111"/>
    </contour>
  </outline>
</glyph>
<glyph name="odieresis" format="2">
  <advance width="1409"/>
  <unicode hex="00F6"/>
  <anchor x="705" y="0" name="bottom"/>
  <anchor x="705" y="479" name="center"/>
  <anchor x="1017" y="5" name="ogonek"/>
  <anchor x="705" y="1338" name="top"/>
  <anchor x="1251" y="958" name="topright"/>
  <outline>
    <contour>
      <point x="704" y="-30" type="curve" smooth="yes"/>
      <point x="1096" y="-30"/>
      <point x="1308" y="146"/>
      <point x="1308" y="468" type="curve" smooth="yes"/>
      <point x="1308" y="493" type="line" smooth="yes"/>
      <point x="1308" y="813"/>
      <point x="1096" y="990"/>
      <point x="704" y="990" type="curve" smooth="yes"/>
      <point x="313" y="990"/>
      <point x="101" y="813"/>
      <point x="101" y="493" type="curve" smooth="yes"/>
      <point x="101" y="468" type="line" smooth="yes"/>
      <point x="101" y="147"/>
      <point x="312" y="-30"/>
    </contour>
    <contour>
      <point x="704" y="143" type="curve" smooth="yes"/>
      <point x="458" y="143"/>
      <point x="320" y="259"/>
      <point x="320" y="468" type="curve" smooth="yes"/>
      <point x="320" y="493" type="line" smooth="yes"/>
      <point x="320" y="702"/>
      <point x="458" y="817"/>
      <point x="704" y="817" type="curve" smooth="yes"/>
      <point x="952" y="817"/>
      <point x="1089" y="702"/>
      <point x="1089" y="493" type="curve" smooth="yes"/>
      <point x="1089" y="468" type="line" smooth="yes"/>
      <point x="1089" y="259"/>
      <point x="951" y="143"/>
    </contour>
    <contour>
      <point x="513" y="1125" type="curve" smooth="yes"/>
      <point x="599" y="1125"/>
      <point x="640" y="1165"/>
      <point x="640" y="1233" type="curve" smooth="yes"/>
      <point x="640" y="1236" type="line" smooth="yes"/>
      <point x="640" y="1302"/>
      <point x="599" y="1343"/>
      <point x="513" y="1343" type="curve" smooth="yes"/>
      <point x="428" y="1343"/>
      <point x="388" y="1302"/>
      <point x="388" y="1236" type="curve" smooth="yes"/>
      <point x="388" y="1233" type="line" smooth="yes"/>
      <point x="388" y="1166"/>
      <point x="428" y="1125"/>
    </contour>
    <contour>
      <point x="894" y="1125" type="curve" smooth="yes"/>
      <point x="980" y="1125"/>
      <point x="1021" y="1165"/>
      <point x="1021" y="1233" type="curve" smooth="yes"/>
      <point x="1021" y="1236" type="line" smooth="yes"/>
      <point x="1021" y="1302"/>
      <point x="980" y="1343"/>
      <point x="894" y="1343" type="curve" smooth="yes"/>
      <point x="809" y="1343"/>
      <point x="769" y="1302"/>
      <point x="769" y="1236" type="curve" smooth="yes"/>
      <point x="769" y="1233" type="line" smooth="yes"/>
      <point x="769" y="1166"/>
      <point x="809" y="1125"/>
    </contour>
  </outline>
</glyph>
<glyph name="divide" format="2">
  <advance width="1337"/>
  <unicode hex="00F7"/>
  <outline>
    <contour>
      <point x="1196" y="520" type="line"/>
      <point x="1196" y="692" type="line"/>
      <point x="141" y="692" type="line"/>
      <point x="141" y="520" type="line"/>
    </contour>
    <contour>
      <point x="669.92" y="67.48" type="curve" smooth="yes"/>
      <point x="763.02" y="67.48"/>
      <point x="807.12" y="113.54"/>
      <point x="807.12" y="189" type="curve" smooth="yes"/>
      <point x="807.12" y="192.92" type="line" smooth="yes"/>
      <point x="807.12" y="268.38"/>
      <point x="763.02" y="314.44"/>
      <point x="669.92" y="314.44" type="curve" smooth="yes"/>
      <point x="578.78" y="314.44"/>
      <point x="533.7" y="268.38"/>
      <point x="533.7" y="192.92" type="curve" smooth="yes"/>
      <point x="533.7" y="189" type="line" smooth="yes"/>
      <point x="533.7" y="113.54"/>
      <point x="578.78" y="67.48"/>
    </contour>
    <contour>
      <point x="669.92" y="907.48" type="curve" smooth="yes"/>
      <point x="763.02" y="907.48"/>
      <point x="807.12" y="953.54"/>
      <point x="807.12" y="1029" type="curve" smooth="yes"/>
      <point x="807.12" y="1032.92" type="line" smooth="yes"/>
      <point x="807.12" y="1108.38"/>
      <point x="763.02" y="1154.44"/>
      <point x="669.92" y="1154.44" type="curve" smooth="yes"/>
      <point x="578.78" y="1154.44"/>
      <point x="533.7" y="1108.38"/>
      <point x="533.7" y="1032.92" type="curve" smooth="yes"/>
      <point x="533.7" y="1029" type="line" smooth="yes"/>
      <point x="533.7" y="953.54"/>
      <point x="578.78" y="907.48"/>
    </contour>
  </outline>
</glyph>
<glyph name="udieresis" format="2">
  <advance width="1413"/>
  <unicode hex="00FC"/>
  <anchor x="707" y="0" name="bottom"/>
  <anchor x="1297" y="5" name="ogonek"/>
  <anchor x="707" y="1338" name="top"/>
  <anchor x="1392" y="958" name="topright"/>
  <outline>
    <contour>
      <point x="144" y="958" type="line"/>
      <point x="144" y="433" type="line" smooth="yes"/>
      <point x="144" y="141"/>
      <point x="271" y="-29"/>
      <point x="588" y="-29" type="curve" smooth="yes"/>
      <point x="848" y="-29"/>
      <point x="988" y="98"/>
      <point x="1033" y="244" type="curve"/>
      <point x="1075" y="244" type="line"/>
      <point x="1044" y="409" type="line"/>
      <point x="1005" y="265"/>
      <point x="878" y="151"/>
      <point x="666" y="151" type="curve" smooth="yes"/>
      <point x="438" y="151"/>
      <point x="362" y="279"/>
      <point x="362" y="455" type="curve" smooth="yes"/>
      <point x="362" y="958" type="line"/>
    </contour>
    <contour>
      <point x="1035" y="958" type="line"/>
      <point x="1035" y="306" type="line"/>
      <point x="1044" y="279" type="line"/>
      <point x="1035" y="0" type="line"/>
      <point x="1253" y="0" type="line"/>
      <point x="1253" y="958" type="line"/>
    </contour>
    <contour>
      <point x="515" y="1125" type="curve" smooth="yes"/>
      <point x="601" y="1125"/>
      <point x="642" y="1165"/>
      <point x="642" y="1233" type="curve" smooth="yes"/>
      <point x="642" y="1236" type="line" smooth="yes"/>
      <point x="642" y="1302"/>
      <point x="601" y="1343"/>
      <point x="515" y="1343" type="curve" smooth="yes"/>
      <point x="430" y="1343"/>
      <point x="390" y="1302"/>
      <point x="390" y="1236" type="curve" smooth="yes"/>
      <point x="390" y="1233" type="line" smooth="yes"/>
      <point x="390" y="1166"/>
      <point x="430" y="1125"/>
    </contour>
    <contour>
      <point x="896" y="1125" type="curve" smooth="yes"/>
      <point x="982" y="1125"/>
      <point x="1023" y="1165"/>
      <point x="1023" y="1233" type="curve" smooth="yes"/>
      <point x="1023" y="1236" type="line" smooth="yes"/>
      <point x="1023" y="1302"/>
      <point x="982" y="1343"/>
      <point x="896" y="1343" type="curve" smooth="yes"/>
      <point x="811" y="1343"/>
      <point x="771" y="1302"/>
      <point x="771" y="1236" type="curve" smooth="yes"/>
      <point x="771" y="1233" type="line" smooth="yes"/>
      <point x="771" y="1166"/>
      <point x="811" y="1125"/>
    </contour>
  </outline>
</glyph>
<glyph name="circumflex" format="2">
  <advance width="943"/>
  <unicode hex="02C6"/>
  <anchor x="472" y="958" name="_top"/>
  <anchor x="472" y="1346" name="top"/>
  <outline>
    <contour>
      <point x="100" y="1099" type="line"/>
      <point x="100" y="1094" type="line"/>
      <point x="283" y="1094" type="line"/>
      <point x="468" y="1270" type="line"/>
      <point x="476" y="1270" type="line"/>
      <point x="660" y="1094" type="line"/>
      <point x="843" y="1094" type="line"/>
      <point x="843" y="1099" type="line"/>
      <point x="584" y="1387" type="line"/>
      <point x="359" y="1387" type="line"/>
    </contour>
  </outline>
</glyph>
<glyph name="uni0900" format="2">
  <unicode hex="0900"/>
  <anchor x="-329.5" y="1217.5" name="_top"/>
  <outline>
    <contour>
      <point x="-338" y="1612.69" type="curve" smooth="yes"/>
      <point x="-250.783" y="1612.69"/>
      <point x="-212.913" y="1563.34"/>
      <point x="-212.913" y="1496.21" type="curve" smooth="yes"/>
      <point x="-212.913" y="1490.47" type="line" smooth="yes"/>
      <point x="-212.913" y="1423.91"/>
      <point x="-250.783" y="1374.56"/>
      <point x="-338" y="1374.56" type="curve" smooth="yes"/>
      <point x="-425.217" y="1374.56"/>
      <point x="-463.087" y="1423.91"/>
      <point x="-463.087" y="1490.47" type="curve" smooth="yes"/>
      <point x="-463.087" y="1496.21" type="line" smooth="yes"/>
      <point x="-463.087" y="1563.34"/>
      <point x="-425.217" y="1612.69"/>
    </contour>
    <contour>
      <point x="-777" y="1520" type="line"/>
      <point x="-778.5" y="1540.5"/>
      <point x="-778.5" y="1551.5"/>
      <point x="-778.5" y="1559" type="curve" smooth="yes"/>
      <point x="-778.5" y="1770.5"/>
      <point x="-632" y="1888"/>
      <point x="-336.5" y="1888" type="curve" smooth="yes"/>
      <point x="-48" y="1888"/>
      <point x="103.5" y="1769.85"/>
      <point x="103.5" y="1560" type="curve" smooth="yes"/>
      <point x="103.5" y="1551.85"/>
      <point x="103.5" y="1540.49"/>
      <point x="101.5" y="1520" type="curve"/>
      <point x="-78.5" y="1520" type="line"/>
      <point x="-78.5" y="1540.5" type="line" smooth="yes"/>
      <point x="-78.5" y="1671.9"/>
      <point x="-158.458" y="1738"/>
      <point x="-336.139" y="1738" type="curve" smooth="yes"/>
      <point x="-513.821" y="1738"/>
      <point x="-597" y="1669.72"/>
      <point x="-597" y="1539.59" type="curve" smooth="yes"/>
      <point x="-597" y="1519" type="line"/>
    </contour>
  </outline>
  <guideline angle="90" x="-169" y="0"/>
  <guideline angle="0" x="0" y="1262"/>
</glyph>
<glyph name="vowelU.dv" format="2">
  <advance width="1388"/>
  <unicode hex="0909"/>
  <anchor x="1197" y="23" name="bottom3"/>
  <anchor x="675" y="42.5" name="bottom5"/>
  <anchor x="738" y="1217.5" name="top"/>
  <outline>
    <contour>
      <point x="-40" y="1093" type="line"/>
      <point x="-54" y="1248" type="line"/>
      <point x="1426" y="1248" type="line"/>
      <point x="1440" y="1093" type="line"/>
    </contour>
    <contour>
      <point x="1089" y="1130" type="line"/>
      <point x="1159" y="1080.31"/>
      <point x="1197" y="1010.95"/>
      <point x="1197" y="924" type="curve" smooth="yes"/>
      <point x="1197" y="918" type="line" smooth="yes"/>
      <point x="1197" y="785.487"/>
      <point x="1125.62" y="685.154"/>
      <point x="887" y="652" type="curve"/>
      <point x="887" y="644" type="line"/>
      <point x="1141.35" y="616.322"/>
      <point x="1243" y="500"/>
      <point x="1243" y="335" type="curve" smooth="yes"/>
      <point x="1243" y="330" type="line" smooth="yes"/>
      <point x="1243" y="116"/>
      <point x="1050" y="-19"/>
      <point x="658" y="-19" type="curve" smooth="yes"/>
      <point x="423" y="-19"/>
      <point x="246" y="22"/>
      <point x="113" y="89" type="curve"/>
      <point x="97" y="278" type="line"/>
      <point x="253" y="197"/>
      <point x="432" y="149"/>
      <point x="643" y="149" type="curve" smooth="yes"/>
      <point x="909" y="149"/>
      <point x="1025" y="226.239"/>
      <point x="1025" y="352" type="curve" smooth="yes"/>
      <point x="1025" y="356" type="line" smooth="yes"/>
      <point x="1025" y="481.198"/>
      <point x="921.395" y="550.064"/>
      <point x="555" y="558.942" type="curve" smooth="yes"/>
      <point x="305" y="565" type="line"/>
      <point x="305" y="730" type="line"/>
      <point x="547" y="734" type="line" smooth="yes"/>
      <point x="895.423" y="739.759"/>
      <point x="981" y="820"/>
      <point x="981" y="937" type="curve" smooth="yes"/>
      <point x="981" y="942" type="line" smooth="yes"/>
      <point x="981" y="1013"/>
      <point x="948" y="1079"/>
      <point x="860" y="1130" type="curve"/>
    </contour>
  </outline>
  <guideline angle="90" x="692" y="0"/>
</glyph>
<glyph name="vowelRu.dv" format="2">
  <advance width="2208"/>
  <unicode hex="090B"/>
  <anchor x="1681" y="23" name="bottom3"/>
  <anchor x="1139.5" y="42.5" name="bottom5"/>
  <anchor x="1139.5" y="1217.5" name="top"/>
  <outline>
    <contour>
      <point x="2251" y="1093" type="line"/>
      <point x="-36" y="1093" type="line"/>
      <point x="-50" y="1248" type="line"/>
      <point x="2237" y="1248" type="line"/>
    </contour>
    <contour>
      <point x="1786" y="724" type="line"/>
      <point x="1834" y="568" type="line"/>
      <point x="1211" y="378" type="line"/>
      <point x="1211" y="552" type="line"/>
    </contour>
    <contour>
      <point x="1860" y="912" type="line"/>
      <point x="1893" y="835"/>
      <point x="1913" y="767"/>
      <point x="1926" y="682" type="curve"/>
      <point x="1840.48" y="573" type="line"/>
      <point x="1645" y="562" type="line"/>
      <point x="1645" y="912" type="line"/>
    </contour>
    <contour>
      <point x="1505" y="42" type="curve"/>
      <point x="1490" y="212" type="line"/>
      <point x="1556.6" y="184"/>
      <point x="1623.21" y="169"/>
      <point x="1703.14" y="169" type="curve" smooth="yes"/>
      <point x="1823.02" y="169"/>
      <point x="1905" y="229"/>
      <point x="1905" y="325" type="curve" smooth="yes"/>
      <point x="1905" y="330" type="line" smooth="yes"/>
      <point x="1905" y="431"/>
      <point x="1841.73" y="501"/>
      <point x="1697" y="554" type="curve"/>
      <point x="1842" y="627" type="line"/>
      <point x="2025.76" y="557.566"/>
      <point x="2107" y="450.899"/>
      <point x="2107" y="307" type="curve" smooth="yes"/>
      <point x="2107" y="302" type="line" smooth="yes"/>
      <point x="2107" y="111"/>
      <point x="1973.79" y="4"/>
      <point x="1728.72" y="4" type="curve" smooth="yes"/>
      <point x="1635.16" y="4"/>
      <point x="1565" y="18"/>
    </contour>
    <contour>
      <point x="1245" y="-1" type="line"/>
      <point x="1035" y="-1" type="line"/>
      <point x="1035" y="1149" type="line"/>
      <point x="1245" y="1149" type="line"/>
    </contour>
    <contour>
      <point x="1066" y="338" type="line"/>
      <point x="132" y="39" type="line"/>
      <point x="132" y="224" type="line"/>
      <point x="555" y="352" type="line"/>
      <point x="569" y="345" type="line"/>
      <point x="641" y="374.821"/>
      <point x="719.905" y="403.946"/>
      <point x="789" y="425.518" type="curve" smooth="yes"/>
      <point x="1066" y="512" type="line"/>
    </contour>
    <contour>
      <point x="648" y="353" type="line"/>
      <point x="410" y="306" type="line"/>
      <point x="536" y="363.861"/>
      <point x="590" y="439.691"/>
      <point x="590" y="552.436" type="curve" smooth="yes"/>
      <point x="590" y="555.429" type="line" smooth="yes"/>
      <point x="590" y="664.176"/>
      <point x="529.21" y="736"/>
      <point x="379" y="736" type="curve" smooth="yes"/>
      <point x="296" y="736"/>
      <point x="208" y="712"/>
      <point x="123" y="672" type="curve"/>
      <point x="138" y="850" type="line"/>
      <point x="210.61" y="884.208"/>
      <point x="306.975" y="905"/>
      <point x="411" y="905" type="curve" smooth="yes"/>
      <point x="661.32" y="905"/>
      <point x="790" y="793"/>
      <point x="790" y="622" type="curve" smooth="yes"/>
      <point x="790" y="616" type="line" smooth="yes"/>
      <point x="790" y="513"/>
      <point x="739" y="436"/>
      <point x="642" y="385" type="curve"/>
    </contour>
  </outline>
  <guideline angle="90" x="-260" y="0"/>
  <guideline angle="90" x="-29" y="0"/>
  <guideline angle="90" x="506" y="0"/>
</glyph>
<glyph name="Ka.dv" format="2">
  <advance width="2133"/>
  <unicode hex="0915"/>
  <anchor x="1072" y="23" name="bottom"/>
  <anchor x="1068" y="23" name="bottom2"/>
  <anchor x="1595.5" y="23" name="bottom3"/>
  <anchor x="1072.5" y="42.5" name="bottom5"/>
  <anchor x="1072.5" y="1217.5" name="top"/>
  <outline>
    <contour>
      <point x="-36" y="1093" type="line"/>
      <point x="-50" y="1248" type="line"/>
      <point x="2168" y="1248" type="line"/>
      <point x="2182" y="1093" type="line"/>
    </contour>
    <contour>
      <point x="129" y="530" type="curve" smooth="yes"/>
      <point x="129" y="536" type="line" smooth="yes"/>
      <point x="129" y="773"/>
      <point x="295" y="913"/>
      <point x="584" y="913" type="curve" smooth="yes"/>
      <point x="669" y="913"/>
      <point x="735" y="904.704"/>
      <point x="807" y="885" type="curve"/>
      <point x="820" y="722" type="line"/>
      <point x="756.135" y="739"/>
      <point x="696.262" y="748"/>
      <point x="629.403" y="748" type="curve" smooth="yes"/>
      <point x="446.789" y="748"/>
      <point x="347" y="674.343"/>
      <point x="347" y="537.977" type="curve" smooth="yes"/>
      <point x="347" y="532.005" type="line" smooth="yes"/>
      <point x="347" y="391.002"/>
      <point x="445.842" y="317"/>
      <point x="634.54" y="317" type="curve" smooth="yes"/>
      <point x="834.22" y="317"/>
      <point x="939.053" y="401"/>
      <point x="972" y="534" type="curve"/>
      <point x="978" y="349" type="line"/>
      <point x="957" y="349" type="line"/>
      <point x="918" y="231.437"/>
      <point x="807" y="149"/>
      <point x="585" y="149" type="curve" smooth="yes"/>
      <point x="300" y="149"/>
      <point x="129" y="293"/>
    </contour>
    <contour>
      <point x="2007" y="531" type="curve" smooth="yes"/>
      <point x="2007" y="523" type="line" smooth="yes"/>
      <point x="2007" y="290"/>
      <point x="1849" y="149"/>
      <point x="1556" y="149" type="curve" smooth="yes"/>
      <point x="1470" y="149"/>
      <point x="1396" y="160"/>
      <point x="1339" y="179" type="curve"/>
      <point x="1326" y="345" type="line"/>
      <point x="1386.87" y="325"/>
      <point x="1456.72" y="314"/>
      <point x="1525.57" y="314" type="curve" smooth="yes"/>
      <point x="1695.2" y="314"/>
      <point x="1789" y="386.662"/>
      <point x="1789" y="523.028" type="curve" smooth="yes"/>
      <point x="1789" y="529" type="line" smooth="yes"/>
      <point x="1789" y="669"/>
      <point x="1699.15" y="745"/>
      <point x="1511.45" y="745" type="curve" smooth="yes"/>
      <point x="1308.78" y="745"/>
      <point x="1202.95" y="656.605"/>
      <point x="1171" y="521" type="curve"/>
      <point x="1167" y="705" type="line"/>
      <point x="1187" y="705" type="line"/>
      <point x="1229" y="827.227"/>
      <point x="1356" y="913"/>
      <point x="1570" y="913" type="curve" smooth="yes"/>
      <point x="1850" y="913"/>
      <point x="2007" y="757"/>
    </contour>
    <contour>
      <point x="1177" y="1146" type="line"/>
      <point x="1177" y="0" type="line"/>
      <point x="967" y="0" type="line"/>
      <point x="967" y="1146" type="line"/>
    </contour>
  </outline>
  <guideline angle="90" x="463" y="0"/>
  <guideline angle="0" x="0" y="9"/>
  <guideline angle="90" x="468" y="0"/>
  <guideline angle="90" x="451" y="0"/>
  <guideline angle="0" x="0" y="1262"/>
  <guideline angle="90" x="486" y="0"/>
  <guideline angle="0" x="0" y="30"/>
</glyph>
<glyph name="Kha.dv" format="2">
  <advance width="2128"/>
  <unicode hex="0916"/>
  <anchor x="1799" y="23" name="bottom"/>
  <anchor x="1794" y="23" name="bottom2"/>
  <anchor x="1903.5" y="23" name="bottom3"/>
  <anchor x="1798.5" y="42.5" name="bottom5"/>
  <anchor x="1798.5" y="1217.5" name="top"/>
  <outline>
    <contour>
      <point x="1903.5" y="1145.5" type="line"/>
      <point x="1903.5" y="0" type="line"/>
      <point x="1693.5" y="0" type="line"/>
      <point x="1693.5" y="1145.5" type="line"/>
    </contour>
    <contour>
      <point x="1570" y="1092.5" type="line"/>
      <point x="1556" y="1248" type="line"/>
      <point x="2164" y="1248" type="line"/>
      <point x="2178" y="1092.5" type="line"/>
    </contour>
    <contour>
      <point x="-10" y="1093" type="line"/>
      <point x="-24" y="1248" type="line"/>
      <point x="2064" y="1248" type="line"/>
      <point x="2078" y="1093" type="line"/>
    </contour>
    <contour>
      <point x="833" y="852.198" type="curve" smooth="yes"/>
      <point x="833" y="845.152" type="line" smooth="yes"/>
      <point x="833" y="635.975"/>
      <point x="654.16" y="502"/>
      <point x="303" y="502" type="curve" smooth="yes"/>
      <point x="201" y="502" type="line"/>
      <point x="102" y="655" type="line"/>
      <point x="218" y="655" type="line" smooth="yes"/>
      <point x="494.463" y="655"/>
      <point x="616" y="733"/>
      <point x="616" y="881" type="curve" smooth="yes"/>
      <point x="616" y="886" type="line" smooth="yes"/>
      <point x="616" y="997"/>
      <point x="559" y="1070"/>
      <point x="456" y="1130" type="curve"/>
      <point x="697" y="1130" type="line"/>
      <point x="780" y="1065.58"/>
      <point x="833" y="976.001"/>
    </contour>
    <contour>
      <point x="1593" y="87.7439" type="line"/>
      <point x="1483.87" y="41.2332"/>
      <point x="1312.56" y="16"/>
      <point x="1157" y="16" type="curve" smooth="yes"/>
      <point x="719.5" y="16"/>
      <point x="465.688" y="147.968"/>
      <point x="291" y="410" type="curve" smooth="yes"/>
      <point x="247" y="476" type="line"/>
      <point x="102" y="483" type="line"/>
      <point x="102" y="655" type="line"/>
      <point x="427" y="539" type="line"/>
      <point x="479" y="471" type="line" smooth="yes"/>
      <point x="628.786" y="275.127"/>
      <point x="850.793" y="190"/>
      <point x="1172" y="190" type="curve" smooth="yes"/>
      <point x="1365.32" y="190"/>
      <point x="1558.92" y="227.922"/>
      <point x="1708" y="303" type="curve"/>
      <point x="1708" y="272.337" type="line"/>
    </contour>
    <contour>
      <point x="1369.56" y="349" type="curve" smooth="yes"/>
      <point x="1117.4" y="349"/>
      <point x="975" y="463.859"/>
      <point x="975" y="651" type="curve" smooth="yes"/>
      <point x="975" y="655" type="line" smooth="yes"/>
      <point x="975" y="842.931"/>
      <point x="1113.24" y="947"/>
      <point x="1371.67" y="947" type="curve" smooth="yes"/>
      <point x="1438.79" y="947"/>
      <point x="1501.9" y="941"/>
      <point x="1563" y="926" type="curve"/>
      <point x="1577" y="764" type="line"/>
      <point x="1521.15" y="776"/>
      <point x="1467.28" y="781"/>
      <point x="1409.44" y="781" type="curve" smooth="yes"/>
      <point x="1265.81" y="781"/>
      <point x="1193" y="740.649"/>
      <point x="1193" y="652.903" type="curve" smooth="yes"/>
      <point x="1193" y="649.948" type="line" smooth="yes"/>
      <point x="1193" y="564.206"/>
      <point x="1262.81" y="518"/>
      <point x="1418.56" y="518" type="curve" smooth="yes"/>
      <point x="1572.62" y="518"/>
      <point x="1660.52" y="558"/>
      <point x="1702" y="644" type="curve"/>
      <point x="1702" y="486" type="line"/>
      <point x="1684" y="486" type="line"/>
      <point x="1644.33" y="396.369"/>
      <point x="1539.48" y="349"/>
    </contour>
  </outline>
  <guideline angle="90" x="326" y="0"/>
  <guideline angle="90" x="546" y="0"/>
  <guideline angle="90" x="326" y="0"/>
  <guideline angle="90" x="154" y="0"/>
  <guideline angle="90" x="1632" y="0"/>
  <guideline angle="0" x="0" y="9"/>
  <guideline angle="90" x="1637" y="0"/>
  <guideline angle="90" x="1620" y="0"/>
  <guideline angle="0" x="0" y="1262"/>
  <guideline angle="90" x="1799" y="0"/>
  <guideline angle="0" x="0" y="30"/>
</glyph>
<glyph name="Ca.dv" format="2">
  <advance width="1739"/>
  <unicode hex="091A"/>
  <anchor x="1409.5" y="23" name="bottom"/>
  <anchor x="1404.5" y="23" name="bottom2"/>
  <anchor x="1514" y="23" name="bottom3"/>
  <anchor x="1409" y="42.5" name="bottom5"/>
  <anchor x="1409" y="1217.5" name="top"/>
  <outline>
    <contour>
      <point x="1514" y="1145.5" type="line"/>
      <point x="1514" y="0" type="line"/>
      <point x="1304" y="0" type="line"/>
      <point x="1304" y="1145.5" type="line"/>
    </contour>
    <contour>
      <point x="1180.5" y="1092.5" type="line"/>
      <point x="1166.5" y="1248" type="line"/>
      <point x="1774.5" y="1248" type="line"/>
      <point x="1788.5" y="1092.5" type="line"/>
    </contour>
    <contour>
      <point x="-36" y="1092.5" type="line"/>
      <point x="-50" y="1248" type="line"/>
      <point x="1674.5" y="1248" type="line"/>
      <point x="1688.5" y="1092.5" type="line"/>
    </contour>
    <contour>
      <point x="1071.5" y="864" type="line"/>
      <point x="1071.5" y="705" type="line"/>
      <point x="572.36" y="706" type="line"/>
      <point x="365.5" y="699.5" type="line"/>
      <point x="67" y="699.5" type="line"/>
      <point x="67" y="864" type="line"/>
    </contour>
    <contour>
      <point x="817" y="130" type="curve" smooth="yes"/>
      <point x="473.849" y="130"/>
      <point x="273" y="252.017"/>
      <point x="273" y="457" type="curve" smooth="yes"/>
      <point x="273" y="462.5" type="line" smooth="yes"/>
      <point x="273" y="583.662"/>
      <point x="336.238" y="663.155"/>
      <point x="472.5" y="693.5" type="curve"/>
      <point x="472.5" y="741.5" type="line"/>
      <point x="1071.5" y="741.5" type="line"/>
      <point x="1071.5" y="705" type="line"/>
      <point x="840" y="698.5" type="line" smooth="yes"/>
      <point x="605.22" y="691.908"/>
      <point x="493.5" y="635.606"/>
      <point x="493.5" y="507.5" type="curve" smooth="yes"/>
      <point x="493.5" y="503.5" type="line" smooth="yes"/>
      <point x="493.5" y="371.5"/>
      <point x="619.806" y="301.5"/>
      <point x="862" y="301.5" type="curve" smooth="yes"/>
      <point x="1133.53" y="301.5"/>
      <point x="1269.54" y="390"/>
      <point x="1310.5" y="528.5" type="curve"/>
      <point x="1312.5" y="359" type="line"/>
      <point x="1294.5" y="359" type="line"/>
      <point x="1254.75" y="235.807"/>
      <point x="1114.74" y="130"/>
    </contour>
  </outline>
  <guideline angle="0" x="0" y="94"/>
  <guideline angle="90" x="1242.5" y="0"/>
  <guideline angle="0" x="0" y="9"/>
  <guideline angle="90" x="1247.5" y="0"/>
  <guideline angle="90" x="1230.5" y="0"/>
  <guideline angle="0" x="0" y="1262"/>
  <guideline angle="90" x="1409.5" y="0"/>
  <guideline angle="0" x="0" y="30"/>
</glyph>
<glyph name="Cha.dv" format="2">
  <advance width="1863"/>
  <unicode hex="091B"/>
  <anchor x="977" y="-9" name="bottom"/>
  <anchor x="863.5" y="-9" name="bottom2"/>
  <anchor x="1467.5" y="-9" name="bottom3"/>
  <anchor x="938" y="-0.5" name="bottom4"/>
  <anchor x="918" y="11.5" name="bottom5"/>
  <anchor x="1382.5" y="1217.5" name="top"/>
  <outline>
    <contour>
      <point x="1155.5" y="1093.5" type="line"/>
      <point x="1141.5" y="1248" type="line"/>
      <point x="1723" y="1248" type="line"/>
      <point x="1737" y="1093.5" type="line"/>
    </contour>
    <contour>
      <point x="1487.5" y="1145.5" type="line"/>
      <point x="1487.5" y="912.5" type="line"/>
      <point x="1284" y="912.5" type="line"/>
      <point x="1284" y="1145.5" type="line"/>
    </contour>
    <contour>
      <point x="1886" y="1248" type="line"/>
      <point x="1900" y="1093" type="line"/>
      <point x="-47" y="1093" type="line"/>
      <point x="-61" y="1248" type="line"/>
    </contour>
    <contour>
      <point x="1283" y="884" type="line"/>
      <point x="1283" y="1149" type="line"/>
      <point x="1488" y="1149" type="line"/>
      <point x="1488" y="884" type="line"/>
    </contour>
    <contour>
      <point x="888" y="-32" type="curve" smooth="yes"/>
      <point x="403" y="-32"/>
      <point x="157" y="111"/>
      <point x="157" y="352" type="curve" smooth="yes"/>
      <point x="157" y="358" type="line" smooth="yes"/>
      <point x="157" y="520"/>
      <point x="252.119" y="626"/>
      <point x="511" y="646" type="curve"/>
      <point x="511" y="654" type="line"/>
      <point x="258.087" y="681.197"/>
      <point x="163" y="786.964"/>
      <point x="163" y="930" type="curve" smooth="yes"/>
      <point x="163" y="935" type="line" smooth="yes"/>
      <point x="163" y="1013.14"/>
      <point x="198" y="1081.42"/>
      <point x="257" y="1120" type="curve"/>
      <point x="489" y="1120" type="line"/>
      <point x="413" y="1082"/>
      <point x="381" y="1014"/>
      <point x="381" y="945" type="curve" smooth="yes"/>
      <point x="381" y="939" type="line" smooth="yes"/>
      <point x="381" y="826"/>
      <point x="455.539" y="744.112"/>
      <point x="700" y="733" type="curve" smooth="yes"/>
      <point x="788" y="729" type="line"/>
      <point x="788" y="563" type="line"/>
      <point x="698" y="560" type="line" smooth="yes"/>
      <point x="453.524" y="551.851"/>
      <point x="375" y="488"/>
      <point x="375" y="374" type="curve" smooth="yes"/>
      <point x="375" y="370" type="line" smooth="yes"/>
      <point x="375" y="222"/>
      <point x="550" y="136"/>
      <point x="889" y="136" type="curve" smooth="yes"/>
      <point x="1320.95" y="136"/>
      <point x="1533" y="318"/>
      <point x="1533" y="532" type="curve" smooth="yes"/>
      <point x="1533" y="543" type="line"/>
      <point x="1530" y="563" type="line"/>
      <point x="1530" y="579" type="line" smooth="yes"/>
      <point x="1530" y="704.801"/>
      <point x="1459.75" y="776"/>
      <point x="1318.28" y="776" type="curve" smooth="yes"/>
      <point x="1200.58" y="776"/>
      <point x="1135" y="729.712"/>
      <point x="1135" y="646" type="curve" smooth="yes"/>
      <point x="1135" y="643" type="line" smooth="yes"/>
      <point x="1135" y="553.682"/>
      <point x="1204.48" y="512"/>
      <point x="1326.56" y="512" type="curve" smooth="yes"/>
      <point x="1428.9" y="512"/>
      <point x="1500.26" y="540.67"/>
      <point x="1535" y="599" type="curve"/>
      <point x="1544" y="491" type="line"/>
      <point x="1519" y="491" type="line"/>
      <point x="1484.12" y="407.867"/>
      <point x="1395.95" y="362"/>
      <point x="1272" y="362" type="curve" smooth="yes"/>
      <point x="1059.29" y="362"/>
      <point x="942" y="464.726"/>
      <point x="942" y="637.95" type="curve" smooth="yes"/>
      <point x="942" y="643.993" type="line" smooth="yes"/>
      <point x="942" y="820.238"/>
      <point x="1076" y="928"/>
      <point x="1319" y="928" type="curve" smooth="yes"/>
      <point x="1612" y="928"/>
      <point x="1734" y="772"/>
      <point x="1734" y="554" type="curve" smooth="yes"/>
      <point x="1734" y="541" type="line" smooth="yes"/>
      <point x="1734" y="209"/>
      <point x="1452" y="-32"/>
    </contour>
  </outline>
  <guideline angle="0" x="0" y="1383"/>
  <guideline angle="0" x="0" y="20"/>
  <guideline angle="0" x="0" y="20"/>
  <guideline angle="0" x="0" y="41"/>
  <guideline angle="90" x="1734" y="0"/>
  <guideline angle="90" x="1221" y="0"/>
</glyph>
<glyph name="Ja.dv" format="2">
  <advance width="1828"/>
  <unicode hex="091C"/>
  <anchor x="1499" y="23" name="bottom"/>
  <anchor x="1494" y="23" name="bottom2"/>
  <anchor x="1603.5" y="23" name="bottom3"/>
  <anchor x="1498.5" y="42.5" name="bottom5"/>
  <anchor x="1498.5" y="1217.5" name="top"/>
  <outline>
    <contour>
      <point x="1603.5" y="1145.5" type="line"/>
      <point x="1603.5" y="0" type="line"/>
      <point x="1393.5" y="0" type="line"/>
      <point x="1393.5" y="1145.5" type="line"/>
    </contour>
    <contour>
      <point x="1270" y="1092.5" type="line"/>
      <point x="1256" y="1248" type="line"/>
      <point x="1864" y="1248" type="line"/>
      <point x="1878" y="1092.5" type="line"/>
    </contour>
    <contour>
      <point x="1778" y="1093" type="line"/>
      <point x="-36" y="1093" type="line"/>
      <point x="-50" y="1248" type="line"/>
      <point x="1764" y="1248" type="line"/>
    </contour>
    <contour>
      <point x="1439" y="831" type="line"/>
      <point x="1439" y="668" type="line"/>
      <point x="996" y="668" type="line"/>
      <point x="679" y="673" type="line"/>
      <point x="284" y="674" type="line"/>
      <point x="284" y="831" type="line"/>
    </contour>
    <contour>
      <point x="874" y="720" type="line"/>
      <point x="874" y="660" type="line"/>
      <point x="1007.01" y="610.795"/>
      <point x="1074" y="531.174"/>
      <point x="1074" y="404.386" type="curve" smooth="yes"/>
      <point x="1074" y="397.398" type="line" smooth="yes"/>
      <point x="1074" y="200.752"/>
      <point x="912.01" y="63"/>
      <point x="573" y="63" type="curve" smooth="yes"/>
      <point x="368.385" y="63"/>
      <point x="213.292" y="113.924"/>
      <point x="102" y="186.163" type="curve"/>
      <point x="90" y="381" type="line"/>
      <point x="228" y="293.2"/>
      <point x="368" y="232"/>
      <point x="550" y="232" type="curve" smooth="yes"/>
      <point x="761" y="232"/>
      <point x="856" y="313.812"/>
      <point x="856" y="443.518" type="curve" smooth="yes"/>
      <point x="856" y="448.507" type="line" smooth="yes"/>
      <point x="856" y="581.015"/>
      <point x="770.999" y="662.005"/>
      <point x="487" y="669" type="curve" smooth="yes"/>
      <point x="284" y="674" type="line"/>
      <point x="284" y="720" type="line"/>
    </contour>
  </outline>
  <guideline angle="90" x="1332" y="0"/>
  <guideline angle="0" x="0" y="9"/>
  <guideline angle="90" x="1337" y="0"/>
  <guideline angle="90" x="1320" y="0"/>
  <guideline angle="0" x="0" y="1262"/>
  <guideline angle="90" x="1499" y="0"/>
  <guideline angle="0" x="0" y="30"/>
</glyph>
<glyph name="Da.dv" format="2">
  <advance width="1501"/>
  <unicode hex="0926"/>
  <anchor x="1214.5" y="-96" name="bottom"/>
  <anchor x="877" y="-111" name="bottom2"/>
  <anchor x="1312.5" y="-111" name="bottom3"/>
  <anchor x="365.5" y="141.5" name="bottom4"/>
  <anchor x="779.5" y="-98" name="bottom5"/>
  <anchor x="1172" y="1217.5" name="top"/>
  <outline>
    <contour>
      <point x="945" y="1093.5" type="line"/>
      <point x="931" y="1248" type="line"/>
      <point x="1512.5" y="1248" type="line"/>
      <point x="1526.5" y="1093.5" type="line"/>
    </contour>
    <contour>
      <point x="1277" y="1145.5" type="line"/>
      <point x="1277" y="912.5" type="line"/>
      <point x="1073.5" y="912.5" type="line"/>
      <point x="1073.5" y="1145.5" type="line"/>
    </contour>
    <contour>
      <point x="-34.5" y="1092.5" type="line"/>
      <point x="-48.5" y="1248" type="line"/>
      <point x="1536" y="1248" type="line"/>
      <point x="1550" y="1092.5" type="line"/>
    </contour>
    <contour>
      <point x="1068.5" y="779" type="line"/>
      <point x="1068.5" y="1149" type="line"/>
      <point x="1278" y="1149" type="line"/>
      <point x="1278" y="709.5" type="line"/>
    </contour>
    <contour>
      <point x="1296" y="505.5" type="line"/>
      <point x="1296" y="236" type="line"/>
      <point x="1367.5" y="-140.5" type="line"/>
      <point x="1159.5" y="-140.5" type="line"/>
      <point x="1105" y="212.5" type="line"/>
      <point x="1086" y="229" type="line"/>
      <point x="1086" y="505.5" type="line"/>
    </contour>
    <contour>
      <point x="731" y="224" type="curve" smooth="yes"/>
      <point x="887.859" y="224"/>
      <point x="1008.6" y="257.28"/>
      <point x="1097" y="317.5" type="curve"/>
      <point x="1121.5" y="163.5" type="line"/>
      <point x="1035" y="98"/>
      <point x="906" y="58.5"/>
      <point x="714" y="58.5" type="curve" smooth="yes"/>
      <point x="352.305" y="58.5"/>
      <point x="131.5" y="215.763"/>
      <point x="131.5" y="478.5" type="curve" smooth="yes"/>
      <point x="131.5" y="488.5" type="line" smooth="yes"/>
      <point x="131.5" y="751.209"/>
      <point x="323.991" y="895.5"/>
      <point x="750" y="895.5" type="curve" smooth="yes"/>
      <point x="930.87" y="895.5"/>
      <point x="1079.82" y="884.317"/>
      <point x="1278" y="858.5" type="curve"/>
      <point x="1278" y="709.5" type="line"/>
      <point x="1097.78" y="727"/>
      <point x="939.643" y="736.5"/>
      <point x="779" y="736.5" type="curve" smooth="yes"/>
      <point x="481.016" y="736.5"/>
      <point x="349.5" y="647.768"/>
      <point x="349.5" y="485.5" type="curve" smooth="yes"/>
      <point x="349.5" y="479.5" type="line" smooth="yes"/>
      <point x="349.5" y="316"/>
      <point x="503.255" y="224"/>
    </contour>
  </outline>
  <guideline angle="90" x="1215" y="0"/>
  <guideline angle="0" x="0" y="-129"/>
  <guideline angle="0" x="0" y="-108"/>
  <guideline angle="90" x="1010.5" y="0"/>
</glyph>
<glyph name="Ba.dv" format="2">
  <advance width="1647"/>
  <unicode hex="092C"/>
  <anchor x="1318" y="23" name="bottom"/>
  <anchor x="1313" y="23" name="bottom2"/>
  <anchor x="1422.5" y="23" name="bottom3"/>
  <anchor x="1317.5" y="42.5" name="bottom5"/>
  <anchor x="1317.5" y="1217.5" name="top"/>
  <outline>
    <contour>
      <point x="1422.5" y="1145.5" type="line"/>
      <point x="1422.5" y="0" type="line"/>
      <point x="1212.5" y="0" type="line"/>
      <point x="1212.5" y="1145.5" type="line"/>
    </contour>
    <contour>
      <point x="1089" y="1092.5" type="line"/>
      <point x="1075" y="1248" type="line"/>
      <point x="1683" y="1248" type="line"/>
      <point x="1697" y="1092.5" type="line"/>
    </contour>
    <contour>
      <point x="-29" y="1093" type="line"/>
      <point x="-43" y="1248" type="line"/>
      <point x="1587" y="1248" type="line"/>
      <point x="1601" y="1093" type="line"/>
    </contour>
    <contour>
      <point x="362" y="744" type="line"/>
      <point x="516" y="810" type="line"/>
      <point x="1162" y="334" type="line"/>
      <point x="1033" y="252" type="line"/>
    </contour>
    <contour>
      <point x="129" y="521" type="curve" smooth="yes"/>
      <point x="129" y="530" type="line" smooth="yes"/>
      <point x="129" y="778"/>
      <point x="325" y="920"/>
      <point x="700" y="920" type="curve" smooth="yes"/>
      <point x="827" y="920"/>
      <point x="937" y="908"/>
      <point x="1039" y="884" type="curve"/>
      <point x="1054" y="721" type="line"/>
      <point x="949" y="746"/>
      <point x="841" y="759"/>
      <point x="720" y="759" type="curve" smooth="yes"/>
      <point x="469" y="759"/>
      <point x="344" y="678"/>
      <point x="344" y="526" type="curve" smooth="yes"/>
      <point x="344" y="521" type="line" smooth="yes"/>
      <point x="344" y="367"/>
      <point x="480" y="281"/>
      <point x="734" y="281" type="curve" smooth="yes"/>
      <point x="1025" y="281"/>
      <point x="1173" y="379"/>
      <point x="1223" y="531" type="curve"/>
      <point x="1226" y="347" type="line"/>
      <point x="1204" y="347" type="line"/>
      <point x="1154.2" y="214.08"/>
      <point x="1003.92" y="116"/>
      <point x="710.433" y="116" type="curve" smooth="yes"/>
      <point x="350.784" y="116"/>
      <point x="129" y="267"/>
    </contour>
  </outline>
  <guideline angle="90" x="1151" y="0"/>
  <guideline angle="0" x="0" y="9"/>
  <guideline angle="90" x="1156" y="0"/>
  <guideline angle="90" x="1139" y="0"/>
  <guideline angle="0" x="0" y="1262"/>
  <guideline angle="90" x="1318" y="0"/>
  <guideline angle="0" x="0" y="30"/>
</glyph>
<glyph name="Bha.dv" format="2">
  <advance width="1582"/>
  <unicode hex="092D"/>
  <anchor x="1252.5" y="23" name="bottom"/>
  <anchor x="1247.5" y="23" name="bottom2"/>
  <anchor x="1357" y="23" name="bottom3"/>
  <anchor x="1252" y="42.5" name="bottom5"/>
  <anchor x="1252" y="1217.5" name="top"/>
  <outline>
    <contour>
      <point x="1357" y="1145.5" type="line"/>
      <point x="1357" y="0" type="line"/>
      <point x="1147" y="0" type="line"/>
      <point x="1147" y="1145.5" type="line"/>
    </contour>
    <contour>
      <point x="1023.5" y="1092.5" type="line"/>
      <point x="1009.5" y="1248" type="line"/>
      <point x="1617.5" y="1248" type="line"/>
      <point x="1631.5" y="1092.5" type="line"/>
    </contour>
    <contour>
      <point x="924" y="1092.5" type="line"/>
      <point x="909.5" y="1248" type="line"/>
      <point x="1517.5" y="1248" type="line"/>
      <point x="1531.5" y="1092.5" type="line"/>
    </contour>
    <contour>
      <point x="358" y="473" type="line"/>
      <point x="358" y="636.5" type="line"/>
      <point x="1223" y="636.5" type="line"/>
      <point x="1223" y="473" type="line"/>
    </contour>
    <contour>
      <point x="275.5" y="171.5" type="line"/>
      <point x="219" y="297.5"/>
      <point x="178.5" y="409"/>
      <point x="159.5" y="566" type="curve"/>
      <point x="281" y="629" type="line"/>
      <point x="489.5" y="629" type="line"/>
      <point x="489.5" y="171.5" type="line"/>
    </contour>
    <contour>
      <point x="281" y="549" type="line"/>
      <point x="281" y="913" type="line" smooth="yes"/>
      <point x="281" y="1052"/>
      <point x="244.5" y="1092.5"/>
      <point x="111.5" y="1092.5" type="curve" smooth="yes"/>
      <point x="-34" y="1092.5" type="line"/>
      <point x="-48" y="1248" type="line"/>
      <point x="149" y="1248" type="line" smooth="yes"/>
      <point x="398.5" y="1248"/>
      <point x="489.5" y="1153.5"/>
      <point x="489.5" y="918.5" type="curve" smooth="yes"/>
      <point x="489.5" y="549" type="line"/>
    </contour>
  </outline>
  <guideline angle="90" x="421" y="0"/>
  <guideline angle="90" x="1085.5" y="0"/>
  <guideline angle="0" x="0" y="9"/>
  <guideline angle="90" x="1090.5" y="0"/>
  <guideline angle="90" x="1073.5" y="0"/>
  <guideline angle="0" x="0" y="1262"/>
  <guideline angle="90" x="1252.5" y="0"/>
  <guideline angle="0" x="0" y="30"/>
</glyph>
<glyph name="Lla.dv" format="2">
  <advance width="2008"/>
  <unicode hex="0933"/>
  <anchor x="1480" y="15" name="bottom"/>
  <anchor x="1304" y="15" name="bottom2"/>
  <anchor x="1557" y="15" name="bottom3"/>
  <anchor x="1020" y="34.5" name="bottom5"/>
  <anchor x="1440" y="1217.5" name="top"/>
  <outline>
    <contour>
      <point x="1213" y="1093.5" type="line"/>
      <point x="1199" y="1248" type="line"/>
      <point x="1780.5" y="1248" type="line"/>
      <point x="1794.5" y="1093.5" type="line"/>
    </contour>
    <contour>
      <point x="1545" y="1145.5" type="line"/>
      <point x="1545" y="912.5" type="line"/>
      <point x="1341.5" y="912.5" type="line"/>
      <point x="1341.5" y="1145.5" type="line"/>
    </contour>
    <contour>
      <point x="2056.5" y="1092.5" type="line"/>
      <point x="-35" y="1092.5" type="line"/>
      <point x="-49" y="1248" type="line"/>
      <point x="2042.5" y="1248" type="line"/>
    </contour>
    <contour>
      <point x="1546" y="832" type="line"/>
      <point x="1340.5" y="832" type="line"/>
      <point x="1340.5" y="1149" type="line"/>
      <point x="1546" y="1149" type="line"/>
    </contour>
    <contour>
      <point x="1878.5" y="425" type="line" smooth="yes"/>
      <point x="1878.5" y="157.853"/>
      <point x="1726.65" y="-7"/>
      <point x="1436" y="-7" type="curve" smooth="yes"/>
      <point x="1218.01" y="-7"/>
      <point x="1093.65" y="88.2762"/>
      <point x="1050" y="221.5" type="curve"/>
      <point x="1031" y="221.5" type="line"/>
      <point x="1052" y="369.5" type="line"/>
      <point x="1091" y="369" type="line"/>
      <point x="1127.49" y="252.406"/>
      <point x="1225.5" y="163"/>
      <point x="1385.97" y="163" type="curve" smooth="yes"/>
      <point x="1569.47" y="163"/>
      <point x="1660.5" y="265.775"/>
      <point x="1660.5" y="431" type="curve" smooth="yes"/>
      <point x="1660.5" y="438.5" type="line" smooth="yes"/>
      <point x="1660.5" y="605.641"/>
      <point x="1555.97" y="699.5"/>
      <point x="1397.92" y="699.5" type="curve" smooth="yes"/>
      <point x="1233.63" y="699.5"/>
      <point x="1155.03" y="616.244"/>
      <point x="1117.93" y="465.5" type="curve" smooth="yes"/>
      <point x="1074.5" y="289" type="line"/>
      <point x="1062" y="286.5" type="line"/>
      <point x="1013.15" y="102.311"/>
      <point x="892.731" y="-8"/>
      <point x="611.5" y="-8" type="curve" smooth="yes"/>
      <point x="317.179" y="-8"/>
      <point x="134.5" y="153"/>
      <point x="134.5" y="429" type="curve" smooth="yes"/>
      <point x="134.5" y="439.5" type="line" smooth="yes"/>
      <point x="134.5" y="704.5"/>
      <point x="303.145" y="866"/>
      <point x="587.5" y="866" type="curve" smooth="yes"/>
      <point x="793.112" y="866"/>
      <point x="918.356" y="779.923"/>
      <point x="963" y="644.5" type="curve"/>
      <point x="977.5" y="644.5" type="line"/>
      <point x="944" y="508" type="line"/>
      <point x="917" y="507.5" type="line"/>
      <point x="880.929" y="621.797"/>
      <point x="790.99" y="697.5"/>
      <point x="633.002" y="697.5" type="curve" smooth="yes"/>
      <point x="449.055" y="697.5"/>
      <point x="351.5" y="600.905"/>
      <point x="351.5" y="433.5" type="curve" smooth="yes"/>
      <point x="351.5" y="426.5" type="line" smooth="yes"/>
      <point x="351.5" y="255.332"/>
      <point x="455.932" y="159.5"/>
      <point x="623.91" y="159.5" type="curve" smooth="yes"/>
      <point x="783.913" y="159.5"/>
      <point x="850.135" y="235.162"/>
      <point x="885.65" y="389" type="curve" smooth="yes"/>
      <point x="923.627" y="553.5" type="line"/>
      <point x="947.555" y="571" type="line"/>
      <point x="997.774" y="767.412"/>
      <point x="1158.85" y="867"/>
      <point x="1400.81" y="867" type="curve" smooth="yes"/>
      <point x="1713.58" y="867"/>
      <point x="1878.5" y="687.808"/>
      <point x="1878.5" y="435" type="curve" smooth="yes"/>
    </contour>
  </outline>
  <guideline angle="0" x="0" y="519"/>
  <guideline angle="0" x="0" y="42"/>
  <guideline angle="90" x="567" y="0"/>
  <guideline angle="90" x="631" y="0"/>
  <guideline angle="0" x="0" y="63"/>
  <guideline angle="90" x="1278.5" y="0"/>
</glyph>
<glyph name="Sha.dv" format="2">
  <advance width="1959"/>
  <unicode hex="0936"/>
  <anchor x="1630" y="23" name="bottom"/>
  <anchor x="1625" y="23" name="bottom2"/>
  <anchor x="1734.5" y="23" name="bottom3"/>
  <anchor x="1629.5" y="42.5" name="bottom5"/>
  <anchor x="1629.5" y="1217.5" name="top"/>
  <outline>
    <contour>
      <point x="1734.5" y="1145.5" type="line"/>
      <point x="1734.5" y="0" type="line"/>
      <point x="1524.5" y="0" type="line"/>
      <point x="1524.5" y="1145.5" type="line"/>
    </contour>
    <contour>
      <point x="1401" y="1092.5" type="line"/>
      <point x="1387" y="1248" type="line"/>
      <point x="1995" y="1248" type="line"/>
      <point x="2009" y="1092.5" type="line"/>
    </contour>
    <contour>
      <point x="1304" y="1248" type="line"/>
      <point x="1895" y="1248" type="line"/>
      <point x="1909" y="1093" type="line"/>
      <point x="1318" y="1093" type="line"/>
    </contour>
    <contour>
      <point x="1101" y="0" type="line"/>
      <point x="804.664" y="0" type="line"/>
      <point x="314.92" y="385" type="line"/>
      <point x="132" y="404" type="line"/>
      <point x="132" y="574" type="line"/>
      <point x="534" y="468" type="line"/>
      <point x="534" y="392" type="line"/>
      <point x="647.76" y="336.481"/>
      <point x="743.725" y="282.335"/>
      <point x="842.151" y="208.962" type="curve" smooth="yes"/>
      <point x="1101" y="16" type="line"/>
    </contour>
    <contour>
      <point x="1184" y="856" type="curve" smooth="yes"/>
      <point x="1184" y="846" type="line" smooth="yes"/>
      <point x="1184" y="558.122"/>
      <point x="953.679" y="399"/>
      <point x="532" y="399" type="curve" smooth="yes"/>
      <point x="442.532" y="399"/>
      <point x="352.024" y="401"/>
      <point x="274" y="407" type="curve"/>
      <point x="132" y="574" type="line"/>
      <point x="250.013" y="564"/>
      <point x="340.645" y="559"/>
      <point x="456" y="559" type="curve" smooth="yes"/>
      <point x="816.127" y="559"/>
      <point x="966" y="662.344"/>
      <point x="966" y="859" type="curve" smooth="yes"/>
      <point x="966" y="866" type="line" smooth="yes"/>
      <point x="966" y="1017"/>
      <point x="866" y="1115"/>
      <point x="676" y="1115" type="curve" smooth="yes"/>
      <point x="502" y="1115"/>
      <point x="400" y="1033"/>
      <point x="400" y="909" type="curve" smooth="yes"/>
      <point x="400" y="906" type="line" smooth="yes"/>
      <point x="400" y="853"/>
      <point x="417" y="804"/>
      <point x="458" y="752" type="curve"/>
      <point x="253" y="752" type="line"/>
      <point x="211" y="808"/>
      <point x="189" y="871"/>
      <point x="189" y="937" type="curve" smooth="yes"/>
      <point x="189" y="941" type="line" smooth="yes"/>
      <point x="189" y="1144"/>
      <point x="367" y="1279"/>
      <point x="669" y="1279" type="curve" smooth="yes"/>
      <point x="1000" y="1279"/>
      <point x="1184" y="1109"/>
    </contour>
  </outline>
  <guideline angle="90" x="1463" y="0"/>
  <guideline angle="0" x="0" y="9"/>
  <guideline angle="90" x="1468" y="0"/>
  <guideline angle="90" x="1451" y="0"/>
  <guideline angle="0" x="0" y="1262"/>
  <guideline angle="90" x="1630" y="0"/>
  <guideline angle="0" x="0" y="30"/>
</glyph>
<glyph name="Avagraha.dv" format="2">
  <advance width="1335"/>
  <unicode hex="093D"/>
  <outline>
    <contour>
      <point x="99.5" y="327" type="line"/>
      <point x="273" y="219.759"/>
      <point x="455.5" y="154"/>
      <point x="671.5" y="154" type="curve" smooth="yes"/>
      <point x="889.5" y="154"/>
      <point x="1007.5" y="227.126"/>
      <point x="1007.5" y="349.5" type="curve" smooth="yes"/>
      <point x="1007.5" y="356" type="line" smooth="yes"/>
      <point x="1007.5" y="473.5"/>
      <point x="931.897" y="533.434"/>
      <point x="638.5" y="592" type="curve" smooth="yes"/>
      <point x="257.889" y="667.975"/>
      <point x="130" y="761.5"/>
      <point x="130" y="950.5" type="curve" smooth="yes"/>
      <point x="130" y="957.5" type="line" smooth="yes"/>
      <point x="130" y="1133.5"/>
      <point x="262.049" y="1248"/>
      <point x="567.5" y="1248" type="curve" smooth="yes"/>
      <point x="1140" y="1248" type="line"/>
      <point x="1157.5" y="1086.5" type="line"/>
      <point x="583.5" y="1086.5" type="line" smooth="yes"/>
      <point x="423.079" y="1086.5"/>
      <point x="347.5" y="1039.82"/>
      <point x="347.5" y="954" type="curve" smooth="yes"/>
      <point x="347.5" y="949.5" type="line" smooth="yes"/>
      <point x="347.5" y="849.015"/>
      <point x="429.337" y="804.76"/>
      <point x="723.5" y="746.5" type="curve" smooth="yes"/>
      <point x="1105.02" y="670.939"/>
      <point x="1225.5" y="554.472"/>
      <point x="1225.5" y="352.5" type="curve" smooth="yes"/>
      <point x="1225.5" y="344.5" type="line" smooth="yes"/>
      <point x="1225.5" y="125.5"/>
      <point x="1045.48" y="-15"/>
      <point x="683.5" y="-15" type="curve" smooth="yes"/>
      <point x="443.344" y="-15"/>
      <point x="257.264" y="42.1404"/>
      <point x="116" y="129.585" type="curve"/>
    </contour>
  </outline>
  <guideline angle="0" x="0" y="709"/>
</glyph>
<glyph name="matraU.dv" format="2">
  <unicode hex="0941"/>
  <anchor x="-329.5" y="23" name="_bottom"/>
  <outline>
    <contour>
      <point x="-945.175" y="-204" type="line"/>
      <point x="-823.501" y="-379.395"/>
      <point x="-666.642" y="-469.5"/>
      <point x="-434.922" y="-469.5" type="curve" smooth="yes"/>
      <point x="-269.028" y="-469.5"/>
      <point x="-177.5" y="-403.785"/>
      <point x="-177.5" y="-302.506" type="curve" smooth="yes"/>
      <point x="-177.5" y="-295.589" type="line" smooth="yes"/>
      <point x="-177.5" y="-194.773"/>
      <point x="-245.71" y="-136.5"/>
      <point x="-387.189" y="-136.5" type="curve" smooth="yes"/>
      <point x="-477.103" y="-136.5"/>
      <point x="-568.543" y="-161.409"/>
      <point x="-657.5" y="-203.5" type="curve"/>
      <point x="-637" y="-33.5" type="line"/>
      <point x="-560.795" y="3.30361"/>
      <point x="-477.686" y="23"/>
      <point x="-357" y="23" type="curve" smooth="yes"/>
      <point x="-111.58" y="23"/>
      <point x="28" y="-110.085"/>
      <point x="28" y="-295.5" type="curve" smooth="yes"/>
      <point x="28" y="-305" type="line" smooth="yes"/>
      <point x="28" y="-502.608"/>
      <point x="-132.198" y="-630"/>
      <point x="-428.5" y="-630" type="curve" smooth="yes"/>
      <point x="-778.639" y="-630"/>
      <point x="-1011.59" y="-481"/>
      <point x="-1172.5" y="-204" type="curve"/>
    </contour>
  </outline>
  <guideline angle="0" x="0" y="9"/>
  <guideline angle="90" x="-186" y="0"/>
  <guideline angle="90" x="28" y="0"/>
</glyph>
<glyph name="matraShortO.dv" format="2">
  <advance width="659"/>
  <unicode hex="094A"/>
  <outline>
    <contour>
      <point x="-495.5" y="1816" type="curve" smooth="yes"/>
      <point x="-493.479" y="1686.49"/>
      <point x="-431.57" y="1626"/>
      <point x="-245.273" y="1626" type="curve" smooth="yes"/>
      <point x="16.441" y="1626" type="line" smooth="yes"/>
      <point x="310.437" y="1626"/>
      <point x="420.5" y="1501.5"/>
      <point x="420.5" y="1271.5" type="curve" smooth="yes"/>
      <point x="420.5" y="1216.5" type="line"/>
      <point x="235.5" y="1216.5" type="line"/>
      <point x="235.5" y="1261.46" type="line" smooth="yes"/>
      <point x="235.5" y="1398.8"/>
      <point x="177.685" y="1465"/>
      <point x="1.78903" y="1465" type="curve" smooth="yes"/>
      <point x="-269.137" y="1465" type="line" smooth="yes"/>
      <point x="-550.98" y="1465"/>
      <point x="-679" y="1576.37"/>
      <point x="-679" y="1759.31" type="curve" smooth="yes"/>
      <point x="-679" y="1789.54"/>
      <point x="-675" y="1819.78"/>
      <point x="-666.5" y="1848" type="curve"/>
      <point x="-496" y="1848" type="line"/>
      <point x="-495.959" y="1845.38"/>
      <point x="-495.542" y="1818.69"/>
    </contour>
    <contour>
      <point x="434.5" y="0" type="line"/>
      <point x="224.5" y="0" type="line"/>
      <point x="224.5" y="1145.5" type="line"/>
      <point x="434.5" y="1145.5" type="line"/>
    </contour>
    <contour>
      <point x="709" y="1092.5" type="line"/>
      <point x="-36" y="1092.5" type="line"/>
      <point x="-50" y="1248" type="line"/>
      <point x="695" y="1248" type="line"/>
    </contour>
  </outline>
  <guideline angle="90" x="224.495" y="0"/>
</glyph>
<glyph name="matraAu.dv" format="2">
  <advance width="659"/>
  <unicode hex="094C"/>
  <outline>
    <contour>
      <point x="434.5" y="0" type="line"/>
      <point x="224.5" y="0" type="line"/>
      <point x="224.5" y="1145.5" type="line"/>
      <point x="434.5" y="1145.5" type="line"/>
    </contour>
    <contour>
      <point x="709" y="1092.5" type="line"/>
      <point x="-36" y="1092.5" type="line"/>
      <point x="-50" y="1248" type="line"/>
      <point x="695" y="1248" type="line"/>
    </contour>
    <contour>
      <point x="-398.334" y="1663.5" type="line"/>
      <point x="216.5" y="1352.5" type="line"/>
      <point x="223" y="1363.5" type="line"/>
      <point x="61.9325" y="1507.96"/>
      <point x="-18.2457" y="1597.65"/>
      <point x="-99.3442" y="1710.02" type="curve" smooth="yes"/>
      <point x="-236" y="1899.36" type="line"/>
      <point x="-236" y="1926" type="line"/>
      <point x="1.28146" y="1926" type="line"/>
      <point x="427" y="1239.5" type="line"/>
      <point x="427" y="1217.5" type="line"/>
      <point x="219" y="1217.5" type="line"/>
      <point x="219" y="1258" type="line"/>
      <point x="-29.7287" y="1307.43"/>
      <point x="-210.849" y="1366.57"/>
      <point x="-379" y="1453.09" type="curve" smooth="yes"/>
      <point x="-717" y="1627" type="line"/>
      <point x="-717" y="1663.5" type="line"/>
    </contour>
  </outline>
</glyph>
<glyph name="uni094E" format="2">
  <advance width="659"/>
  <unicode hex="094E"/>
  <outline>
    <contour>
      <point x="434.5" y="1145.5" type="line"/>
      <point x="434.5" y="0" type="line"/>
      <point x="224.5" y="0" type="line"/>
      <point x="224.5" y="1145.5" type="line"/>
    </contour>
    <contour>
      <point x="225.5" y="1093.5" type="line"/>
      <point x="224.5" y="1248" type="line"/>
      <point x="694.5" y="1248" type="line"/>
      <point x="709" y="1093.5" type="line"/>
    </contour>
  </outline>
</glyph>
<glyph name="Om.dv" format="2">
  <advance width="2342"/>
  <unicode hex="0950"/>
  <outline>
    <contour>
      <point x="1602.5" y="1439.31" type="curve" smooth="yes"/>
      <point x="1515.28" y="1439.31"/>
      <point x="1477.41" y="1488.66"/>
      <point x="1477.41" y="1555.79" type="curve" smooth="yes"/>
      <point x="1477.41" y="1561.53" type="line" smooth="yes"/>
      <point x="1477.41" y="1628.09"/>
      <point x="1515.28" y="1677.44"/>
      <point x="1602.5" y="1677.44" type="curve" smooth="yes"/>
      <point x="1689.72" y="1677.44"/>
      <point x="1727.59" y="1628.09"/>
      <point x="1727.59" y="1561.53" type="curve" smooth="yes"/>
      <point x="1727.59" y="1555.79" type="line" smooth="yes"/>
      <point x="1727.59" y="1488.66"/>
      <point x="1689.72" y="1439.31"/>
    </contour>
    <contour>
      <point x="2041.5" y="1532" type="line"/>
      <point x="2043" y="1511.5"/>
      <point x="2043" y="1500.5"/>
      <point x="2043" y="1493" type="curve" smooth="yes"/>
      <point x="2043" y="1281.5"/>
      <point x="1896.5" y="1164"/>
      <point x="1601" y="1164" type="curve" smooth="yes"/>
      <point x="1312.5" y="1164"/>
      <point x="1161" y="1282.15"/>
      <point x="1161" y="1492" type="curve" smooth="yes"/>
      <point x="1161" y="1500.15"/>
      <point x="1161" y="1511.51"/>
      <point x="1163" y="1532" type="curve"/>
      <point x="1343" y="1532" type="line"/>
      <point x="1343" y="1511.5" type="line" smooth="yes"/>
      <point x="1343" y="1380.1"/>
      <point x="1422.96" y="1314"/>
      <point x="1600.64" y="1314" type="curve" smooth="yes"/>
      <point x="1778.32" y="1314"/>
      <point x="1861.5" y="1382.28"/>
      <point x="1861.5" y="1512.41" type="curve" smooth="yes"/>
      <point x="1861.5" y="1533" type="line"/>
    </contour>
    <contour>
      <point x="1465" y="334" type="line"/>
      <point x="1538.94" y="296"/>
      <point x="1618.54" y="275.5"/>
      <point x="1714.5" y="275.5" type="curve" smooth="yes"/>
      <point x="1887.34" y="275.5"/>
      <point x="1998.5" y="368.843"/>
      <point x="1998.5" y="559.5" type="curve" smooth="yes"/>
      <point x="1998.5" y="566.5" type="line" smooth="yes"/>
      <point x="1998.5" y="736.379"/>
      <point x="1920" y="840"/>
      <point x="1763" y="840" type="curve" smooth="yes"/>
      <point x="1641.71" y="840"/>
      <point x="1573.83" y="789.613"/>
      <point x="1509" y="673" type="curve" smooth="yes"/>
      <point x="1478" y="617.235" type="line" smooth="yes"/>
      <point x="1400.72" y="478.224"/>
      <point x="1336.27" y="438.5"/>
      <point x="1206" y="438.5" type="curve" smooth="yes"/>
      <point x="1100" y="438.5"/>
      <point x="1024.5" y="480.949"/>
      <point x="953" y="528" type="curve"/>
      <point x="892.5" y="631.5" type="line"/>
      <point x="959.744" y="613.647"/>
      <point x="1031.52" y="595"/>
      <point x="1108" y="595" type="curve" smooth="yes"/>
      <point x="1218.89" y="595"/>
      <point x="1261.16" y="623.741"/>
      <point x="1313.5" y="716" type="curve" smooth="yes"/>
      <point x="1343" y="768" type="line" smooth="yes"/>
      <point x="1433.92" y="928.265"/>
      <point x="1548" y="1006.5"/>
      <point x="1765" y="1006.5" type="curve" smooth="yes"/>
      <point x="2060.16" y="1006.5"/>
      <point x="2213.5" y="825"/>
      <point x="2213.5" y="559.5" type="curve" smooth="yes"/>
      <point x="2213.5" y="547" type="line" smooth="yes"/>
      <point x="2213.5" y="262"/>
      <point x="2034.83" y="108"/>
      <point x="1741.5" y="108" type="curve" smooth="yes"/>
      <point x="1628.99" y="108"/>
      <point x="1548.46" y="125.965"/>
      <point x="1483" y="157.152" type="curve"/>
    </contour>
    <contour>
      <point x="77.5" y="306" type="line"/>
      <point x="223" y="224"/>
      <point x="393" y="175"/>
      <point x="577" y="175" type="curve" smooth="yes"/>
      <point x="828" y="175"/>
      <point x="946.5" y="244.359"/>
      <point x="946.5" y="365.545" type="curve"/>
      <point x="946.5" y="366.455"/>
      <point x="946.5" y="370.094"/>
      <point x="946.5" y="371.004" type="curve"/>
      <point x="946.5" y="496.196"/>
      <point x="828.486" y="558.062"/>
      <point x="548.5" y="563.534" type="curve" smooth="yes"/>
      <point x="320" y="568" type="line"/>
      <point x="320" y="728" type="line"/>
      <point x="536" y="731.5" type="line" smooth="yes"/>
      <point x="827.502" y="736.224"/>
      <point x="928" y="800.771"/>
      <point x="928" y="918" type="curve"/>
      <point x="928" y="918"/>
      <point x="928" y="922.5"/>
      <point x="928" y="922.5" type="curve"/>
      <point x="928" y="1031.28"/>
      <point x="829" y="1100.5"/>
      <point x="599" y="1100.5" type="curve" smooth="yes"/>
      <point x="430" y="1100.5"/>
      <point x="279" y="1066.5"/>
      <point x="131.5" y="999" type="curve"/>
      <point x="147.5" y="1180" type="line"/>
      <point x="274.729" y="1233.54"/>
      <point x="433.392" y="1265.5"/>
      <point x="620.5" y="1265.5" type="curve" smooth="yes"/>
      <point x="978.677" y="1265.5"/>
      <point x="1141.5" y="1122.7"/>
      <point x="1141.5" y="937" type="curve"/>
      <point x="1141.5" y="936.227"/>
      <point x="1141.5" y="929.273"/>
      <point x="1141.5" y="928.5" type="curve"/>
      <point x="1141.5" y="769.216"/>
      <point x="1036.78" y="673.861"/>
      <point x="826" y="651" type="curve"/>
      <point x="826" y="642.5" type="line"/>
      <point x="1046" y="623.004"/>
      <point x="1156" y="502.965"/>
      <point x="1156" y="345.902" type="curve"/>
      <point x="1156" y="344.907"/>
      <point x="1156" y="339.931"/>
      <point x="1156" y="338.935" type="curve"/>
      <point x="1156" y="145.254"/>
      <point x="990" y="8"/>
      <point x="612.5" y="8" type="curve" smooth="yes"/>
      <point x="392.5" y="8"/>
      <point x="226" y="45.528"/>
      <point x="92" y="119.755" type="curve"/>
    </contour>
  </outline>
</glyph>
<glyph name="uni0953" format="2">
  <unicode hex="0953"/>
  <anchor x="-329.5" y="1217.5" name="_top"/>
  <outline>
    <contour>
      <point x="-472" y="1406" type="line"/>
      <point x="-868.5" y="1783.5" type="line"/>
      <point x="-868.5" y="1797" type="line"/>
      <point x="-620.5" y="1797" type="line"/>
      <point x="-261" y="1415.5" type="line"/>
      <point x="-261" y="1406" type="line"/>
    </contour>
  </outline>
  <guideline angle="90" x="-169" y="0"/>
  <guideline angle="0" x="0" y="1262"/>
</glyph>
<glyph name="uni0954" format="2">
  <unicode hex="0954"/>
  <anchor x="-329.5" y="1217.5" name="_top"/>
  <outline>
    <contour>
      <point x="-201.5" y="1406" type="line"/>
      <point x="-418.5" y="1406" type="line"/>
      <point x="-418.5" y="1415.5" type="line"/>
      <point x="-58.5" y="1797.5" type="line"/>
      <point x="189.5" y="1797.5" type="line"/>
      <point x="189.5" y="1784" type="line"/>
    </contour>
  </outline>
  <guideline angle="90" x="-169" y="0"/>
  <guideline angle="0" x="0" y="1262"/>
</glyph>
<glyph name="uni0955" format="2">
  <unicode hex="0955"/>
  <anchor x="-329.5" y="1217.5" name="_top"/>
  <outline>
    <contour>
      <point x="-110.5" y="1973.5" type="line"/>
      <point x="53.5" y="1972.5" type="line"/>
      <point x="55.1" y="1952.46"/>
      <point x="55" y="1941.3"/>
      <point x="55" y="1932.18" type="curve" smooth="yes"/>
      <point x="55" y="1743.7"/>
      <point x="-70" y="1642"/>
      <point x="-334" y="1642" type="curve" smooth="yes"/>
      <point x="-598" y="1642"/>
      <point x="-722.604" y="1741.71"/>
      <point x="-723.5" y="1930.18" type="curve" smooth="yes"/>
      <point x="-723.551" y="1940.9"/>
      <point x="-723" y="1950.12"/>
      <point x="-721" y="1972.5" type="curve"/>
      <point x="-558.5" y="1973.5" type="line"/>
      <point x="-558.5" y="1950.35" type="line" smooth="yes"/>
      <point x="-558.5" y="1833.14"/>
      <point x="-484.334" y="1782.5"/>
      <point x="-334.961" y="1782.5" type="curve" smooth="yes"/>
      <point x="-185.588" y="1782.5"/>
      <point x="-110.5" y="1832.66"/>
      <point x="-110.5" y="1949.87" type="curve" smooth="yes"/>
    </contour>
    <contour>
      <point x="-729" y="1386.5" type="line"/>
      <point x="-729" y="1536" type="line"/>
      <point x="46" y="1536" type="line"/>
      <point x="46" y="1386.5" type="line"/>
    </contour>
  </outline>
  <guideline angle="90" x="-169" y="0"/>
  <guideline angle="0" x="0" y="1262"/>
</glyph>
<glyph name="matraLruu.dv" format="2">
  <unicode hex="0963"/>
  <outline>
    <contour>
      <point x="-44.5" y="-228.5" type="line"/>
      <point x="-44.5" y="-233.898" type="line" smooth="yes"/>
      <point x="-44.5" y="-329.588"/>
      <point x="-81.9246" y="-387.627"/>
      <point x="-166.371" y="-450.5" type="curve" smooth="yes"/>
      <point x="-262.253" y="-521.887"/>
      <point x="-303" y="-544.417"/>
      <point x="-303" y="-593.443" type="curve" smooth="yes"/>
      <point x="-303" y="-633.076"/>
      <point x="-266.804" y="-655"/>
      <point x="-197.658" y="-655" type="curve" smooth="yes"/>
      <point x="-136.992" y="-655"/>
      <point x="-82.6354" y="-638"/>
      <point x="-37.5" y="-608" type="curve"/>
      <point x="-46.2394" y="-749.302" type="line"/>
      <point x="-91.8786" y="-776.929"/>
      <point x="-154.026" y="-789"/>
      <point x="-226.854" y="-789" type="curve" smooth="yes"/>
      <point x="-376.881" y="-789"/>
      <point x="-473.5" y="-717.58"/>
      <point x="-473.5" y="-599.787" type="curve" smooth="yes"/>
      <point x="-473.5" y="-516.392"/>
      <point x="-435.865" y="-466.578"/>
      <point x="-343.443" y="-397" type="curve" smooth="yes"/>
      <point x="-264.796" y="-337.792"/>
      <point x="-233.5" y="-306.752"/>
      <point x="-233.5" y="-248.384" type="curve" smooth="yes"/>
      <point x="-233.5" y="-244.5" type="line"/>
    </contour>
    <contour>
      <point x="-225" y="-784.5" type="line"/>
      <point x="-282" y="-795.287"/>
      <point x="-310.5" y="-816.463"/>
      <point x="-310.5" y="-850.823" type="curve" smooth="yes"/>
      <point x="-310.5" y="-891.343"/>
      <point x="-273.936" y="-915.5"/>
      <point x="-192.939" y="-915.5" type="curve" smooth="yes"/>
      <point x="-132.979" y="-915.5"/>
      <point x="-79.7889" y="-900.653"/>
      <point x="-29.5" y="-870" type="curve"/>
      <point x="-36.7838" y="-1008.57" type="line"/>
      <point x="-81.9435" y="-1036.11"/>
      <point x="-144.584" y="-1049.5"/>
      <point x="-219.365" y="-1049.5" type="curve" smooth="yes"/>
      <point x="-368.44" y="-1049.5"/>
      <point x="-467.5" y="-988.21"/>
      <point x="-467.5" y="-886.844" type="curve" smooth="yes"/>
      <point x="-467.5" y="-825.693"/>
      <point x="-434.226" y="-787.074"/>
      <point x="-359.5" y="-768.5" type="curve"/>
      <point x="-360" y="-754" type="line"/>
    </contour>
    <contour>
      <point x="-683" y="-383.5" type="line"/>
      <point x="-687.208" y="-258" type="line" smooth="yes"/>
      <point x="-690.39" y="-163.102"/>
      <point x="-736.398" y="-120.5"/>
      <point x="-819.786" y="-120.5" type="curve" smooth="yes"/>
      <point x="-905.978" y="-120.5"/>
      <point x="-965" y="-172.614"/>
      <point x="-965" y="-268" type="curve" smooth="yes"/>
      <point x="-965" y="-272.5" type="line" smooth="yes"/>
      <point x="-965" y="-370"/>
      <point x="-905" y="-464.5"/>
      <point x="-776" y="-560.5" type="curve"/>
      <point x="-1002" y="-560.5" type="line"/>
      <point x="-1099.87" y="-479.73"/>
      <point x="-1156" y="-385.409"/>
      <point x="-1156" y="-261" type="curve" smooth="yes"/>
      <point x="-1156" y="-256" type="line" smooth="yes"/>
      <point x="-1156" y="-84.6741"/>
      <point x="-1032.62" y="25.5"/>
      <point x="-840.713" y="25.5" type="curve" smooth="yes"/>
      <point x="-696.574" y="25.5"/>
      <point x="-627.965" y="-33.3908"/>
      <point x="-602" y="-125" type="curve"/>
      <point x="-595" y="-125" type="line"/>
      <point x="-569.494" y="-32.7553"/>
      <point x="-487.96" y="24.5"/>
      <point x="-344.454" y="24.5" type="curve" smooth="yes"/>
      <point x="-144.186" y="24.5"/>
      <point x="-45.5" y="-92.1139"/>
      <point x="-45.5" y="-231.5" type="curve" smooth="yes"/>
      <point x="-45.5" y="-237" type="line"/>
      <point x="-234" y="-249" type="line"/>
      <point x="-234" y="-242" type="line" smooth="yes"/>
      <point x="-234" y="-170.732"/>
      <point x="-282.164" y="-121.5"/>
      <point x="-369.5" y="-121.5" type="curve" smooth="yes"/>
      <point x="-454.443" y="-121.5"/>
      <point x="-508.862" y="-161.324"/>
      <point x="-512" y="-259" type="curve" smooth="yes"/>
      <point x="-516" y="-383.5" type="line"/>
    </contour>
  </outline>
</glyph>
<glyph name="Doubledanda.dv" format="2">
  <advance width="1601"/>
  <unicode hex="0965"/>
  <outline>
    <contour>
      <point x="1219" y="1276" type="line"/>
      <point x="1219" y="-9" type="line"/>
      <point x="1015.5" y="-9" type="line"/>
      <point x="1015.5" y="1308.5" type="line"/>
    </contour>
    <contour>
      <point x="584.5" y="1276" type="line"/>
      <point x="584.5" y="-9" type="line"/>
      <point x="381" y="-9" type="line"/>
      <point x="381" y="1308.5" type="line"/>
    </contour>
  </outline>
</glyph>
<glyph name="Don.dv" format="2">
  <advance width="1297"/>
  <unicode hex="0968"/>
  <outline>
    <contour>
      <point x="124" y="439" type="line"/>
      <point x="124" y="606" type="line"/>
      <point x="462" y="514" type="line"/>
      <point x="481.5" y="426.5" type="line"/>
      <point x="596.634" y="366.632"/>
      <point x="687.88" y="311.596"/>
      <point x="795" y="220.5" type="curve" smooth="yes"/>
      <point x="1039" y="13" type="line"/>
      <point x="1039" y="0" type="line"/>
      <point x="756" y="0" type="line"/>
      <point x="295" y="415" type="line"/>
    </contour>
    <contour>
      <point x="124" y="606" type="line"/>
      <point x="227.5" y="589"/>
      <point x="337" y="579.5"/>
      <point x="450.5" y="579.5" type="curve" smooth="yes"/>
      <point x="798.5" y="579.5"/>
      <point x="951.5" y="666.833"/>
      <point x="951.5" y="841.5" type="curve" smooth="yes"/>
      <point x="951.5" y="845" type="line" smooth="yes"/>
      <point x="951.5" y="995.5"/>
      <point x="838" y="1096.5"/>
      <point x="601.5" y="1096.5" type="curve" smooth="yes"/>
      <point x="438.5" y="1096.5"/>
      <point x="312" y="1071"/>
      <point x="156" y="1005" type="curve"/>
      <point x="171.5" y="1184.5" type="line"/>
      <point x="299" y="1236.5"/>
      <point x="446" y="1262"/>
      <point x="620.5" y="1262" type="curve" smooth="yes"/>
      <point x="972.5" y="1262"/>
      <point x="1166.5" y="1099.5"/>
      <point x="1166.5" y="843.5" type="curve" smooth="yes"/>
      <point x="1166.5" y="836" type="line" smooth="yes"/>
      <point x="1166.5" y="576"/>
      <point x="966" y="420.5"/>
      <point x="508" y="420.5" type="curve" smooth="yes"/>
      <point x="440" y="420.5"/>
      <point x="400" y="422"/>
      <point x="336.5" y="427.5" type="curve"/>
    </contour>
  </outline>
  <guideline angle="0" x="0" y="711"/>
</glyph>
<glyph name="Aath.dv" format="2">
  <advance width="1259"/>
  <unicode hex="096E"/>
  <outline>
    <contour>
      <point x="1165.72" y="133.61" type="line"/>
      <point x="1052" y="36.6679"/>
      <point x="888.5" y="-15"/>
      <point x="681.25" y="-15" type="curve" smooth="yes"/>
      <point x="329.5" y="-15"/>
      <point x="130" y="152.04"/>
      <point x="130" y="409.18" type="curve" smooth="yes"/>
      <point x="130" y="604.3"/>
      <point x="224.913" y="731.316"/>
      <point x="501.93" y="967.59" type="curve" smooth="yes"/>
      <point x="813.87" y="1233.65" type="line"/>
      <point x="1078.07" y="1233.65" type="line"/>
      <point x="670.06" y="866.91" type="line" smooth="yes"/>
      <point x="428.628" y="649.899"/>
      <point x="347" y="565"/>
      <point x="347" y="419" type="curve" smooth="yes"/>
      <point x="347" y="257.5"/>
      <point x="474" y="156.5"/>
      <point x="698" y="156.5" type="curve" smooth="yes"/>
      <point x="878" y="156.5"/>
      <point x="1041.87" y="221.62"/>
      <point x="1177.5" y="334.03" type="curve"/>
    </contour>
  </outline>
</glyph>
<glyph name="uni0974" format="2">
  <advance width="2672"/>
  <unicode hex="0974"/>
  <anchor x="2538.5" y="1217.5" name="top"/>
  <outline>
    <contour>
      <point x="2447" y="0" type="line"/>
      <point x="2237" y="0" type="line"/>
      <point x="2237" y="1145.5" type="line"/>
      <point x="2447" y="1145.5" type="line"/>
    </contour>
    <contour>
      <point x="2721.5" y="1092.5" type="line"/>
      <point x="1976.5" y="1092.5" type="line"/>
      <point x="1962.5" y="1248" type="line"/>
      <point x="2707.5" y="1248" type="line"/>
    </contour>
    <contour>
      <point x="2245" y="1711" type="line"/>
      <point x="2436" y="1711" type="line"/>
      <point x="2436" y="1224.5" type="line"/>
      <point x="2245" y="1224.5" type="line"/>
    </contour>
    <contour>
      <point x="2063" y="1093" type="line"/>
      <point x="1330" y="1093" type="line"/>
      <point x="1316" y="1248" type="line"/>
      <point x="2049" y="1248" type="line"/>
    </contour>
    <contour>
      <point x="1578" y="0" type="line"/>
      <point x="1578" y="1149" type="line"/>
      <point x="1788" y="1149" type="line"/>
      <point x="1788" y="0" type="line"/>
    </contour>
    <contour>
      <point x="77" y="306" type="line"/>
      <point x="238.922" y="221.354"/>
      <point x="394.923" y="175"/>
      <point x="605" y="175" type="curve" smooth="yes"/>
      <point x="831.955" y="175"/>
      <point x="950" y="244.258"/>
      <point x="950" y="368.502" type="curve" smooth="yes"/>
      <point x="950" y="374.487" type="line" smooth="yes"/>
      <point x="950" y="506.476"/>
      <point x="834.002" y="558.929"/>
      <point x="559" y="565.922" type="curve" smooth="yes"/>
      <point x="320" y="572" type="line"/>
      <point x="320" y="729" type="line"/>
      <point x="545" y="731.984" type="line" smooth="yes"/>
      <point x="833.002" y="735.804"/>
      <point x="934" y="789.669"/>
      <point x="934" y="911.019" type="curve" smooth="yes"/>
      <point x="934" y="914.997" type="line" smooth="yes"/>
      <point x="934" y="1024.41"/>
      <point x="842.183" y="1101"/>
      <point x="597" y="1101" type="curve" smooth="yes"/>
      <point x="431.096" y="1101"/>
      <point x="283.026" y="1069"/>
      <point x="132" y="999" type="curve"/>
      <point x="148" y="1180" type="line"/>
      <point x="273.105" y="1233.72"/>
      <point x="430.247" y="1266"/>
      <point x="618.411" y="1266" type="curve" smooth="yes"/>
      <point x="988.219" y="1266"/>
      <point x="1148" y="1130"/>
      <point x="1148" y="947" type="curve" smooth="yes"/>
      <point x="1148" y="938" type="line" smooth="yes"/>
      <point x="1148" y="792.286"/>
      <point x="1036.09" y="694.861"/>
      <point x="780" y="683" type="curve"/>
      <point x="785" y="614" type="line"/>
      <point x="1067.23" y="569.24"/>
      <point x="1165" y="474.982"/>
      <point x="1165" y="331" type="curve" smooth="yes"/>
      <point x="1165" y="323" type="line" smooth="yes"/>
      <point x="1165" y="130.952"/>
      <point x="989.818" y="8"/>
      <point x="621.521" y="8" type="curve" smooth="yes"/>
      <point x="387.801" y="8"/>
      <point x="221.962" y="51.8064"/>
      <point x="90.9369" y="118.743" type="curve"/>
    </contour>
    <contour>
      <point x="772" y="698" type="line"/>
      <point x="938" y="716" type="line"/>
      <point x="939" y="698" type="line"/>
      <point x="1064.31" y="704.667"/>
      <point x="1134.71" y="712"/>
      <point x="1299" y="712" type="curve" smooth="yes"/>
      <point x="1662" y="712" type="line"/>
      <point x="1662" y="548" type="line"/>
      <point x="1306" y="548" type="line" smooth="yes"/>
      <point x="1145.58" y="548"/>
      <point x="1065.23" y="563"/>
      <point x="941" y="587" type="curve"/>
      <point x="937" y="566" type="line"/>
      <point x="772" y="606" type="line"/>
    </contour>
  </outline>
  <guideline angle="90" x="2101.5" y="0"/>
</glyph>
<glyph name="uni0977" format="2">
  <advance width="2013"/>
  <unicode hex="0977"/>
  <anchor x="1683.5" y="1217.5" name="top"/>
  <outline>
    <contour>
      <point x="2063" y="1093" type="line"/>
      <point x="1330" y="1093" type="line"/>
      <point x="1316" y="1248" type="line"/>
      <point x="2049" y="1248" type="line"/>
    </contour>
    <contour>
      <point x="1578" y="0" type="line"/>
      <point x="1578" y="1149" type="line"/>
      <point x="1788" y="1149" type="line"/>
      <point x="1788" y="0" type="line"/>
    </contour>
    <contour>
      <point x="77" y="306" type="line"/>
      <point x="238.922" y="221.354"/>
      <point x="394.923" y="175"/>
      <point x="605" y="175" type="curve" smooth="yes"/>
      <point x="831.955" y="175"/>
      <point x="950" y="244.258"/>
      <point x="950" y="368.502" type="curve" smooth="yes"/>
      <point x="950" y="374.487" type="line" smooth="yes"/>
      <point x="950" y="506.476"/>
      <point x="834.002" y="558.929"/>
      <point x="559" y="565.922" type="curve" smooth="yes"/>
      <point x="320" y="572" type="line"/>
      <point x="320" y="729" type="line"/>
      <point x="545" y="731.984" type="line" smooth="yes"/>
      <point x="833.002" y="735.804"/>
      <point x="934" y="789.669"/>
      <point x="934" y="911.019" type="curve" smooth="yes"/>
      <point x="934" y="914.997" type="line" smooth="yes"/>
      <point x="934" y="1024.41"/>
      <point x="842.183" y="1101"/>
      <point x="597" y="1101" type="curve" smooth="yes"/>
      <point x="431.096" y="1101"/>
      <point x="283.026" y="1069"/>
      <point x="132" y="999" type="curve"/>
      <point x="148" y="1180" type="line"/>
      <point x="273.105" y="1233.72"/>
      <point x="430.247" y="1266"/>
      <point x="618.411" y="1266" type="curve" smooth="yes"/>
      <point x="988.219" y="1266"/>
      <point x="1148" y="1130"/>
      <point x="1148" y="947" type="curve" smooth="yes"/>
      <point x="1148" y="938" type="line" smooth="yes"/>
      <point x="1148" y="792.286"/>
      <point x="1036.09" y="694.861"/>
      <point x="780" y="683" type="curve"/>
      <point x="785" y="614" type="line"/>
      <point x="1067.23" y="569.24"/>
      <point x="1165" y="474.982"/>
      <point x="1165" y="331" type="curve" smooth="yes"/>
      <point x="1165" y="323" type="line" smooth="yes"/>
      <point x="1165" y="130.952"/>
      <point x="989.818" y="8"/>
      <point x="621.521" y="8" type="curve" smooth="yes"/>
      <point x="387.801" y="8"/>
      <point x="221.962" y="51.8064"/>
      <point x="90.9369" y="118.743" type="curve"/>
    </contour>
    <contour>
      <point x="772" y="698" type="line"/>
      <point x="938" y="716" type="line"/>
      <point x="939" y="698" type="line"/>
      <point x="1064.31" y="704.667"/>
      <point x="1134.71" y="712"/>
      <point x="1299" y="712" type="curve" smooth="yes"/>
      <point x="1662" y="712" type="line"/>
      <point x="1662" y="548" type="line"/>
      <point x="1306" y="548" type="line" smooth="yes"/>
      <point x="1145.58" y="548"/>
      <point x="1065.23" y="563"/>
      <point x="941" y="587" type="curve"/>
      <point x="937" y="566" type="line"/>
      <point x="772" y="606" type="line"/>
    </contour>
    <contour>
      <point x="999" y="-433" type="curve" smooth="yes"/>
      <point x="798.843" y="-433"/>
      <point x="629.529" y="-397.548"/>
      <point x="509.026" y="-334.805" type="curve"/>
      <point x="496" y="-151" type="line"/>
      <point x="638.092" y="-222.585"/>
      <point x="804.49" y="-262"/>
      <point x="998" y="-262" type="curve" smooth="yes"/>
      <point x="1191.51" y="-262"/>
      <point x="1357.91" y="-222.585"/>
      <point x="1500" y="-151" type="curve"/>
      <point x="1487.03" y="-334.805" type="line"/>
      <point x="1364.01" y="-396.548"/>
      <point x="1198.36" y="-433"/>
    </contour>
    <contour>
      <point x="999" y="-784" type="curve" smooth="yes"/>
      <point x="798.843" y="-784"/>
      <point x="629.529" y="-748.548"/>
      <point x="509.026" y="-685.805" type="curve"/>
      <point x="496" y="-502" type="line"/>
      <point x="638.092" y="-573.585"/>
      <point x="804.49" y="-613"/>
      <point x="998" y="-613" type="curve" smooth="yes"/>
      <point x="1191.51" y="-613"/>
      <point x="1357.91" y="-573.585"/>
      <point x="1500" y="-502" type="curve"/>
      <point x="1487.03" y="-685.805" type="line"/>
      <point x="1364.01" y="-747.548"/>
      <point x="1198.36" y="-784"/>
    </contour>
  </outline>
  <guideline angle="90" x="446" y="0"/>
  <guideline angle="90" x="1684" y="0"/>
  <guideline angle="90" x="446" y="0"/>
  <guideline angle="90" x="1154.5" y="0"/>
  <guideline angle="0" x="0" y="9"/>
</glyph>
<glyph name="uni0978" format="2">
  <advance width="1508"/>
  <unicode hex="0978"/>
  <anchor x="1084.5" y="28" name="bottom"/>
  <anchor x="1055" y="23" name="bottom2"/>
  <anchor x="1304.5" y="23" name="bottom3"/>
  <anchor x="768.5" y="42.5" name="bottom5"/>
  <anchor x="1112" y="1217.5" name="top"/>
  <outline>
    <contour>
      <point x="1557.5" y="1093.5" type="line"/>
      <point x="-35" y="1093.5" type="line"/>
      <point x="-49" y="1248" type="line"/>
      <point x="1543.5" y="1248" type="line"/>
    </contour>
    <contour>
      <point x="482.5" y="1149" type="line"/>
      <point x="482.5" y="598.5" type="line"/>
      <point x="274" y="598.5" type="line"/>
      <point x="274" y="1149" type="line"/>
    </contour>
    <contour>
      <point x="269.5" y="230.5" type="line"/>
      <point x="214.5" y="355"/>
      <point x="173.5" y="467"/>
      <point x="155" y="625" type="curve"/>
      <point x="275" y="680.5" type="line"/>
      <point x="482.5" y="680.5" type="line"/>
      <point x="482.5" y="230.5" type="line"/>
    </contour>
    <contour>
      <point x="431.5" y="708" type="line"/>
      <point x="542" y="738"/>
      <point x="673" y="756"/>
      <point x="811" y="756" type="curve" smooth="yes"/>
      <point x="1190.5" y="756"/>
      <point x="1364" y="612"/>
      <point x="1364" y="369" type="curve" smooth="yes"/>
      <point x="1364" y="219.955"/>
      <point x="1296" y="100.523"/>
      <point x="1183.5" y="0" type="curve"/>
      <point x="935.5" y="0" type="line"/>
      <point x="936.355" y="4.53557" type="line"/>
      <point x="1071.05" y="124.54"/>
      <point x="1146" y="231.169"/>
      <point x="1146" y="353.284" type="curve" smooth="yes"/>
      <point x="1146" y="496.852"/>
      <point x="1049" y="587.5"/>
      <point x="799" y="587.5" type="curve" smooth="yes"/>
      <point x="679" y="587.5"/>
      <point x="563" y="571"/>
      <point x="455" y="542" type="curve"/>
    </contour>
  </outline>
  <guideline angle="90" x="691" y="0"/>
</glyph>
<glyph name="uni0979" format="2">
  <advance width="1828"/>
  <unicode hex="0979"/>
  <anchor x="1499" y="23" name="bottom"/>
  <anchor x="1494" y="23" name="bottom2"/>
  <anchor x="1603.5" y="23" name="bottom3"/>
  <anchor x="1498.5" y="42.5" name="bottom5"/>
  <anchor x="1498.5" y="1217.5" name="top"/>
  <outline>
    <contour>
      <point x="342.025" y="-248.163" type="curve" smooth="yes"/>
      <point x="261.175" y="-248.163"/>
      <point x="221.275" y="-204.588"/>
      <point x="221.275" y="-142.638" type="curve" smooth="yes"/>
      <point x="221.275" y="-137.913" type="line" smooth="yes"/>
      <point x="221.275" y="-75.9625"/>
      <point x="261.175" y="-31.3375"/>
      <point x="342.025" y="-31.3375" type="curve" smooth="yes"/>
      <point x="422.875" y="-31.3375"/>
      <point x="461.725" y="-75.9625"/>
      <point x="461.725" y="-137.913" type="curve" smooth="yes"/>
      <point x="461.725" y="-142.638" type="line" smooth="yes"/>
      <point x="461.725" y="-204.588"/>
      <point x="422.875" y="-248.163"/>
    </contour>
    <contour>
      <point x="781.525" y="-248.163" type="curve" smooth="yes"/>
      <point x="700.675" y="-248.163"/>
      <point x="660.775" y="-204.588"/>
      <point x="660.775" y="-142.638" type="curve" smooth="yes"/>
      <point x="660.775" y="-137.913" type="line" smooth="yes"/>
      <point x="660.775" y="-75.9625"/>
      <point x="700.675" y="-31.3375"/>
      <point x="781.525" y="-31.3375" type="curve" smooth="yes"/>
      <point x="862.375" y="-31.3375"/>
      <point x="901.225" y="-75.9625"/>
      <point x="901.225" y="-137.913" type="curve" smooth="yes"/>
      <point x="901.225" y="-142.638" type="line" smooth="yes"/>
      <point x="901.225" y="-204.588"/>
      <point x="862.375" y="-248.163"/>
    </contour>
    <contour>
      <point x="563.025" y="-538.162" type="curve" smooth="yes"/>
      <point x="482.175" y="-538.162"/>
      <point x="442.275" y="-494.587"/>
      <point x="442.275" y="-432.637" type="curve" smooth="yes"/>
      <point x="442.275" y="-427.912" type="line" smooth="yes"/>
      <point x="442.275" y="-365.962"/>
      <point x="482.175" y="-321.337"/>
      <point x="563.025" y="-321.337" type="curve" smooth="yes"/>
      <point x="643.875" y="-321.337"/>
      <point x="682.725" y="-365.962"/>
      <point x="682.725" y="-427.912" type="curve" smooth="yes"/>
      <point x="682.725" y="-432.637" type="line" smooth="yes"/>
      <point x="682.725" y="-494.587"/>
      <point x="643.875" y="-538.162"/>
    </contour>
    <contour>
      <point x="1603.5" y="1145.5" type="line"/>
      <point x="1603.5" y="0" type="line"/>
      <point x="1393.5" y="0" type="line"/>
      <point x="1393.5" y="1145.5" type="line"/>
    </contour>
    <contour>
      <point x="1270" y="1092.5" type="line"/>
      <point x="1256" y="1248" type="line"/>
      <point x="1864" y="1248" type="line"/>
      <point x="1878" y="1092.5" type="line"/>
    </contour>
    <contour>
      <point x="1778" y="1093" type="line"/>
      <point x="-36" y="1093" type="line"/>
      <point x="-50" y="1248" type="line"/>
      <point x="1764" y="1248" type="line"/>
    </contour>
    <contour>
      <point x="1439" y="831" type="line"/>
      <point x="1439" y="668" type="line"/>
      <point x="996" y="668" type="line"/>
      <point x="679" y="673" type="line"/>
      <point x="284" y="674" type="line"/>
      <point x="284" y="831" type="line"/>
    </contour>
    <contour>
      <point x="874" y="720" type="line"/>
      <point x="874" y="660" type="line"/>
      <point x="1007.01" y="610.795"/>
      <point x="1074" y="531.174"/>
      <point x="1074" y="404.386" type="curve" smooth="yes"/>
      <point x="1074" y="397.398" type="line" smooth="yes"/>
      <point x="1074" y="200.752"/>
      <point x="912.01" y="63"/>
      <point x="573" y="63" type="curve" smooth="yes"/>
      <point x="368.385" y="63"/>
      <point x="213.292" y="113.924"/>
      <point x="102" y="186.163" type="curve"/>
      <point x="90" y="381" type="line"/>
      <point x="228" y="293.2"/>
      <point x="368" y="232"/>
      <point x="550" y="232" type="curve" smooth="yes"/>
      <point x="761" y="232"/>
      <point x="856" y="313.812"/>
      <point x="856" y="443.518" type="curve" smooth="yes"/>
      <point x="856" y="448.507" type="line" smooth="yes"/>
      <point x="856" y="581.015"/>
      <point x="770.999" y="662.005"/>
      <point x="487" y="669" type="curve" smooth="yes"/>
      <point x="284" y="674" type="line"/>
      <point x="284" y="720" type="line"/>
    </contour>
  </outline>
  <guideline angle="90" x="1332" y="0"/>
  <guideline angle="0" x="0" y="9"/>
  <guideline angle="90" x="1337" y="0"/>
  <guideline angle="90" x="1320" y="0"/>
  <guideline angle="0" x="0" y="1262"/>
  <guideline angle="90" x="1499" y="0"/>
  <guideline angle="0" x="0" y="30"/>
</glyph>
<glyph name="endash" format="2">
  <advance width="1352"/>
  <unicode hex="2013"/>
  <outline>
    <contour>
      <point x="1212" y="438" type="line"/>
      <point x="1212" y="610" type="line"/>
      <point x="140" y="610" type="line"/>
      <point x="140" y="438" type="line"/>
    </contour>
  </outline>
</glyph>
<glyph name="ellipsis" format="2">
  <advance width="1517"/>
  <unicode hex="2026"/>
  <outline>
    <contour>
      <point x="1262" y="-24" type="curve" smooth="yes"/>
      <point x="1357" y="-24"/>
      <point x="1402" y="23"/>
      <point x="1402" y="100" type="curve" smooth="yes"/>
      <point x="1402" y="104" type="line" smooth="yes"/>
      <point x="1402" y="181"/>
      <point x="1357" y="228"/>
      <point x="1262" y="228" type="curve" smooth="yes"/>
      <point x="1169" y="228"/>
      <point x="1123" y="181"/>
      <point x="1123" y="104" type="curve" smooth="yes"/>
      <point x="1123" y="100" type="line" smooth="yes"/>
      <point x="1123" y="23"/>
      <point x="1169" y="-24"/>
    </contour>
    <contour>
      <point x="758" y="-24" type="curve" smooth="yes"/>
      <point x="853" y="-24"/>
      <point x="898" y="23"/>
      <point x="898" y="100" type="curve" smooth="yes"/>
      <point x="898" y="104" type="line" smooth="yes"/>
      <point x="898" y="181"/>
      <point x="853" y="228"/>
      <point x="758" y="228" type="curve" smooth="yes"/>
      <point x="665" y="228"/>
      <point x="619" y="181"/>
      <point x="619" y="104" type="curve" smooth="yes"/>
      <point x="619" y="100" type="line" smooth="yes"/>
      <point x="619" y="23"/>
      <point x="665" y="-24"/>
    </contour>
    <contour>
      <point x="254" y="-24" type="curve" smooth="yes"/>
      <point x="349" y="-24"/>
      <point x="394" y="23"/>
      <point x="394" y="100" type="curve" smooth="yes"/>
      <point x="394" y="104" type="line" smooth="yes"/>
      <point x="394" y="181"/>
      <point x="349" y="228"/>
      <point x="254" y="228" type="curve" smooth="yes"/>
      <point x="161" y="228"/>
      <point x="115" y="181"/>
      <point x="115" y="104" type="curve" smooth="yes"/>
      <point x="115" y="100" type="line" smooth="yes"/>
      <point x="115" y="23"/>
      <point x="161" y="-24"/>
    </contour>
  </outline>
</glyph>
<glyph name="sixsuperior" format="2">
  <advance width="928"/>
  <unicode hex="2076"/>
  <outline>
    <contour>
      <point x="495" y="731" type="curve" smooth="yes"/>
      <point x="734" y="731"/>
      <point x="870" y="816"/>
      <point x="870" y="967" type="curve" smooth="yes"/>
      <point x="870" y="976" type="line" smooth="yes"/>
      <point x="870" y="1112"/>
      <point x="759" y="1186"/>
      <point x="561" y="1186" type="curve" smooth="yes"/>
      <point x="384" y="1186"/>
      <point x="287" y="1116"/>
      <point x="243" y="1036" type="curve"/>
      <point x="222" y="1036" type="line"/>
      <point x="246" y="956" type="line"/>
      <point x="297" y="1017"/>
      <point x="387" y="1069"/>
      <point x="519" y="1069" type="curve" smooth="yes"/>
      <point x="657" y="1069"/>
      <point x="701" y="1033"/>
      <point x="701" y="975" type="curve" smooth="yes"/>
      <point x="701" y="970" type="line" smooth="yes"/>
      <point x="701" y="904"/>
      <point x="630" y="867"/>
      <point x="499" y="867" type="curve" smooth="yes"/>
      <point x="332" y="867"/>
      <point x="236" y="934"/>
      <point x="236" y="1072" type="curve" smooth="yes"/>
      <point x="236" y="1084" type="line" smooth="yes"/>
      <point x="236" y="1230"/>
      <point x="335" y="1310"/>
      <point x="538" y="1310" type="curve" smooth="yes"/>
      <point x="662" y="1310"/>
      <point x="742" y="1287"/>
      <point x="817" y="1259" type="curve"/>
      <point x="798" y="1391" type="line"/>
      <point x="723" y="1419"/>
      <point x="628" y="1442"/>
      <point x="505" y="1442" type="curve" smooth="yes"/>
      <point x="217" y="1442"/>
      <point x="63" y="1309"/>
      <point x="63" y="1082" type="curve"/>
      <point x="63" y="1068" type="line"/>
      <point x="63" y="856"/>
      <point x="226" y="731"/>
    </contour>
  </outline>
</glyph>
<glyph name="zeroinferior" format="2">
  <advance width="964"/>
  <unicode hex="2080"/>
  <outline>
    <contour>
      <point x="482" y="-216" type="curve" smooth="yes"/>
      <point x="753" y="-216"/>
      <point x="897" y="-86"/>
      <point x="897" y="137" type="curve" smooth="yes"/>
      <point x="897" y="145" type="line" smooth="yes"/>
      <point x="897" y="365"/>
      <point x="754" y="497"/>
      <point x="482" y="497" type="curve" smooth="yes"/>
      <point x="210" y="497"/>
      <point x="67" y="365"/>
      <point x="67" y="145" type="curve" smooth="yes"/>
      <point x="67" y="137" type="line" smooth="yes"/>
      <point x="67" y="-86"/>
      <point x="211" y="-216"/>
    </contour>
    <contour>
      <point x="482" y="-76" type="curve" smooth="yes"/>
      <point x="322" y="-76"/>
      <point x="243" y="5"/>
      <point x="243" y="136" type="curve" smooth="yes"/>
      <point x="243" y="145" type="line" smooth="yes"/>
      <point x="243" y="276"/>
      <point x="321" y="357"/>
      <point x="482" y="357" type="curve" smooth="yes"/>
      <point x="642" y="357"/>
      <point x="721" y="277"/>
      <point x="721" y="145" type="curve" smooth="yes"/>
      <point x="721" y="136" type="line" smooth="yes"/>
      <point x="721" y="5"/>
      <point x="642" y="-76"/>
    </contour>
  </outline>
</glyph>
<glyph name="nineinferior" format="2">
  <advance width="926"/>
  <unicode hex="2089"/>
  <outline>
    <contour>
      <point x="438" y="496" type="curve" smooth="yes"/>
      <point x="191" y="496"/>
      <point x="58" y="409"/>
      <point x="58" y="266" type="curve" smooth="yes"/>
      <point x="58" y="256" type="line" smooth="yes"/>
      <point x="58" y="110"/>
      <point x="163" y="41"/>
      <point x="368" y="41" type="curve" smooth="yes"/>
      <point x="541" y="41"/>
      <point x="641" y="109"/>
      <point x="685" y="190" type="curve"/>
      <point x="708" y="190" type="line"/>
      <point x="684" y="272" type="line"/>
      <point x="637" y="211"/>
      <point x="544" y="159"/>
      <point x="416" y="159" type="curve" smooth="yes"/>
      <point x="264" y="159"/>
      <point x="228" y="204"/>
      <point x="228" y="257" type="curve" smooth="yes"/>
      <point x="228" y="262" type="line" smooth="yes"/>
      <point x="228" y="322"/>
      <point x="300" y="361"/>
      <point x="431" y="361" type="curve" smooth="yes"/>
      <point x="594" y="361"/>
      <point x="693" y="298"/>
      <point x="693" y="152" type="curve" smooth="yes"/>
      <point x="693" y="141" type="line" smooth="yes"/>
      <point x="693" y="3"/>
      <point x="592" y="-79"/>
      <point x="385" y="-79" type="curve" smooth="yes"/>
      <point x="273" y="-79"/>
      <point x="180" y="-56"/>
      <point x="101" y="-25" type="curve"/>
      <point x="121" y="-165" type="line"/>
      <point x="201" y="-194"/>
      <point x="297" y="-213"/>
      <point x="398" y="-213" type="curve" smooth="yes"/>
      <point x="700" y="-213"/>
      <point x="863" y="-78"/>
      <point x="863" y="140" type="curve" smooth="yes"/>
      <point x="863" y="150" type="line" smooth="yes"/>
      <point x="863" y="372"/>
      <point x="706" y="496"/>
    </contour>
  </outline>
</glyph>
<glyph name="bulletoperator" format="2">
  <advance width="509"/>
  <unicode hex="2219"/>
  <outline>
    <contour>
      <point x="254" y="375" type="curve" smooth="yes"/>
      <point x="349" y="375"/>
      <point x="394" y="422"/>
      <point x="394" y="499" type="curve" smooth="yes"/>
      <point x="394" y="503" type="line" smooth="yes"/>
      <point x="394" y="580"/>
      <point x="349" y="627"/>
      <point x="254" y="627" type="curve" smooth="yes"/>
      <point x="161" y="627"/>
      <point x="115" y="580"/>
      <point x="115" y="503" type="curve" smooth="yes"/>
      <point x="115" y="499" type="line" smooth="yes"/>
      <point x="115" y="422"/>
      <point x="161" y="375"/>
    </contour>
  </outline>
</glyph>
<glyph name="BaLaYa.dv" format="2">
  <advance width="4024"/>
  <anchor x="3694" y="23" name="bottom"/>
  <anchor x="3689.5" y="23" name="bottom2"/>
  <anchor x="3799" y="23" name="bottom3"/>
  <anchor x="3694" y="42.5" name="bottom5"/>
  <anchor x="3694" y="1217.5" name="top"/>
  <outline>
    <contour>
      <point x="-28.5" y="1093.5" type="line"/>
      <point x="-42.5" y="1248" type="line"/>
      <point x="1382.5" y="1248" type="line"/>
      <point x="1396.5" y="1093.5" type="line"/>
    </contour>
    <contour>
      <point x="362" y="744" type="line"/>
      <point x="516" y="810" type="line"/>
      <point x="1162" y="334" type="line"/>
      <point x="1033" y="252" type="line"/>
    </contour>
    <contour>
      <point x="129" y="521" type="curve" smooth="yes"/>
      <point x="129" y="530" type="line" smooth="yes"/>
      <point x="129" y="778"/>
      <point x="325" y="920"/>
      <point x="700" y="920" type="curve" smooth="yes"/>
      <point x="830" y="920"/>
      <point x="937" y="908"/>
      <point x="1039" y="884" type="curve"/>
      <point x="1054" y="721" type="line"/>
      <point x="949" y="746"/>
      <point x="841" y="759"/>
      <point x="720" y="759" type="curve" smooth="yes"/>
      <point x="469" y="759"/>
      <point x="344" y="678"/>
      <point x="344" y="526" type="curve" smooth="yes"/>
      <point x="344" y="521" type="line" smooth="yes"/>
      <point x="344" y="367"/>
      <point x="479.166" y="281"/>
      <point x="731.607" y="281" type="curve" smooth="yes"/>
      <point x="1020.82" y="281"/>
      <point x="1154" y="382"/>
      <point x="1204" y="514" type="curve"/>
      <point x="1207" y="331" type="line"/>
      <point x="1183" y="331" type="line"/>
      <point x="1121.98" y="207.147"/>
      <point x="988.934" y="116"/>
      <point x="703.983" y="116" type="curve" smooth="yes"/>
      <point x="345.705" y="116"/>
      <point x="129" y="267"/>
    </contour>
    <contour>
      <point x="3799" y="1145.5" type="line"/>
      <point x="3799" y="0" type="line"/>
      <point x="3589" y="0" type="line"/>
      <point x="3589" y="1145.5" type="line"/>
    </contour>
    <contour>
      <point x="3465.5" y="1092.5" type="line"/>
      <point x="3451.5" y="1248" type="line"/>
      <point x="4059.5" y="1248" type="line"/>
      <point x="4073.5" y="1092.5" type="line"/>
    </contour>
    <contour>
      <point x="2311" y="1248" type="line"/>
      <point x="3959" y="1248" type="line"/>
      <point x="3973" y="1092.5" type="line"/>
      <point x="2325" y="1092.5" type="line"/>
    </contour>
    <contour>
      <point x="3026.5" y="1134.5" type="line"/>
      <point x="3108" y="1077.47"/>
      <point x="3155.5" y="999.714"/>
      <point x="3155.5" y="900" type="curve" smooth="yes"/>
      <point x="3155.5" y="893.5" type="line" smooth="yes"/>
      <point x="3155.5" y="701.931"/>
      <point x="3004.47" y="590.123"/>
      <point x="2683" y="585" type="curve" smooth="yes"/>
      <point x="2557.5" y="583" type="line"/>
      <point x="2494.5" y="736" type="line"/>
      <point x="2573.5" y="736" type="line" smooth="yes"/>
      <point x="2835" y="736"/>
      <point x="2938.5" y="794.598"/>
      <point x="2938.5" y="921" type="curve" smooth="yes"/>
      <point x="2938.5" y="925" type="line" smooth="yes"/>
      <point x="2938.5" y="1010.22"/>
      <point x="2900" y="1076.67"/>
      <point x="2799.5" y="1134.5" type="curve"/>
    </contour>
    <contour>
      <point x="2485.5" y="627" type="line" smooth="yes"/>
      <point x="2485.5" y="660.5"/>
      <point x="2488" y="696"/>
      <point x="2494.5" y="736" type="curve"/>
      <point x="2691" y="694" type="line"/>
      <point x="2691" y="603.5" type="line" smooth="yes"/>
      <point x="2691" y="435.5"/>
      <point x="2839.53" y="329.5"/>
      <point x="3120.5" y="329.5" type="curve" smooth="yes"/>
      <point x="3399.89" y="329.5"/>
      <point x="3550.57" y="416.5"/>
      <point x="3594.5" y="557.5" type="curve"/>
      <point x="3597" y="386" type="line"/>
      <point x="3580" y="386" type="line"/>
      <point x="3528.8" y="255.605"/>
      <point x="3380.35" y="157.5"/>
      <point x="3089" y="157.5" type="curve" smooth="yes"/>
      <point x="2705.19" y="157.5"/>
      <point x="2485.5" y="328.5"/>
      <point x="2485.5" y="620" type="curve" smooth="yes"/>
    </contour>
    <contour>
      <point x="2303.5" y="698.5" type="curve" smooth="yes"/>
      <point x="2166" y="698.5"/>
      <point x="2086" y="618"/>
      <point x="2082.5" y="467" type="curve" smooth="yes"/>
      <point x="2076.5" y="260" type="line"/>
      <point x="1975" y="260" type="line"/>
      <point x="1975" y="625.5" type="line"/>
      <point x="1999" y="770.5"/>
      <point x="2108.5" y="867"/>
      <point x="2287.5" y="867" type="curve" smooth="yes"/>
      <point x="2451" y="867"/>
      <point x="2545.5" y="805"/>
      <point x="2592.5" y="690.5" type="curve"/>
      <point x="2495.5" y="584.5" type="line"/>
      <point x="2464.5" y="659.5"/>
      <point x="2404" y="698.5"/>
    </contour>
    <contour>
      <point x="1003.5" y="1092.5" type="line"/>
      <point x="989.5" y="1248" type="line"/>
      <point x="2326" y="1248" type="line"/>
      <point x="2340" y="1092.5" type="line"/>
    </contour>
    <contour>
      <point x="1996" y="260" type="line"/>
      <point x="1878" y="260" type="line"/>
      <point x="1871" y="466" type="line" smooth="yes"/>
      <point x="1865.89" y="616.462"/>
      <point x="1795" y="695.5"/>
      <point x="1643" y="695.5" type="curve" smooth="yes"/>
      <point x="1488.5" y="695.5"/>
      <point x="1396" y="605.5"/>
      <point x="1396" y="457" type="curve" smooth="yes"/>
      <point x="1396" y="288.5"/>
      <point x="1501.5" y="151"/>
      <point x="1689.5" y="5.5" type="curve"/>
      <point x="1689.5" y="0" type="line"/>
      <point x="1427.5" y="0" type="line"/>
      <point x="1262.16" y="133.235"/>
      <point x="1176.5" y="283"/>
      <point x="1176" y="464.5" type="curve" smooth="yes"/>
      <point x="1175.32" y="712"/>
      <point x="1342" y="866"/>
      <point x="1624.5" y="866" type="curve" smooth="yes"/>
      <point x="1829" y="866"/>
      <point x="1935.39" y="783.372"/>
      <point x="1971.5" y="651" type="curve"/>
      <point x="1996" y="651" type="line"/>
    </contour>
  </outline>
  <guideline angle="90" x="250" y="0"/>
  <guideline angle="0" x="0" y="882"/>
  <guideline angle="90" x="3527.5" y="0"/>
  <guideline angle="0" x="0" y="9"/>
  <guideline angle="90" x="3532.5" y="0"/>
  <guideline angle="90" x="3515.5" y="0"/>
  <guideline angle="0" x="0" y="1262"/>
  <guideline angle="90" x="3694.5" y="0"/>
  <guideline angle="0" x="0" y="30"/>
</glyph>
<glyph name="BaSaTta.dv" format="2">
  <advance width="3582"/>
  <anchor x="2973.5" y="-7" name="bottom"/>
  <anchor x="2834" y="-7" name="bottom2"/>
  <anchor x="3466" y="-7" name="bottom3"/>
  <anchor x="2938" y="0" name="bottom4"/>
  <anchor x="2914" y="12" name="bottom5"/>
  <anchor x="3275.5" y="1217.5" name="top"/>
  <outline>
    <contour>
      <point x="3048.5" y="1093.5" type="line"/>
      <point x="3034.5" y="1248" type="line"/>
      <point x="3616" y="1248" type="line"/>
      <point x="3630" y="1093.5" type="line"/>
    </contour>
    <contour>
      <point x="3380.5" y="1145.5" type="line"/>
      <point x="3380.5" y="912.5" type="line"/>
      <point x="3177" y="912.5" type="line"/>
      <point x="3177" y="1145.5" type="line"/>
    </contour>
    <contour>
      <point x="2118" y="1093" type="line"/>
      <point x="2104" y="1248" type="line"/>
      <point x="3629" y="1248" type="line"/>
      <point x="3643" y="1093" type="line"/>
    </contour>
    <contour>
      <point x="3177" y="738" type="line"/>
      <point x="3177" y="1150" type="line"/>
      <point x="3381" y="1150" type="line"/>
      <point x="3381" y="659" type="line"/>
    </contour>
    <contour>
      <point x="3429" y="70" type="line"/>
      <point x="3293" y="1.96959"/>
      <point x="3134" y="-30"/>
      <point x="2922" y="-30" type="curve" smooth="yes"/>
      <point x="2506" y="-30"/>
      <point x="2278" y="130"/>
      <point x="2278" y="416" type="curve" smooth="yes"/>
      <point x="2278" y="427" type="line" smooth="yes"/>
      <point x="2278" y="708"/>
      <point x="2479.05" y="850"/>
      <point x="2912" y="850" type="curve" smooth="yes"/>
      <point x="3056.93" y="850"/>
      <point x="3191.79" y="842"/>
      <point x="3381" y="816" type="curve"/>
      <point x="3381" y="659" type="line"/>
      <point x="3203" y="682.586"/>
      <point x="3079" y="690"/>
      <point x="2937" y="690" type="curve" smooth="yes"/>
      <point x="2632" y="690"/>
      <point x="2496" y="603"/>
      <point x="2496" y="425" type="curve" smooth="yes"/>
      <point x="2496" y="419" type="line" smooth="yes"/>
      <point x="2496" y="237"/>
      <point x="2639" y="138"/>
      <point x="2935" y="138" type="curve" smooth="yes"/>
      <point x="3119" y="138"/>
      <point x="3304" y="178"/>
      <point x="3444" y="255" type="curve"/>
    </contour>
    <contour>
      <point x="-28.5" y="1092.5" type="line"/>
      <point x="-42.5" y="1248" type="line"/>
      <point x="2235" y="1248" type="line"/>
      <point x="2249" y="1092.5" type="line"/>
    </contour>
    <contour>
      <point x="362" y="764" type="line"/>
      <point x="516" y="830" type="line"/>
      <point x="1162" y="354" type="line"/>
      <point x="1033" y="272" type="line"/>
    </contour>
    <contour>
      <point x="1758" y="647" type="line"/>
      <point x="2385" y="647" type="line"/>
      <point x="2385" y="482" type="line"/>
      <point x="1808" y="482" type="line"/>
    </contour>
    <contour>
      <point x="1968" y="0" type="line"/>
      <point x="1705" y="0" type="line"/>
      <point x="1301.48" y="461" type="line"/>
      <point x="1164" y="469" type="line"/>
      <point x="1164" y="639" type="line"/>
      <point x="1477" y="609" type="line"/>
      <point x="1477" y="493" type="line"/>
      <point x="1570.46" y="424"/>
      <point x="1647.33" y="359.555"/>
      <point x="1738" y="261" type="curve" smooth="yes"/>
      <point x="1968" y="11" type="line"/>
    </contour>
    <contour>
      <point x="1776" y="1139" type="line"/>
      <point x="1875" y="1065"/>
      <point x="1929" y="968"/>
      <point x="1929" y="846" type="curve" smooth="yes"/>
      <point x="1929" y="838" type="line" smooth="yes"/>
      <point x="1929" y="627"/>
      <point x="1766" y="493.8"/>
      <point x="1386.99" y="485.378" type="curve" smooth="yes"/>
      <point x="1280" y="483" type="line"/>
      <point x="1164" y="639" type="line"/>
      <point x="1257" y="639" type="line" smooth="yes"/>
      <point x="1593" y="639"/>
      <point x="1712" y="714"/>
      <point x="1712" y="870" type="curve" smooth="yes"/>
      <point x="1712" y="876" type="line" smooth="yes"/>
      <point x="1712" y="983"/>
      <point x="1658" y="1069"/>
      <point x="1537" y="1139" type="curve"/>
    </contour>
    <contour>
      <point x="129" y="549.458" type="curve" smooth="yes"/>
      <point x="129" y="558.267" type="line" smooth="yes"/>
      <point x="129" y="801.024"/>
      <point x="322" y="940"/>
      <point x="696" y="940" type="curve" smooth="yes"/>
      <point x="805.213" y="940"/>
      <point x="904.194" y="929.531"/>
      <point x="989.614" y="908.592" type="curve"/>
      <point x="1007.89" y="751.343" type="line"/>
      <point x="916.018" y="769.231"/>
      <point x="824.894" y="779"/>
      <point x="720" y="779" type="curve" smooth="yes"/>
      <point x="469" y="779"/>
      <point x="344" y="701.881"/>
      <point x="344" y="555.287" type="curve" smooth="yes"/>
      <point x="344" y="550.464" type="line" smooth="yes"/>
      <point x="344" y="400.013"/>
      <point x="484.166" y="318"/>
      <point x="734.607" y="318" type="curve" smooth="yes"/>
      <point x="991.611" y="318"/>
      <point x="1123.35" y="403.738"/>
      <point x="1172" y="560.5" type="curve"/>
      <point x="1280.5" y="468" type="line"/>
      <point x="1208.3" y="266.888"/>
      <point x="1042.67" y="153"/>
      <point x="704.916" y="153" type="curve" smooth="yes"/>
      <point x="346.925" y="153"/>
      <point x="129" y="298.871"/>
    </contour>
  </outline>
  <guideline angle="0" x="0" y="33"/>
  <guideline angle="0" x="0" y="54"/>
  <guideline angle="90" x="3114" y="0"/>
</glyph>
<glyph name="BaSha.dv" format="2">
  <advance width="2991"/>
  <anchor x="2661.5" y="23" name="bottom"/>
  <anchor x="2656.5" y="23" name="bottom2"/>
  <anchor x="2766" y="23" name="bottom3"/>
  <anchor x="2661" y="42.5" name="bottom5"/>
  <anchor x="2661" y="1217.5" name="top"/>
  <outline>
    <contour>
      <point x="-28.5" y="1092.5" type="line"/>
      <point x="-42.5" y="1248" type="line"/>
      <point x="1064.5" y="1248" type="line"/>
      <point x="1078.5" y="1092.5" type="line"/>
    </contour>
    <contour>
      <point x="362" y="744" type="line"/>
      <point x="516" y="810" type="line"/>
      <point x="1162" y="334" type="line"/>
      <point x="1033" y="252" type="line"/>
    </contour>
    <contour>
      <point x="1007.89" y="731.343" type="line"/>
      <point x="916.018" y="749.231"/>
      <point x="824.894" y="759"/>
      <point x="720" y="759" type="curve" smooth="yes"/>
      <point x="469" y="759"/>
      <point x="344" y="678"/>
      <point x="344" y="526" type="curve" smooth="yes"/>
      <point x="344" y="521" type="line" smooth="yes"/>
      <point x="344" y="365"/>
      <point x="484.166" y="281"/>
      <point x="734.607" y="281" type="curve" smooth="yes"/>
      <point x="991.611" y="281"/>
      <point x="1123.35" y="366.738"/>
      <point x="1172" y="513.5" type="curve"/>
      <point x="1280.5" y="421" type="line"/>
      <point x="1210.3" y="226.888"/>
      <point x="1046.67" y="116"/>
      <point x="705.916" y="116" type="curve" smooth="yes"/>
      <point x="348.925" y="116"/>
      <point x="129" y="264"/>
      <point x="129" y="520" type="curve" smooth="yes"/>
      <point x="129" y="529" type="line" smooth="yes"/>
      <point x="129" y="777"/>
      <point x="325" y="920"/>
      <point x="700" y="920" type="curve" smooth="yes"/>
      <point x="808.213" y="920"/>
      <point x="902.194" y="910.531"/>
      <point x="989.614" y="890.592" type="curve"/>
    </contour>
    <contour>
      <point x="2766" y="1145.5" type="line"/>
      <point x="2766" y="0" type="line"/>
      <point x="2556" y="0" type="line"/>
      <point x="2556" y="1145.5" type="line"/>
    </contour>
    <contour>
      <point x="2432.5" y="1092.5" type="line"/>
      <point x="2418.5" y="1248" type="line"/>
      <point x="3026.5" y="1248" type="line"/>
      <point x="3040.5" y="1092.5" type="line"/>
    </contour>
    <contour>
      <point x="2335.5" y="1248" type="line"/>
      <point x="2926.5" y="1248" type="line"/>
      <point x="2940.5" y="1093" type="line"/>
      <point x="2349.5" y="1093" type="line"/>
    </contour>
    <contour>
      <point x="2132.5" y="0" type="line"/>
      <point x="1836.16" y="0" type="line"/>
      <point x="1346.42" y="385" type="line"/>
      <point x="1163.5" y="404" type="line"/>
      <point x="1163.5" y="574" type="line"/>
      <point x="1565.5" y="468" type="line"/>
      <point x="1565.5" y="392" type="line"/>
      <point x="1679.26" y="336.481"/>
      <point x="1775.23" y="282.335"/>
      <point x="1873.65" y="208.962" type="curve" smooth="yes"/>
      <point x="2132.5" y="16" type="line"/>
    </contour>
    <contour>
      <point x="2215.5" y="856" type="curve" smooth="yes"/>
      <point x="2215.5" y="846" type="line" smooth="yes"/>
      <point x="2215.5" y="558.122"/>
      <point x="1985.18" y="399"/>
      <point x="1563.5" y="399" type="curve" smooth="yes"/>
      <point x="1474.03" y="399"/>
      <point x="1383.52" y="401"/>
      <point x="1305.5" y="407" type="curve"/>
      <point x="1163.5" y="574" type="line"/>
      <point x="1281.51" y="564"/>
      <point x="1372.14" y="559"/>
      <point x="1487.5" y="559" type="curve" smooth="yes"/>
      <point x="1847.63" y="559"/>
      <point x="1997.5" y="662.344"/>
      <point x="1997.5" y="859" type="curve" smooth="yes"/>
      <point x="1997.5" y="866" type="line" smooth="yes"/>
      <point x="1997.5" y="1017"/>
      <point x="1897.5" y="1115"/>
      <point x="1707.5" y="1115" type="curve" smooth="yes"/>
      <point x="1533.5" y="1115"/>
      <point x="1431.5" y="1033"/>
      <point x="1431.5" y="909" type="curve" smooth="yes"/>
      <point x="1431.5" y="906" type="line" smooth="yes"/>
      <point x="1431.5" y="853"/>
      <point x="1448.5" y="804"/>
      <point x="1489.5" y="752" type="curve"/>
      <point x="1284.5" y="752" type="line"/>
      <point x="1242.5" y="808"/>
      <point x="1220.5" y="871"/>
      <point x="1220.5" y="937" type="curve" smooth="yes"/>
      <point x="1220.5" y="941" type="line" smooth="yes"/>
      <point x="1220.5" y="1144"/>
      <point x="1398.5" y="1279"/>
      <point x="1700.5" y="1279" type="curve" smooth="yes"/>
      <point x="2031.5" y="1279"/>
      <point x="2215.5" y="1109"/>
    </contour>
  </outline>
  <guideline angle="90" x="309" y="0"/>
  <guideline angle="90" x="2494.5" y="0"/>
  <guideline angle="0" x="0" y="9"/>
  <guideline angle="90" x="2499.5" y="0"/>
  <guideline angle="90" x="2482.5" y="0"/>
  <guideline angle="0" x="0" y="1262"/>
  <guideline angle="90" x="2661.5" y="0"/>
  <guideline angle="0" x="0" y="30"/>
</glyph>
<glyph name="BhaVa.dv" format="2">
  <advance width="2479"/>
  <anchor x="2150" y="23" name="bottom"/>
  <anchor x="2145" y="23" name="bottom2"/>
  <anchor x="2254.5" y="23" name="bottom3"/>
  <anchor x="2149.5" y="42.5" name="bottom5"/>
  <anchor x="2149.5" y="1217.5" name="top"/>
  <outline>
    <contour>
      <point x="1050" y="1093" type="line"/>
      <point x="1036" y="1248" type="line"/>
      <point x="2404" y="1248" type="line"/>
      <point x="2419" y="1093" type="line"/>
    </contour>
    <contour>
      <point x="1012" y="521" type="curve" smooth="yes"/>
      <point x="1012" y="529" type="line" smooth="yes"/>
      <point x="1012" y="777"/>
      <point x="1200" y="913"/>
      <point x="1560" y="913" type="curve" smooth="yes"/>
      <point x="1674" y="913"/>
      <point x="1770" y="902"/>
      <point x="1865" y="877" type="curve"/>
      <point x="1880" y="714" type="line"/>
      <point x="1791" y="736"/>
      <point x="1693" y="748"/>
      <point x="1590" y="748" type="curve" smooth="yes"/>
      <point x="1349" y="748"/>
      <point x="1230" y="674"/>
      <point x="1230" y="529" type="curve" smooth="yes"/>
      <point x="1230" y="523" type="line" smooth="yes"/>
      <point x="1230" y="382"/>
      <point x="1352" y="301"/>
      <point x="1598" y="301" type="curve" smooth="yes"/>
      <point x="1861" y="301"/>
      <point x="2010" y="386"/>
      <point x="2050" y="517" type="curve"/>
      <point x="2053" y="347" type="line"/>
      <point x="2034" y="347" type="line"/>
      <point x="1982.21" y="213.14"/>
      <point x="1833.98" y="129"/>
      <point x="1566" y="129" type="curve" smooth="yes"/>
      <point x="1208.53" y="129"/>
      <point x="1012" y="278"/>
    </contour>
    <contour>
      <point x="924" y="1092.5" type="line"/>
      <point x="909.5" y="1248" type="line"/>
      <point x="1212.91" y="1248" type="line"/>
      <point x="1226.91" y="1092.5" type="line"/>
    </contour>
    <contour>
      <point x="358" y="473" type="line"/>
      <point x="358" y="636.5" type="line"/>
      <point x="1133" y="636.5" type="line"/>
      <point x="1133" y="473" type="line"/>
    </contour>
    <contour>
      <point x="275.5" y="171.5" type="line"/>
      <point x="219" y="297.5"/>
      <point x="178.5" y="409"/>
      <point x="159.5" y="566" type="curve"/>
      <point x="281" y="629" type="line"/>
      <point x="489.5" y="629" type="line"/>
      <point x="489.5" y="171.5" type="line"/>
    </contour>
    <contour>
      <point x="281" y="549" type="line"/>
      <point x="281" y="913" type="line" smooth="yes"/>
      <point x="281" y="1052"/>
      <point x="244.5" y="1092.5"/>
      <point x="111.5" y="1092.5" type="curve" smooth="yes"/>
      <point x="-34" y="1092.5" type="line"/>
      <point x="-48" y="1248" type="line"/>
      <point x="149" y="1248" type="line" smooth="yes"/>
      <point x="398.5" y="1248"/>
      <point x="489.5" y="1153.5"/>
      <point x="489.5" y="918.5" type="curve" smooth="yes"/>
      <point x="489.5" y="549" type="line"/>
    </contour>
    <contour>
      <point x="2254.5" y="1145.5" type="line"/>
      <point x="2254.5" y="0" type="line"/>
      <point x="2044.5" y="0" type="line"/>
      <point x="2044.5" y="1145.5" type="line"/>
    </contour>
    <contour>
      <point x="1921" y="1092.5" type="line"/>
      <point x="1907" y="1248" type="line"/>
      <point x="2515" y="1248" type="line"/>
      <point x="2529" y="1092.5" type="line"/>
    </contour>
  </outline>
  <guideline angle="90" x="1983" y="0"/>
  <guideline angle="0" x="0" y="9"/>
  <guideline angle="90" x="1988" y="0"/>
  <guideline angle="90" x="1971" y="0"/>
  <guideline angle="0" x="0" y="1262"/>
  <guideline angle="90" x="2150" y="0"/>
  <guideline angle="0" x="0" y="30"/>
</glyph>
<glyph name="CaCa.dv" format="2">
  <advance width="2651"/>
  <anchor x="2322" y="23" name="bottom"/>
  <anchor x="2317" y="23" name="bottom2"/>
  <anchor x="2426.5" y="23" name="bottom3"/>
  <anchor x="2321.5" y="42.5" name="bottom5"/>
  <anchor x="2321.5" y="1217.5" name="top"/>
  <outline>
    <contour>
      <point x="-36" y="1092.5" type="line"/>
      <point x="-50" y="1248" type="line"/>
      <point x="1274.5" y="1248" type="line"/>
      <point x="1288.5" y="1092.5" type="line"/>
    </contour>
    <contour>
      <point x="1071.5" y="864" type="line"/>
      <point x="1071.5" y="702" type="line"/>
      <point x="572.36" y="706" type="line"/>
      <point x="365.5" y="699.5" type="line"/>
      <point x="67" y="699.5" type="line"/>
      <point x="67" y="864" type="line"/>
    </contour>
    <contour>
      <point x="780.589" y="130" type="curve" smooth="yes"/>
      <point x="460.39" y="130"/>
      <point x="273" y="254.017"/>
      <point x="273" y="457" type="curve" smooth="yes"/>
      <point x="273" y="462.5" type="line" smooth="yes"/>
      <point x="273" y="583.662"/>
      <point x="336.238" y="663.155"/>
      <point x="472.5" y="693.5" type="curve"/>
      <point x="472.5" y="741.5" type="line"/>
      <point x="1071.5" y="741.5" type="line"/>
      <point x="1071.5" y="702" type="line"/>
      <point x="840" y="695.5" type="line" smooth="yes"/>
      <point x="605.22" y="688.908"/>
      <point x="493.5" y="633.039"/>
      <point x="493.5" y="505.917" type="curve" smooth="yes"/>
      <point x="493.5" y="501.948" type="line" smooth="yes"/>
      <point x="493.5" y="371.962"/>
      <point x="617.53" y="301.5"/>
      <point x="824.515" y="301.5" type="curve" smooth="yes"/>
      <point x="1017.06" y="301.5"/>
      <point x="1153.9" y="353.9"/>
      <point x="1204.5" y="450.5" type="curve"/>
      <point x="1224.5" y="329" type="line"/>
      <point x="1208.5" y="329" type="line"/>
      <point x="1149.16" y="200.756"/>
      <point x="1015" y="130"/>
    </contour>
    <contour>
      <point x="2426.5" y="1145.5" type="line"/>
      <point x="2426.5" y="0" type="line"/>
      <point x="2216.5" y="0" type="line"/>
      <point x="2216.5" y="1145.5" type="line"/>
    </contour>
    <contour>
      <point x="2093" y="1092.5" type="line"/>
      <point x="2079" y="1248" type="line"/>
      <point x="2687" y="1248" type="line"/>
      <point x="2701" y="1092.5" type="line"/>
    </contour>
    <contour>
      <point x="876.5" y="1092.5" type="line"/>
      <point x="862.5" y="1248" type="line"/>
      <point x="2587" y="1248" type="line"/>
      <point x="2601" y="1092.5" type="line"/>
    </contour>
    <contour>
      <point x="1984" y="864" type="line"/>
      <point x="1984" y="705" type="line"/>
      <point x="1484.86" y="706" type="line"/>
      <point x="1278" y="699.5" type="line"/>
      <point x="979.5" y="699.5" type="line"/>
      <point x="979.5" y="864" type="line"/>
    </contour>
    <contour>
      <point x="1729.5" y="130" type="curve" smooth="yes"/>
      <point x="1386.35" y="130"/>
      <point x="1185.5" y="252.017"/>
      <point x="1185.5" y="457" type="curve" smooth="yes"/>
      <point x="1185.5" y="462.5" type="line" smooth="yes"/>
      <point x="1185.5" y="583.662"/>
      <point x="1248.74" y="663.155"/>
      <point x="1385" y="693.5" type="curve"/>
      <point x="1385" y="741.5" type="line"/>
      <point x="1984" y="741.5" type="line"/>
      <point x="1984" y="705" type="line"/>
      <point x="1752.5" y="698.5" type="line" smooth="yes"/>
      <point x="1517.72" y="691.908"/>
      <point x="1406" y="635.606"/>
      <point x="1406" y="507.5" type="curve" smooth="yes"/>
      <point x="1406" y="503.5" type="line" smooth="yes"/>
      <point x="1406" y="371.5"/>
      <point x="1532.31" y="301.5"/>
      <point x="1774.5" y="301.5" type="curve" smooth="yes"/>
      <point x="2046.03" y="301.5"/>
      <point x="2182.04" y="390"/>
      <point x="2223" y="528.5" type="curve"/>
      <point x="2225" y="359" type="line"/>
      <point x="2207" y="359" type="line"/>
      <point x="2167.25" y="235.807"/>
      <point x="2027.24" y="130"/>
    </contour>
  </outline>
  <guideline angle="0" x="0" y="94"/>
  <guideline angle="0" x="0" y="94"/>
  <guideline angle="0" x="0" y="94"/>
  <guideline angle="90" x="2155" y="0"/>
  <guideline angle="0" x="0" y="9"/>
  <guideline angle="90" x="2160" y="0"/>
  <guideline angle="90" x="2143" y="0"/>
  <guideline angle="0" x="0" y="1262"/>
  <guideline angle="90" x="2322" y="0"/>
  <guideline angle="0" x="0" y="30"/>
</glyph>
<glyph name="CaHalant.dv" format="2">
  <advance width="1120"/>
  <outline>
    <contour>
      <point x="-36" y="1092.5" type="line"/>
      <point x="-50" y="1248" type="line"/>
      <point x="1339.5" y="1248" type="line"/>
      <point x="1353.5" y="1092.5" type="line"/>
    </contour>
    <contour>
      <point x="1071.5" y="864" type="line"/>
      <point x="1071.5" y="705" type="line"/>
      <point x="572.36" y="706" type="line"/>
      <point x="365.5" y="699.5" type="line"/>
      <point x="67" y="699.5" type="line"/>
      <point x="67" y="864" type="line"/>
    </contour>
    <contour>
      <point x="817" y="130" type="curve" smooth="yes"/>
      <point x="473.849" y="130"/>
      <point x="273" y="252.017"/>
      <point x="273" y="457" type="curve" smooth="yes"/>
      <point x="273" y="462.5" type="line" smooth="yes"/>
      <point x="273" y="583.662"/>
      <point x="336.238" y="663.155"/>
      <point x="472.5" y="693.5" type="curve"/>
      <point x="472.5" y="741.5" type="line"/>
      <point x="1071.5" y="741.5" type="line"/>
      <point x="1071.5" y="705" type="line"/>
      <point x="840" y="698.5" type="line" smooth="yes"/>
      <point x="605.22" y="691.908"/>
      <point x="493.5" y="635.606"/>
      <point x="493.5" y="507.5" type="curve" smooth="yes"/>
      <point x="493.5" y="503.5" type="line" smooth="yes"/>
      <point x="493.5" y="371.5"/>
      <point x="619.806" y="301.5"/>
      <point x="862" y="301.5" type="curve" smooth="yes"/>
      <point x="1115.62" y="301.42"/>
      <point x="1248.5" y="373"/>
      <point x="1314" y="486" type="curve"/>
      <point x="1316" y="367" type="line"/>
      <point x="1259.5" y="226"/>
      <point x="1110" y="130"/>
    </contour>
  </outline>
  <guideline angle="0" x="0" y="94"/>
</glyph>
<glyph name="Component_Bindu_I_kar.dv" format="2">
  <note>For Ikar Bindu</note>
  <outline>
    <contour>
      <point x="-181.74" y="1519.59" type="curve" smooth="yes"/>
      <point x="-279.382" y="1519.59"/>
      <point x="-319.476" y="1570.76"/>
      <point x="-319.476" y="1635.52" type="curve" smooth="yes"/>
      <point x="-319.476" y="1640.09" type="line" smooth="yes"/>
      <point x="-319.476" y="1705.96"/>
      <point x="-279.382" y="1758.85"/>
      <point x="-181.74" y="1758.85" type="curve" smooth="yes"/>
      <point x="-83.507" y="1758.85"/>
      <point x="-43.8176" y="1705.96"/>
      <point x="-43.8176" y="1640.09" type="curve" smooth="yes"/>
      <point x="-43.8176" y="1635.52" type="line" smooth="yes"/>
      <point x="-43.8176" y="1570.76"/>
      <point x="-83.507" y="1519.59"/>
    </contour>
  </outline>
  <guideline angle="90" x="79" y="0"/>
  <guideline angle="90" x="29.4764" y="0"/>
</glyph>
<glyph name="Component_matraA_Down.dv" format="2">
  <advance width="659"/>
  <anchor x="329.5" y="23" name="bottom"/>
  <anchor x="325" y="23" name="bottom2"/>
  <anchor x="434.5" y="23" name="bottom3"/>
  <outline>
    <contour>
      <point x="434.5" y="945.5" type="line"/>
      <point x="434.5" y="0" type="line"/>
      <point x="224.5" y="0" type="line"/>
      <point x="224.5" y="945.5" type="line"/>
    </contour>
  </outline>
  <guideline angle="90" x="168" y="0"/>
</glyph>
<glyph name="Component_matraA_Up.dv" format="2">
  <advance width="659"/>
  <anchor x="329.5" y="1217.5" name="top"/>
  <outline>
    <contour>
      <point x="102.5" y="1093.5" type="line"/>
      <point x="88.5" y="1248" type="line"/>
      <point x="670" y="1248" type="line"/>
      <point x="684" y="1093.5" type="line"/>
    </contour>
    <contour>
      <point x="434.5" y="1145.5" type="line"/>
      <point x="434.5" y="912.5" type="line"/>
      <point x="231" y="912.5" type="line"/>
      <point x="231" y="1145.5" type="line"/>
    </contour>
  </outline>
  <guideline angle="90" x="168" y="0"/>
</glyph>
<glyph name="DaBa.dv" format="2">
  <advance width="1501"/>
  <anchor x="1284.5" y="-388.5" name="bottom"/>
  <anchor x="1054" y="-398.5" name="bottom2"/>
  <anchor x="1314" y="-388.5" name="bottom3"/>
  <anchor x="1173" y="1217.5" name="top"/>
  <outline>
    <contour>
      <point x="-34.5" y="1092.5" type="line"/>
      <point x="-48.5" y="1248" type="line"/>
      <point x="1536" y="1248" type="line"/>
      <point x="1550" y="1092.5" type="line"/>
    </contour>
    <contour>
      <point x="425.5" y="82" type="line"/>
      <point x="538" y="156.5" type="line"/>
      <point x="1117" y="-223.5" type="line"/>
      <point x="1020.5" y="-312" type="line"/>
    </contour>
    <contour>
      <point x="1068.5" y="786" type="line"/>
      <point x="1068.5" y="1149" type="line"/>
      <point x="1278" y="1149" type="line"/>
      <point x="1278" y="717.5" type="line"/>
    </contour>
    <contour>
      <point x="1296" y="505.5" type="line"/>
      <point x="1296" y="236" type="line"/>
      <point x="1389.5" y="-412.5" type="line"/>
      <point x="1189" y="-412.5" type="line"/>
      <point x="1107" y="212.5" type="line"/>
      <point x="1086" y="229" type="line"/>
      <point x="1086" y="505.5" type="line"/>
    </contour>
    <contour>
      <point x="483" y="105" type="line"/>
      <point x="400.173" y="70.2208"/>
      <point x="361" y="17.0155"/>
      <point x="361" y="-58" type="curve" smooth="yes"/>
      <point x="361" y="-63.5" type="line" smooth="yes"/>
      <point x="361" y="-189.865"/>
      <point x="489.757" y="-273"/>
      <point x="714.702" y="-273" type="curve" smooth="yes"/>
      <point x="976.782" y="-273"/>
      <point x="1113.03" y="-175.527"/>
      <point x="1151" y="-23.5" type="curve"/>
      <point x="1189.5" y="-205" type="line"/>
      <point x="1152" y="-206" type="line"/>
      <point x="1103.55" y="-347.124"/>
      <point x="960.629" y="-434.5"/>
      <point x="686.116" y="-434.5" type="curve" smooth="yes"/>
      <point x="344.596" y="-434.5"/>
      <point x="151" y="-289.653"/>
      <point x="151" y="-72.8968" type="curve" smooth="yes"/>
      <point x="151" y="-66.4041" type="line" smooth="yes"/>
      <point x="151" y="51.5711"/>
      <point x="212.091" y="137.833"/>
      <point x="333.657" y="193.5" type="curve"/>
    </contour>
    <contour>
      <point x="731" y="224" type="curve" smooth="yes"/>
      <point x="887.859" y="224"/>
      <point x="1008.6" y="257.28"/>
      <point x="1097" y="317.5" type="curve"/>
      <point x="1121.5" y="163.5" type="line"/>
      <point x="1033.49" y="96.6274"/>
      <point x="898.98" y="58.5"/>
      <point x="707" y="58.5" type="curve" smooth="yes"/>
      <point x="353.305" y="58.5"/>
      <point x="131.5" y="218.763"/>
      <point x="131.5" y="478.5" type="curve" smooth="yes"/>
      <point x="131.5" y="488.5" type="line" smooth="yes"/>
      <point x="131.5" y="751.209"/>
      <point x="323.991" y="895.5"/>
      <point x="750" y="895.5" type="curve" smooth="yes"/>
      <point x="930.87" y="895.5"/>
      <point x="1079.82" y="884.317"/>
      <point x="1278" y="858.5" type="curve"/>
      <point x="1278" y="709.5" type="line"/>
      <point x="1097.78" y="727"/>
      <point x="939.643" y="736.5"/>
      <point x="779" y="736.5" type="curve" smooth="yes"/>
      <point x="481.016" y="736.5"/>
      <point x="349.5" y="647.768"/>
      <point x="349.5" y="485.5" type="curve" smooth="yes"/>
      <point x="349.5" y="479.5" type="line" smooth="yes"/>
      <point x="349.5" y="319"/>
      <point x="504.255" y="224"/>
    </contour>
    <contour>
      <point x="946" y="1093.5" type="line"/>
      <point x="932" y="1248" type="line"/>
      <point x="1513.5" y="1248" type="line"/>
      <point x="1527.5" y="1093.5" type="line"/>
    </contour>
    <contour>
      <point x="1278" y="1145.5" type="line"/>
      <point x="1278" y="912.5" type="line"/>
      <point x="1074.5" y="912.5" type="line"/>
      <point x="1074.5" y="1145.5" type="line"/>
    </contour>
  </outline>
  <guideline angle="90" x="486" y="0"/>
  <guideline angle="0" x="0" y="-340"/>
  <guideline angle="90" x="1011.5" y="0"/>
</glyph>
<glyph name="DaBha.dv" format="2">
  <advance width="2264"/>
  <anchor x="2007.5" y="-187.5" name="bottom"/>
  <anchor x="1756" y="-202.5" name="bottom2"/>
  <anchor x="2068" y="-192.5" name="bottom3"/>
  <anchor x="1929.25" y="1217.5" name="top"/>
  <outline>
    <contour>
      <point x="-36" y="1093.5" type="line"/>
      <point x="-50" y="1248" type="line"/>
      <point x="2299" y="1248" type="line"/>
      <point x="2313" y="1093.5" type="line"/>
    </contour>
    <contour>
      <point x="1828.5" y="786" type="line"/>
      <point x="1828.5" y="1149" type="line"/>
      <point x="2038" y="1149" type="line"/>
      <point x="2038" y="717.5" type="line"/>
    </contour>
    <contour>
      <point x="1901.5" y="134.5" type="line"/>
      <point x="578.5" y="-144.5" type="line"/>
      <point x="545.5" y="12" type="line"/>
      <point x="1374.67" y="180.5" type="line"/>
      <point x="1392.88" y="149.5" type="line"/>
      <point x="1876" y="259" type="line"/>
    </contour>
    <contour>
      <point x="577.5" y="-405.5" type="line"/>
      <point x="499.44" y="-308.5"/>
      <point x="446.56" y="-223"/>
      <point x="402.5" y="-97" type="curve"/>
      <point x="493.455" y="-7" type="line"/>
      <point x="679.5" y="32" type="line"/>
      <point x="763" y="-366.5" type="line"/>
    </contour>
    <contour>
      <point x="2056" y="503" type="line"/>
      <point x="2056" y="224" type="line"/>
      <point x="2127.5" y="-218" type="line"/>
      <point x="1917" y="-218" type="line"/>
      <point x="1856" y="228" type="line"/>
      <point x="1846" y="244" type="line"/>
      <point x="1846" y="503" type="line"/>
    </contour>
    <contour>
      <point x="503.5" y="-80" type="line"/>
      <point x="420" y="303.5" type="line" smooth="yes"/>
      <point x="393.376" y="426.475"/>
      <point x="346.989" y="457.539"/>
      <point x="229.5" y="435" type="curve" smooth="yes"/>
      <point x="107" y="411.5" type="line"/>
      <point x="57" y="563.5" type="line"/>
      <point x="201.5" y="593.5" type="line" smooth="yes"/>
      <point x="438.578" y="643.122"/>
      <point x="562.959" y="570.208"/>
      <point x="610.5" y="349.5" type="curve" smooth="yes"/>
      <point x="693" y="-33.5" type="line"/>
    </contour>
    <contour>
      <point x="891.5" y="501.426" type="line" smooth="yes"/>
      <point x="891.5" y="755.792"/>
      <point x="1083.99" y="895.5"/>
      <point x="1510" y="895.5" type="curve" smooth="yes"/>
      <point x="1690.87" y="895.5"/>
      <point x="1839.82" y="884.317"/>
      <point x="2038" y="858.5" type="curve"/>
      <point x="2038" y="709.5" type="line"/>
      <point x="1857.78" y="727"/>
      <point x="1699.64" y="736.5"/>
      <point x="1539" y="736.5" type="curve" smooth="yes"/>
      <point x="1241.02" y="736.5"/>
      <point x="1109.5" y="648.199"/>
      <point x="1109.5" y="486.719" type="curve" smooth="yes"/>
      <point x="1109.5" y="480.748" type="line" smooth="yes"/>
      <point x="1109.5" y="315.194"/>
      <point x="1251.38" y="229.5"/>
      <point x="1476" y="229.5" type="curve" smooth="yes"/>
      <point x="1605.5" y="229.5"/>
      <point x="1722.33" y="255.992"/>
      <point x="1856.5" y="292.5" type="curve"/>
      <point x="1867" y="200" type="line"/>
      <point x="1456.5" y="118.5" type="line"/>
      <point x="1087.7" y="87.4821"/>
      <point x="891.5" y="259.098"/>
      <point x="891.5" y="494.5" type="curve" smooth="yes"/>
    </contour>
    <contour>
      <point x="1702.25" y="1093.5" type="line"/>
      <point x="1688.25" y="1248" type="line"/>
      <point x="2269.75" y="1248" type="line"/>
      <point x="2283.75" y="1093.5" type="line"/>
    </contour>
    <contour>
      <point x="2034.25" y="1145.5" type="line"/>
      <point x="2034.25" y="912.5" type="line"/>
      <point x="1830.75" y="912.5" type="line"/>
      <point x="1830.75" y="1145.5" type="line"/>
    </contour>
  </outline>
  <guideline angle="90" x="804" y="0"/>
  <guideline angle="0" x="0" y="-146"/>
  <guideline angle="90" x="1767.75" y="0"/>
</glyph>
<glyph name="DaRaHalant.dv" format="2">
  <advance width="1501"/>
  <anchor x="1259" y="-121" name="bottom"/>
  <anchor x="915.5" y="-126" name="bottom2"/>
  <anchor x="1331.5" y="-126" name="bottom3"/>
  <anchor x="1173" y="1217.5" name="top"/>
  <outline>
    <contour>
      <point x="946" y="1093.5" type="line"/>
      <point x="932" y="1248" type="line"/>
      <point x="1513.5" y="1248" type="line"/>
      <point x="1527.5" y="1093.5" type="line"/>
    </contour>
    <contour>
      <point x="1278" y="1145.5" type="line"/>
      <point x="1278" y="912.5" type="line"/>
      <point x="1074.5" y="912.5" type="line"/>
      <point x="1074.5" y="1145.5" type="line"/>
    </contour>
    <contour>
      <point x="-34.5" y="1092.5" type="line"/>
      <point x="-48.5" y="1248" type="line"/>
      <point x="1536" y="1248" type="line"/>
      <point x="1550" y="1092.5" type="line"/>
    </contour>
    <contour>
      <point x="1068.5" y="778" type="line"/>
      <point x="1068.5" y="1149" type="line"/>
      <point x="1278" y="1149" type="line"/>
      <point x="1278" y="708.5" type="line"/>
    </contour>
    <contour>
      <point x="1296" y="505.5" type="line"/>
      <point x="1296" y="239.906" type="line"/>
      <point x="1364.5" y="-148.5" type="line"/>
      <point x="1159.5" y="-148.5" type="line"/>
      <point x="1105" y="216.442" type="line"/>
      <point x="1086" y="232.418" type="line"/>
      <point x="1086" y="505.5" type="line"/>
    </contour>
    <contour>
      <point x="681" y="82" type="curve" smooth="yes"/>
      <point x="341" y="82"/>
      <point x="131.5" y="224.292"/>
      <point x="131.5" y="480.452" type="curve" smooth="yes"/>
      <point x="131.5" y="490.238" type="line" smooth="yes"/>
      <point x="131.5" y="751.825"/>
      <point x="323.991" y="895.5"/>
      <point x="750" y="895.5" type="curve" smooth="yes"/>
      <point x="921" y="895.5"/>
      <point x="1079.82" y="884.317"/>
      <point x="1278" y="858.5" type="curve"/>
      <point x="1278" y="708.5" type="line"/>
      <point x="1097.78" y="726"/>
      <point x="939.643" y="735.5"/>
      <point x="779" y="735.5" type="curve" smooth="yes"/>
      <point x="481.016" y="735.5"/>
      <point x="349.5" y="645.703"/>
      <point x="349.5" y="479.99" type="curve" smooth="yes"/>
      <point x="349.5" y="474.001" type="line" smooth="yes"/>
      <point x="349.5" y="315"/>
      <point x="495" y="226"/>
      <point x="716" y="226" type="curve" smooth="yes"/>
      <point x="841.072" y="226"/>
      <point x="937.337" y="252.587"/>
      <point x="1026" y="300" type="curve" smooth="yes"/>
      <point x="1119.5" y="350" type="line"/>
      <point x="1123" y="181" type="line"/>
      <point x="518" y="-197" type="line"/>
      <point x="189.5" y="-197" type="line"/>
      <point x="189.5" y="-166.5" type="line"/>
      <point x="799" y="139" type="line"/>
      <point x="842.5" y="114" type="line"/>
      <point x="797.575" y="93.9909"/>
      <point x="739.286" y="82"/>
    </contour>
    <contour>
      <point x="753.5" y="-295.5" type="line"/>
      <point x="1004.35" y="-295.5" type="line"/>
      <point x="1432" y="-747.5" type="line"/>
      <point x="1432" y="-757.5" type="line"/>
      <point x="1211.5" y="-757.5" type="line"/>
      <point x="753.5" y="-316" type="line"/>
    </contour>
  </outline>
  <guideline angle="0" x="0" y="-146"/>
  <guideline angle="90" x="1140" y="0"/>
  <guideline angle="0" x="0" y="661"/>
  <guideline angle="0" x="0" y="-129"/>
  <guideline angle="90" x="1011.5" y="0"/>
  <guideline angle="90" x="1056" y="0"/>
  <guideline angle="90" x="1180" y="0"/>
  <guideline angle="90" x="1051" y="0"/>
  <guideline angle="0" x="0" y="-140.5"/>
</glyph>
